<svg version="1.1" xmlns="http://www.w3.org/2000/svg" xmlns:xlink="http://www.w3.org/1999/xlink" width="31.55676" height="124.79129" viewBox="0,0,31.55676,124.79129"><defs><linearGradient x1="238.75828" y1="260.1932" x2="219.89514" y2="88.59006" gradientUnits="userSpaceOnUse" id="color-1"><stop offset="0" stop-color="#000000"/><stop offset="1" stop-color="#000000" stop-opacity="0"/></linearGradient><linearGradient x1="236.53114" y1="124.78193" x2="244.92252" y2="124.78193" gradientUnits="userSpaceOnUse" id="color-2"><stop offset="0" stop-color="#b3b3b3"/><stop offset="0.18449" stop-color="#cccccc"/><stop offset="0.52764" stop-color="#ececec"/><stop offset="0.84497" stop-color="#cccccc"/><stop offset="1" stop-color="#b3b3b3"/></linearGradient><linearGradient x1="226.62173" y1="238.26192" x2="254.16252" y2="238.26192" gradientUnits="userSpaceOnUse" id="color-3"><stop offset="0" stop-color="#1a1a1a"/><stop offset="0.18449" stop-color="#333333"/><stop offset="0.52764" stop-color="#4d4d4d"/><stop offset="0.84497" stop-color="#333333"/><stop offset="1" stop-color="#1a1a1a"/></linearGradient><linearGradient x1="226.43886" y1="144.20257" x2="254.50578" y2="144.20257" gradientUnits="userSpaceOnUse" id="color-4"><stop offset="0" stop-color="#552200"/><stop offset="0.18449" stop-color="#d45500"/><stop offset="0.52764" stop-color="#ffb380"/><stop offset="0.84497" stop-color="#ff7e2a"/><stop offset="1" stop-color="#803300"/></linearGradient></defs><g transform="translate(-224.58977,-117.70275)"><g data-paper-data="{&quot;isPaintingLayer&quot;:true}" stroke-linecap="butt" stroke-linejoin="miter" stroke-miterlimit="10" stroke-dasharray="" stroke-dashoffset="0" style="mix-blend-mode: normal"><g fill="url(#color-1)" fill-rule="evenodd" stroke="none" stroke-width="1" opacity="0.58371"><path d="M226.87782,123.39732c1.02495,-1.0736 4.87218,-1.28616 9.72272,-1.32583v-1.72364c-0.00212,-0.01061 -0.02206,-0.01075 -0.02206,-0.02206c-0.00007,-0.52955 1.8362,-0.53032 4.10999,-0.53033c2.27379,-0.00001 4.13212,-0.02131 4.13212,0.5082c0,0.01103 0.00141,0.03281 0,0.04412l-0.02206,1.74571c5.40138,0.06258 9.34703,0.36762 9.3471,1.96661c0,0.042 0.00537,0.09079 0,0.13251v0.04412l0.02192,114.21967l-0.04398,0.00014c-0.41818,1.91527 -6.41056,1.98874 -13.74439,1.98874c-7.33376,0.00007 -13.32621,-0.07347 -13.74439,-1.98874l-0.02213,-0.19891v-82.06823v-31.99658c-0.0053,-0.04165 0.00007,-0.09044 0,-0.13251c0,-0.25187 0.08151,-0.47077 0.26517,-0.66291z" opacity="0.24887"/><path d="M226.16149,122.72482c0.90913,-0.95226 2.2568,-1.16998 4.02167,-1.37002c1.49709,-0.16971 3.43442,-0.19148 5.43588,-0.22097l0.0221,-0.59662l-0.02213,-0.15464c-0.00269,-0.01146 0.00071,-0.03917 0,-0.04412c-0.00049,-0.00332 -0.02206,-0.02198 -0.02206,-0.02206c0.00001,-0.34656 0.19704,-0.69774 0.39775,-0.88388c0.20068,-0.18617 0.37308,-0.26709 0.55243,-0.33146c0.35867,-0.12874 0.73803,-0.18426 1.14905,-0.22097c0.82194,-0.0734 1.84606,-0.06625 2.98307,-0.06626c1.13385,-0.00007 2.15788,-0.00082 2.98307,0.06626c0.41259,0.03354 0.76662,0.07438 1.12695,0.19887c0.18016,0.06225 0.39255,0.14648 0.59662,0.33146c0.20406,0.18499 0.39775,0.53392 0.39775,0.88388c0,-0.0181 -0.00141,0.05119 0,0.04412v0.13251v0.70711c2.23043,0.04335 4.3586,0.09391 5.87775,0.35355c0.88821,0.1518 1.62873,0.35694 2.25397,0.70711c0.62523,0.35015 1.19324,1.01316 1.19324,1.81196c0,-0.02045 -0.00148,0.09058 0,0.13251v0.04412c-0.0012,0.0425 0.0094,0.01563 0,0.08839l0.02192,114.13198c0.00893,0.33775 -0.15846,0.65584 -0.44191,0.83972c-0.36324,0.5362 -0.89058,0.93286 -1.52466,1.17111c-0.87483,0.32866 -1.95013,0.52955 -3.22617,0.66291c-2.55216,0.26665 -5.89791,0.2873 -9.56807,0.2873c-3.67017,0 -7.01584,-0.02058 -9.568,-0.28723c-1.27612,-0.13343 -2.35135,-0.33424 -3.22617,-0.66291c-0.8749,-0.32874 -1.69312,-0.86264 -1.90035,-1.81196c-0.00147,-0.02956 -0.00159,-0.05917 -0.00035,-0.08874l-0.02206,-0.19884c-0.00957,-0.03642 -0.017,-0.07337 -0.02227,-0.11066l0.02192,-82.04631l0.00141,-31.86365c-0.01393,-0.10868 -0.00156,-0.09108 0,-0.13251c0.00148,-0.04137 0,-0.15344 0,-0.13251c0,-0.46119 0.19144,-0.97123 0.53033,-1.32583z" opacity="0.24887"/><path d="M225.33771,121.94559c0.00801,-0.00839 0.01399,-0.01372 0.02206,-0.02206c1.33572,-1.38112 2.8338,-1.44999 4.66252,-1.65732c1.28495,-0.14566 2.94779,-0.18342 4.552,-0.22097c0.07924,-0.56677 0.32806,-1.14618 0.64085,-1.43635c0.36009,-0.33406 0.68841,-0.45847 0.95017,-0.55243c0.52349,-0.18786 0.91598,-0.22458 1.36998,-0.26513c0.908,-0.08111 1.95646,-0.08838 3.09359,-0.08839c1.13059,0.00007 2.16296,-0.00753 3.07153,0.06633c0.45425,0.0369 0.86739,0.06175 1.39208,0.24303c0.26235,0.09064 0.58369,0.22016 0.95017,0.55243c0.34684,0.31444 0.66918,0.96508 0.70711,1.59099c1.80687,0.05353 3.65476,0.05458 5.01607,0.28723c0.95063,0.16249 1.79553,0.34083 2.60739,0.7955c0.81188,0.45469 1.74566,1.52772 1.74567,2.76214c0,-0.04619 -0.00361,0.11618 0,0.13251c0.0012,0.00544 -0.00071,0.03069 0,0.04412c0.0034,0.05798 0.00601,-0.01932 -0.0221,0.19887l0.04384,114.02097c0.04984,0.65302 -0.21847,1.28997 -0.72054,1.71049c-0.52828,0.64453 -1.19174,1.12032 -1.85616,1.36995c-1.02736,0.38601 -2.16891,0.56901 -3.49134,0.70718c-2.645,0.27634 -6.00482,0.30936 -9.67852,0.30936c-3.6737,0 -7.03352,-0.03302 -9.67852,-0.30936c-1.32257,-0.13817 -2.46406,-0.3211 -3.49141,-0.70711c-1.02728,-0.38594 -2.24383,-1.10022 -2.56326,-2.56326c-0.01881,-0.07278 -0.03357,-0.14655 -0.04419,-0.22097l-0.02206,-0.19884c-0.00403,-0.07361 -0.00404,-0.14739 -0.00004,-0.22101v-82.06823l0.02192,-31.75404c-0.03341,-0.2657 -0.02853,-0.21415 -0.0221,-0.24307c0.00346,-0.01563 -0.00007,-0.17939 0,-0.13251c-0.00002,-0.68082 0.32048,-1.52214 0.81756,-2.05499z" opacity="0.24887"/></g><g fill-rule="evenodd" stroke="none" stroke-width="1"><path d="M240.70449,119.794c2.27381,0 4.11448,-0.00558 4.11448,0.52394c0,0.01102 -0.00249,0.023 -0.00413,0.03401l0.00791,0.00023v7.58521h-8.23669v-7.58521h0.0041c-0.00179,-0.01087 -0.00416,-0.02296 -0.00413,-0.03401c-0.00003,-0.52953 1.84454,-0.52394 4.11835,-0.52394z" fill="url(#color-2)"/><path d="M254.16605,124.0995v114.36696h-0.03879c-0.41831,1.9152 -6.40179,1.99373 -13.73563,1.9937c-7.33384,-0.00003 -13.3303,-0.07836 -13.74852,-1.9937h-0.02589v-0.20713v-114.15604z" fill="url(#color-3)"/><path d="M240.39439,122.07327c7.60504,0.00009 13.76141,-0.02127 13.76141,1.99371c-0.00001,0.04207 -0.00759,0.08775 -0.01292,0.12946h0.02589v32.01525h-27.54919v-32.01525l0.01292,-0.00003c-0.0053,-0.04173 -0.01292,-0.08736 -0.01294,-0.12945c-0.00029,-2.01509 6.16917,-1.9937 13.7743,-1.9937z" fill="url(#color-4)"/></g><path d="M234.29522,229.71647v-99.43294h11.40957v99.43294z" fill="#8c8c8c" fill-rule="nonzero" stroke="#000000" stroke-width="2"/><path d="M234.95638,229.71647v-99.43294h10.08724v99.43294z" fill="#00ff52" fill-rule="nonzero" stroke="none" stroke-width="0"/></g></g></svg>