<svg xmlns:xlink="http://www.w3.org/1999/xlink" xmlns="http://www.w3.org/2000/svg" version="1.0" viewBox="0 0 875.89 656.15" id="svg2">
  <defs id="defs3">
    <linearGradient id="linearGradient19926">
      <stop offset="0" style="stop-color:#ffa4a4" id="stop19928"/>
      <stop offset="1" style="stop-color:#ffa4a4;stop-opacity:0" id="stop19930"/>
    </linearGradient>
    <linearGradient x1="-483.07" y1="566.5" x2="-423.31" gradientUnits="userSpaceOnUse" xlink:href="#linearGradient19926" y2="508.08" id="linearGradient29067"/>
    <linearGradient x1="-527.03" y1="465.01" x2="-422.5" gradientUnits="userSpaceOnUse" xlink:href="#linearGradient19926" y2="508.08" id="linearGradient29069"/>
    <linearGradient x1="-445.56" y1="465.45" x2="-551.53" gradientUnits="userSpaceOnUse" xlink:href="#linearGradient19926" y2="550.71" id="linearGradient29071"/>
    <linearGradient x1="-493.24" y1="447.23" x2="-462.02" gradientUnits="userSpaceOnUse" xlink:href="#linearGradient19926" y2="539.84" id="linearGradient29073"/>
    <linearGradient x1="-513.08" y1="508.08" x2="-444.04" gradientUnits="userSpaceOnUse" xlink:href="#linearGradient19926" y2="551.37" id="linearGradient29075"/>
    <linearGradient x1="-485.1" y1="534.66" x2="-398.95" gradientUnits="userSpaceOnUse" xlink:href="#linearGradient19926" y2="592.59" id="linearGradient29077"/>
    <linearGradient x1="-512.96" y1="508.08" x2="-401.86" gradientUnits="userSpaceOnUse" xlink:href="#linearGradient19926" y2="576.32" id="linearGradient29079"/>
    <linearGradient x1="848.66" y1="419.19" gradientTransform="translate(-36.161 -19.255)" x2="589.8" gradientUnits="userSpaceOnUse" y2="249.24" id="linearGradient1968">
      <stop offset="0" style="stop-color:red" id="stop18126"/>
      <stop offset="1" style="stop-color:red;stop-opacity:0" id="stop18128"/>
    </linearGradient>
    <linearGradient x1="651.69" y1="437.56" gradientTransform="translate(-36.161 -19.255)" x2="885.3" gradientUnits="userSpaceOnUse" y2="368.66" id="linearGradient1978">
      <stop offset="0" style="stop-color:#49d636" id="stop17229"/>
      <stop offset="1" style="stop-color:#49d636;stop-opacity:0" id="stop17231"/>
    </linearGradient>
    <linearGradient x1="437.02" y1="564.61" gradientTransform="translate(87.257 19.885)" x2="174.52" gradientUnits="userSpaceOnUse" y2="456.35" id="linearGradient1981">
      <stop offset="0" style="stop-color:yellow" id="stop14546"/>
      <stop offset="1" style="stop-color:yellow;stop-opacity:0" id="stop14548"/>
    </linearGradient>
    <linearGradient x1="98.927" y1="378.86" gradientTransform="matrix(1.6492 0 0 1.6 153.77 -236.74)" x2="243.75" gradientUnits="userSpaceOnUse" y2="520.48" id="linearGradient1984">
      <stop offset="0" style="stop-color:#ff6400" id="stop3666"/>
      <stop offset="1" style="stop-color:#e5d7ce;stop-opacity:0" id="stop3668"/>
    </linearGradient>
    <linearGradient x1="606.97" y1="345.75" gradientTransform="translate(-60.658 -167.77)" x2="747.27" gradientUnits="userSpaceOnUse" y2="230.8" id="linearGradient1988">
      <stop offset="0" style="stop-color:#57d544" id="stop27144"/>
      <stop offset="1" style="stop-color:#57d544;stop-opacity:0" id="stop27146"/>
    </linearGradient>
    <linearGradient x1="969.15" y1="388.27" x2="551.69" gradientUnits="userSpaceOnUse" y2="288.31" id="linearGradient7367">
      <stop offset="0" style="stop-color:#0d00ff" id="stop7363"/>
      <stop offset="1" style="stop-color:black;stop-opacity:0" id="stop7365"/>
    </linearGradient>
    <radialGradient r="101.76" gradientTransform="matrix(1 0 0 3.2543 .33402 -928.14)" cx="916.48" cy="411.42" gradientUnits="userSpaceOnUse" id="radialGradient8260">
      <stop offset="0" style="stop-color:#ff4100" id="stop4690"/>
      <stop offset="1" style="stop-color:red;stop-opacity:0" id="stop4692"/>
    </radialGradient>
    <linearGradient x1="814.72" y1="411.42" x2="1018.2" gradientUnits="userSpaceOnUse" y2="411.42" id="linearGradient9153">
      <stop offset="0" style="stop-color:#5354ff" id="stop9149"/>
      <stop offset="1" style="stop-color:black;stop-opacity:0" id="stop9151"/>
    </linearGradient>
    <linearGradient x1="535.99" y1="712.17" x2="734.65" gradientUnits="userSpaceOnUse" y2="630.3" id="linearGradient10079">
      <stop offset="0" style="stop-color:#ff2a2a" id="stop10075"/>
      <stop offset="1" style="stop-color:#ff2a2a;stop-opacity:0" id="stop10077"/>
    </linearGradient>
    <linearGradient x1="566.04" y1="614.3" x2="597.66" gradientUnits="userSpaceOnUse" y2="724.77" id="linearGradient10974">
      <stop offset="0" style="stop-color:#dcff00" id="stop10970"/>
      <stop offset="1" style="stop-color:black;stop-opacity:0" id="stop10972"/>
    </linearGradient>
    <linearGradient x1="369.9" y1="695.41" gradientTransform="translate(65.453 -22.704)" x2="460" gradientUnits="userSpaceOnUse" y2="695.41" id="linearGradient13681">
      <stop offset="0" style="stop-color:#00ff0e" id="stop13674"/>
      <stop offset="1" style="stop-color:black;stop-opacity:0" id="stop13676"/>
    </linearGradient>
  </defs>
  
  <g transform="translate(-66.961 -25.788)" id="layer1">
    <g transform="matrix(.87150 0 0 .85742 55.18 -5.8694)" id="g13699">
      <path d="m447.86 606.58l0.28 0.56c-41.92 89.38 57.4 128.87 64.16 131.44l0.12 0.25c0.03-0.07 0.07-0.13 0.1-0.19 0.11 0.04 0.43 0.19 0.43 0.19l10.74-43.87c41.92-89.38-68.42-85.57-75.17-88.13l-0.13-0.25-0.09 0.18c-0.11-0.04-0.44-0.18-0.44-0.18z" style="stroke-linejoin:round;fill-rule:evenodd;stroke:black;stroke-linecap:round;stroke-width:5;fill:url(#linearGradient13681)" id="path10998"/>
      <path d="m879.09 147.02c32.52-29.2 98.49-61.132 136.61-64.252-66.26 53.082-66.44 85.222-73.27 129.95-6.82 44.72-31.78 104.41-29.22 191.34 2.33 79.36 32.14 153.88 38.55 200.35s2.58 85.82 63.04 135.67c-37.21-2.31-119.34-45.23-133.47-58.8-55.17-52.97-35.34-128.24-25.11-171.91 17.71-75.48-25.09-44.89-39-98.25 13.91-53.35 55.87-26.25 39.29-100.52-8.57-38.38-32.24-114.38 22.58-163.58z" style="stroke-linejoin:round;stroke:black;stroke-linecap:round;stroke-width:5;fill:url(#linearGradient9153)" id="rect2007"/>
      <path d="m879.42 146.35c32.53-29.2 98.49-61.126 136.68-64.246-66.33 53.076-66.51 85.226-73.33 129.95-6.83 44.72-31.79 104.42-29.23 191.34 2.33 79.37 32.14 153.89 38.55 200.36s2.59 85.82 63.11 135.66c-37.28-2.3-119.41-45.23-133.54-58.79-55.16-52.97-35.34-128.25-25.1-171.91 17.7-75.49-25.09-44.89-39-98.25 13.91-53.36 55.87-26.25 39.28-100.53-8.57-38.37-32.23-114.37 22.58-163.58z" style="stroke-linejoin:round;stroke:black;stroke-linecap:round;stroke-width:5;fill:url(#radialGradient8260)" id="path7373"/>
      <path d="m476.54 164.03c31.92-14.78 57.41-25.23 84.89-32.8 27.47-7.58 63.49-15.88 122.68-23.67-60.12 47.2-57.4 67.51-37.79 104.92-11.01-5.4-38.83-20.01-67.31-26.9-34.76-8.4-51.82-7.26-79.35-7.46-27.52-0.19-46.72 5.31-55.44 8.17-8.02 2.63-3.92-4.21 32.32-22.26z" style="stroke-linejoin:round;stroke:black;stroke-linecap:round;stroke-width:5;fill:url(#linearGradient1988)" id="path23581"/>
      <path transform="matrix(.8875 0 0 .87654 298.57 -37.837)" d="m44.401 360.56a61.242 62.008 0 1 1 -122.48 0 61.242 62.008 0 1 1 122.48 0z" style="stroke-linejoin:round;stroke:black;stroke-linecap:round;stroke-width:5.6689;fill:white" id="path2777"/>
      <path d="m588.07 400.18c0 57.47-22.2 109.53-58.08 147.22-35.88 37.68-97.63 60.56-123.29 60.88-16.34 0.2-156.2-33.57-192.07-71.26-41.13-35.16-57.61-61.81-62.64-98.6-1.97-23.01 18.24-108.21 60.05-144.93 35.87-37.69 145.48-101.53 200.19-101.53 54.7 0 81.88 23.32 117.76 61.01 35.88 37.68 58.08 89.74 58.08 147.21z" style="stroke-linejoin:round;stroke:black;stroke-linecap:round;stroke-width:5;fill:url(#linearGradient1984)" id="path1883"/>
      <path d="m588.4 398.35c0 57.47-22.2 109.52-58.08 147.21s-97.63 60.57-123.29 60.89c-16.34 0.2-162.19-35.57-198.07-73.26-41.13-35.17-51.61-59.82-56.64-96.6-1.97-23.01 18.25-108.21 60.05-144.93 35.87-37.69 145.48-101.54 200.19-101.54 54.7 0 81.88 23.32 117.76 61.01s58.08 89.75 58.08 147.22z" style="stroke-linejoin:round;stroke:black;stroke-linecap:round;stroke-width:5;fill:url(#linearGradient1981)" id="path10986"/>
      <path d="m502.22 175.85c-34.27 0-67 5.68-97 15.94 96.54 33.01 164.81 113.77 164.81 208.13s-68.27 175.14-164.81 208.15c30 10.26 62.73 15.95 97 15.95 72.26 0 137.71-25.11 185.1-65.67 23.69-20.28 63.92-69.75 116.6-94.26 52.68-24.5 71.8-24.04 71.8-54.96 0-30.93-24.19-32.12-76.86-61.23-52.68-29.11-87.85-86.12-111.54-106.4-47.39-40.56-112.84-65.65-185.1-65.65z" style="stroke-linejoin:round;stroke:black;stroke-linecap:round;stroke-width:5.006;fill:url(#linearGradient1978)" id="path1874"/>
      <g id="g9179">
        <path transform="matrix(.8875 0 0 .87654 320.57 -45.837)" d="m44.401 360.56a61.242 62.008 0 1 1 -122.48 0 61.242 62.008 0 1 1 122.48 0z" style="stroke-linejoin:round;stroke:black;stroke-linecap:round;stroke-width:5.6689;fill:white" id="path1886"/>
        <path transform="matrix(.79867 0 0 .85684 394.88 72.049)" d="m-73.491 254.16a20.669 18.373 0 1 1 -41.339 0 20.669 18.373 0 1 1 41.339 0z" style="stroke-linejoin:round;stroke:black;stroke-linecap:round;stroke-width:5;fill:black" id="path2775"/>
        <path d="m375.59 325.14c100.45 203.24-219.75 122.9-219.75 122.9" style="stroke-linejoin:round;stroke:black;stroke-linecap:round;stroke-width:5;fill:none" id="path6337"/>
        <path d="m361.25 332.95l26.26-13.7" style="stroke-linejoin:round;stroke:black;stroke-linecap:round;stroke-width:5;fill:none" id="path9184"/>
      </g>
      <path d="m502.22 175.85c-34.27 0-67 5.68-97 15.94 96.54 33.01 164.81 113.77 164.81 208.13s-68.27 175.14-164.81 208.15c30 10.26 62.73 15.95 97 15.95 72.26 0 137.71-25.11 185.1-65.67 23.69-20.28 63.92-69.75 116.6-94.26 52.68-24.5 71.8-24.04 71.8-54.96 0-30.93-24.19-32.12-76.86-61.23-52.68-29.11-87.85-86.12-111.54-106.4-47.39-40.56-112.84-65.65-185.1-65.65z" style="stroke-linejoin:round;stroke:black;stroke-linecap:round;stroke-width:5.006;fill:url(#linearGradient1968)" id="path17237"/>
      <g transform="translate(-36.161 -19.255)" id="g22661">
        <path transform="matrix(.95261 0 0 .89748 625.72 -362.9)" d="m-424.39 508.08a43.305 41.14 0 1 1 -86.61 0 43.305 41.14 0 1 1 86.61 0z" style="stroke-width:0;fill:#e6e6e6" id="path19957"/>
        <path transform="matrix(.54131 0 0 .51717 378.15 -94.965)" d="m-424.39 508.08a43.305 41.14 0 1 1 -86.61 0 43.305 41.14 0 1 1 86.61 0z" style="stroke-width:0;fill:#e6e6e6" id="path19959"/>
        <path transform="matrix(.66158 0 0 .67008 474.96 40.43)" d="m-424.39 508.08a43.305 41.14 0 1 1 -86.61 0 43.305 41.14 0 1 1 86.61 0z" style="stroke-width:0;fill:#e6e6e6" id="path19961"/>
        <path transform="matrix(.78272 0 0 .77129 511.05 -99.933)" d="m-424.39 508.08a43.305 41.14 0 1 1 -86.61 0 43.305 41.14 0 1 1 86.61 0z" style="stroke-width:0;fill:#e6e6e6" id="path19963"/>
        <path transform="matrix(.49303 0 0 .46635 310.61 -12.119)" d="m-424.39 508.08a43.305 41.14 0 1 1 -86.61 0 43.305 41.14 0 1 1 86.61 0z" style="stroke-width:0;fill:#e6e6e6" id="path19965"/>
        <path transform="matrix(.61373 0 0 .59340 428.77 -114.95)" d="m-424.39 508.08a43.305 41.14 0 1 1 -86.61 0 43.305 41.14 0 1 1 86.61 0z" style="stroke-width:0;fill:#e6e6e6" id="path19967"/>
        <path transform="matrix(.52102 0 0 .49901 492.01 -142.07)" d="m-424.39 508.08a43.305 41.14 0 1 1 -86.61 0 43.305 41.14 0 1 1 86.61 0z" style="stroke-width:0;fill:#e6e6e6" id="path19969"/>
        <g transform="translate(2,-2)" id="g19946">
          <path transform="matrix(.95261 0 0 .89748 615.72 -350.9)" d="m-424.39 508.08a43.305 41.14 0 1 1 -86.61 0 43.305 41.14 0 1 1 86.61 0z" style="stroke-linejoin:round;stroke:black;stroke-linecap:round;stroke-width:2.163;fill:url(#linearGradient29067)" id="path15447"/>
          <path transform="matrix(.54131 0 0 .51717 368.15 -82.965)" d="m-424.39 508.08a43.305 41.14 0 1 1 -86.61 0 43.305 41.14 0 1 1 86.61 0z" style="stroke-linejoin:round;stroke:black;stroke-linecap:round;stroke-width:3.78;fill:url(#linearGradient29069)" id="path15445"/>
          <path transform="matrix(.66158 0 0 .67008 464.96 52.43)" d="m-424.39 508.08a43.305 41.14 0 1 1 -86.61 0 43.305 41.14 0 1 1 86.61 0z" style="stroke-linejoin:round;stroke:black;stroke-linecap:round;stroke-width:3.0038;fill:url(#linearGradient29071)" id="path14552"/>
          <path transform="matrix(.78272 0 0 .77129 501.05 -87.933)" d="m-424.39 508.08a43.305 41.14 0 1 1 -86.61 0 43.305 41.14 0 1 1 86.61 0z" style="stroke-linejoin:round;stroke:black;stroke-linecap:round;stroke-width:2.574;fill:url(#linearGradient29073)" id="path15439"/>
          <path transform="matrix(.49303 0 0 .46635 300.61 -.11918)" d="m-424.39 508.08a43.305 41.14 0 1 1 -86.61 0 43.305 41.14 0 1 1 86.61 0z" style="stroke-linejoin:round;stroke:black;stroke-linecap:round;stroke-width:4.171;fill:url(#linearGradient29075)" id="path15441"/>
          <path transform="matrix(.61373 0 0 .59340 418.77 -102.95)" d="m-424.39 508.08a43.305 41.14 0 1 1 -86.61 0 43.305 41.14 0 1 1 86.61 0z" style="stroke-linejoin:round;stroke:black;stroke-linecap:round;stroke-width:3.3141;fill:url(#linearGradient29077)" id="path15443"/>
          <path transform="matrix(.52102 0 0 .49901 482.01 -130.07)" d="m-424.39 508.08a43.305 41.14 0 1 1 -86.61 0 43.305 41.14 0 1 1 86.61 0z" style="stroke-linejoin:round;stroke:black;stroke-linecap:round;stroke-width:3.9223;fill:url(#linearGradient29079)" id="path18138"/>
        </g>
      </g>
      <path d="m538.94 138.45c-44.77 18.43-29.58 36.78-29.58 36.78" style="stroke-linejoin:round;stroke:black;stroke-linecap:round;stroke-width:3.5;fill:none" id="path27156"/>
      <path d="m614.43 118.87c-82.28 25.17-62.73 59.49-62.73 59.49" style="stroke-linejoin:round;stroke:black;stroke-linecap:round;stroke-width:3.5;fill:none" id="path28946"/>
      <path d="m681.43 108.54c-106.29 29.75-88.48 80.43-88.48 80.43" style="stroke-linejoin:round;stroke:black;stroke-linecap:round;stroke-width:3.5;fill:none" id="path28948"/>
      <path d="m502.22 175.85c-34.27 0-67 5.68-97 15.94 96.54 33.01 164.81 113.77 164.81 208.13s-68.27 175.14-164.81 208.15c30 10.26 62.73 15.95 97 15.95 72.26 0 137.71-25.11 185.1-65.67 23.69-20.28 63.92-69.75 116.6-94.26 52.68-24.5 71.8-24.04 71.8-54.96 0-30.93-24.19-32.12-76.86-61.23-52.68-29.11-87.85-86.12-111.54-106.4-47.39-40.56-112.84-65.65-185.1-65.65z" style="stroke-linejoin:round;stroke:black;stroke-linecap:round;stroke-width:5.006;fill:url(#linearGradient7367)" id="path5587"/>
      <g id="g10976">
        <path d="m634.72 775.1c-33.59 62.12-109.39-9.4-127.88-40.65-21-33.28-34.91-77.19 18-160.63 7.39-9.7-4.55-27.65 33.6-24.32 24.74 2.16 3.67 34.49 19.95 51.98 18.02 16.73 37.73 44.57 50.12 69.01 14.3 28.22 23.13 72.17 6.21 104.61z" style="stroke-linejoin:round;stroke:black;stroke-linecap:round;stroke-width:5;fill:url(#linearGradient10079)" id="path9185"/>
        <path d="m634.72 775.1c-33.59 62.12-109.39-9.4-127.88-40.65-21-33.28-34.91-77.19 18-160.63 7.39-9.7-4.55-27.65 33.6-24.32 24.74 2.16 3.67 34.49 19.95 51.98 18.02 16.73 37.73 44.57 50.12 69.01 14.3 28.22 23.13 72.17 6.21 104.61z" style="stroke-linejoin:round;stroke:black;stroke-linecap:round;stroke-width:5;fill:url(#linearGradient10974)" id="path10081"/>
      </g>
    </g>
  </g>
  <metadata/>
</svg>