<svg version="1.1" xmlns="http://www.w3.org/2000/svg" xmlns:xlink="http://www.w3.org/1999/xlink" width="56.62212" height="21.0363" viewBox="0,0,56.62212,21.0363"><g transform="translate(-211.72747,-169.48185)"><g data-paper-data="{&quot;isPaintingLayer&quot;:true}" fill-rule="nonzero" stroke-linejoin="miter" stroke-miterlimit="10" stroke-dasharray="" stroke-dashoffset="0" style="mix-blend-mode: normal"><path d="M213.04673,189.51815c0,0 1.11111,-9.26385 1.11111,-12.77857c0,-2.29842 -1.11111,-6.25773 -1.11111,-6.25773h53.90654c0,0 -1.22222,3.59402 -1.22222,5.9244c0,3.51463 1.22222,13.1119 1.22222,13.1119z" fill="#009505" stroke="#000000" stroke-width="2" stroke-linecap="butt"/><path d="M246.22222,180c0,3.52849 -2.78578,6.38889 -6.22222,6.38889c-3.43644,0 -6.22222,-2.8604 -6.22222,-6.38889c0,-3.52849 2.78578,-6.38889 6.22222,-6.38889c3.43644,0 6.22222,2.8604 6.22222,6.38889z" fill="none" stroke="#000000" stroke-width="2" stroke-linecap="butt"/><text transform="translate(236.83255,183.19444) scale(0.27687,0.27687)" font-size="40" xml:space="preserve" fill="#000000" fill-rule="nonzero" stroke="none" stroke-width="1" stroke-linecap="butt" stroke-linejoin="miter" stroke-miterlimit="10" stroke-dasharray="" stroke-dashoffset="0" font-family="Sans Serif" font-weight="normal" text-anchor="start" style="mix-blend-mode: normal"><tspan x="0" dy="0">$</tspan></text><path d="M240,171.16667v17.66666" fill="none" stroke="#4c86ff" stroke-width="2" stroke-linecap="round"/></g></g></svg>