<svg xmlns:xlink="http://www.w3.org/1999/xlink" xmlns="http://www.w3.org/2000/svg" viewBox="0 -0.25 52.007999420166016 93.49849700927734" height="93.49849700927734" width="52.007999420166016" version="1.1"><g><g style="mix-blend-mode: normal" stroke-dashoffset="0" stroke-dasharray="" stroke-miterlimit="10" stroke-linejoin="miter" data-paper-data="{&quot;isPaintingLayer&quot;:true}"><path stroke-linecap="round" stroke-width="1" stroke="#3e5766" fill-rule="nonzero" fill="#3e5766" data-paper-data="{&quot;index&quot;:null}" d="M 41.8475 30.7403 C 41.8475 30.7403 48.7732 54.7929 51.039 63.775 "/><path stroke-linecap="round" stroke-width="1" stroke="#3e5766" fill-rule="nonzero" fill="#3e5766" data-paper-data="{&quot;index&quot;:null}" d="M 1.1231 63.1785 C 3.3889 54.1965 9.962 30.5648 9.962 30.5648 "/><path stroke-linecap="butt" stroke-width="0.5" stroke="#2e374a" fill-rule="nonzero" fill="#3e5766" data-paper-data="{&quot;index&quot;:null}" d="M 34.6726 7.9162 C 34.9079 9.1936 35.4342 14.4074 35.4342 14.4074 C 35.4342 14.4074 53.837 53.083 41.5679 84.5667 C 41.4322 84.9503 13.4829 84.1031 13.5672 84.2038 C -3.8528 63.8489 15.8736 14.4744 15.8736 14.4744 C 15.8736 14.4744 16.326 9.3004 16.5613 8.0926 C 16.7663 3.577 21.1108 0.25 25.8522 0.25 C 30.5936 0.25 34.7902 3.7086 34.6726 7.9162 Z "/><path stroke-linecap="butt" stroke-width="0.5" stroke="#8d6a4a" fill-rule="nonzero" fill="#e3a066" data-paper-data="{&quot;index&quot;:null}" d="M 20.683 10.968 C 24.3116 8.7126 25.5923 2.359 25.5923 2.359 C 25.5923 2.359 26.4271 7.7213 30.5727 10.968 C 27.0153 10.8792 25.6211 12.9602 25.6211 12.9602 C 25.6211 12.9602 23.3867 10.6538 20.683 10.968 Z "/><g stroke-linecap="butt" data-paper-data="{&quot;index&quot;:null}"><path stroke-width="1" stroke="none" fill-rule="nonzero" fill="#e2e3e4" d="M 18.2159 5.959 C 18.2717 5.2994 18.9531 4.7022 20.0025 4.765 C 21.3982 4.9219 21.6155 5.9117 21.6105 6.3044 C 21.6044 6.78 21.5115 7.4672 19.9147 7.4672 C 18.5508 7.4672 18.1659 6.5517 18.2159 5.959 "/><path stroke-width="1" stroke="none" fill-rule="nonzero" fill="#2e374a" d="M 19.7035 7.4471 C 19.7035 7.4471 19.2718 7.0754 19.2535 6.3644 C 19.2512 6.275 19.2554 6.1803 19.2679 6.0802 C 19.3794 5.1873 20.0347 4.9902 20.2817 5.0219 C 20.5285 5.0531 20.7269 5.3492 20.7269 5.3492 C 20.7269 5.3492 21.2558 5.9072 21.1218 6.52 C 20.9878 7.1329 20.3253 7.4059 20.3253 7.4059 C 20.3253 7.4059 19.7917 7.5099 19.7035 7.4471 "/><path stroke-width="0.5" stroke="#2e374a" fill-rule="evenodd" fill="none" d="M 18.2159 6.0017 C 18.2717 5.3421 18.9531 4.7449 20.0025 4.8077 C 21.3982 4.9646 21.6155 5.9545 21.6105 6.3471 C 21.6044 6.8227 21.5115 7.5099 19.9147 7.5099 C 18.5508 7.5099 18.1659 6.5944 18.2159 6.0017 Z "/></g><g stroke-linecap="butt" data-paper-data="{&quot;index&quot;:null}"><path stroke-width="1" stroke="none" fill-rule="nonzero" fill="#e2e3e4" d="M 33.1976 5.8562 C 33.2477 6.4489 32.8628 7.3644 31.4989 7.3644 C 29.902 7.3644 29.8091 6.6772 29.8031 6.2016 C 29.7981 5.8089 30.0153 4.8191 31.411 4.6622 C 32.4605 4.5994 33.1419 5.1966 33.1976 5.8562 "/><path stroke-width="1" stroke="none" fill-rule="nonzero" fill="#2e374a" d="M 31.7101 7.3443 C 31.6219 7.4071 31.0883 7.3031 31.0883 7.3031 C 31.0883 7.3031 30.4258 7.0301 30.2918 6.4172 C 30.1578 5.8044 30.6867 5.2464 30.6867 5.2464 C 30.6867 5.2464 30.885 4.9503 31.1319 4.9191 C 31.3789 4.8874 32.0341 5.0845 32.1457 5.9774 C 32.2571 6.8732 31.7101 7.3443 31.7101 7.3443 "/><path stroke-width="0.5" stroke="#2e374a" fill-rule="evenodd" fill="none" d="M 33.1976 5.8989 C 33.2477 6.4916 32.8628 7.4071 31.4989 7.4071 C 29.902 7.4071 29.8091 6.7199 29.8031 6.2443 C 29.7981 5.8517 30.0153 4.8618 31.411 4.7049 C 32.4605 4.6421 33.1419 5.2393 33.1976 5.8989 Z "/></g><path stroke-linecap="butt" stroke-width="0.5" stroke="#d1c1b5" fill-rule="nonzero" fill="#fbf8ea" data-paper-data="{&quot;index&quot;:null}" d="M 39.9869 92.4151 C 36.7241 92.4151 33.5638 88.6033 26.339 88.5128 C 19.7779 88.4306 16.4634 92.2339 12.8301 92.22 C -5.3034 62.0351 12.7958 23.9001 12.7507 23.8913 C 15.5608 21.4875 18.7613 18.9919 25.6924 18.1429 C 33.576 19.076 38.1383 23.5643 39.2474 24.4192 C 39.3565 24.3852 56.3548 57.2678 39.9869 92.4151 Z "/><path stroke-linecap="round" stroke-width="1" stroke="#3e5766" fill-rule="nonzero" fill="none" data-paper-data="{&quot;index&quot;:null}" d="M 41.7937 30.6959 C 41.7937 30.6959 51.0163 52.1802 51.508 70.3745 "/><path stroke-linecap="round" stroke-width="1" stroke="#3e5766" fill-rule="nonzero" fill="none" data-paper-data="{&quot;index&quot;:null}" d="M 0.5 70.2316 C 0.9918 52.0373 10.0572 30.553 10.0572 30.553 "/><path stroke-linecap="butt" stroke-width="0.5" stroke="#8d6a4a" fill-rule="nonzero" fill="#e3a066" data-paper-data="{&quot;index&quot;:null}" d="M 42.4339 92.7485 C 42.4339 92.7038 34.5352 92.5371 34.5352 92.7485 C 34.5352 91.4598 36.3034 90.4151 38.4845 90.4151 C 40.6657 90.4151 42.4339 91.4598 42.4339 92.7485 Z "/><path stroke-linecap="butt" stroke-width="0.5" stroke="#8d6a4a" fill-rule="nonzero" fill="#e3a066" data-paper-data="{&quot;index&quot;:null}" d="M 13.3179 90.4151 C 15.4991 90.4151 17.2673 91.4598 17.2673 92.7485 C 17.2673 92.5372 9.3685 92.7038 9.3685 92.7485 C 9.3685 91.4598 11.1367 90.4151 13.3179 90.4151 Z "/><path stroke-linecap="butt" stroke-width="0" stroke="none" fill-rule="nonzero" fill="#f0c579" data-paper-data="{&quot;index&quot;:null}" d="M239.48863,152.45502c-7.38681,0 -12.84166,4.73928 -12.84166,4.73928c0,0 8.72628,-7.59643 12.91309,-7.59643c3.68681,0.1 13.48691,7.90356 13.48691,7.90356c0,0 -6.99908,-5.04641 -13.55834,-5.04641z" transform="matrix(1,0,0,1,-213.99601,-133.66743)"/><path stroke-linecap="round" stroke-width="0.5" stroke="#8d6a4a" fill-rule="nonzero" fill="none" data-paper-data="{&quot;index&quot;:null}" d="M 27.3523 8.893 L 26.9523 9.693 "/><path stroke-linecap="round" stroke-width="0.5" stroke="#8d6a4a" fill-rule="nonzero" fill="none" data-paper-data="{&quot;index&quot;:null}" d="M 24.319 9.693 L 23.919 8.893 "/><path stroke-linecap="round" stroke-width="0.5" stroke="#8d6a4a" fill-rule="nonzero" fill="none" d="M 23.9034 7.4407 C 25.7192 5.3006 26.0942 6.3747 27.3523 7.4407 "/></g></g></svg>