<svg version="1.1" xmlns="http://www.w3.org/2000/svg" xmlns:xlink="http://www.w3.org/1999/xlink" width="46.16667" height="46.16667" viewBox="0,0,46.16667,46.16667"><defs><radialGradient cx="181.87584" cy="179.99999" r="21.83334" gradientUnits="userSpaceOnUse" id="color-1"><stop offset="0" stop-color="#819e21"/><stop offset="1" stop-color="#219d56"/></radialGradient></defs><g transform="translate(-158.79251,-156.91666)"><g data-paper-data="{&quot;isPaintingLayer&quot;:true}" fill-rule="nonzero" stroke-linejoin="miter" stroke-miterlimit="10" stroke-dasharray="" stroke-dashoffset="0" style="mix-blend-mode: normal"><path d="M160.04251,201.83333v-43.66667h43.66667v43.66667z" fill="url(#color-1)" stroke="#000000" stroke-width="2.5" stroke-linecap="butt"/><path d="M169.03694,184.53387c0,0 0.52926,-4.41273 0.52926,-6.08693c0,-1.09483 -0.52926,-2.98081 -0.52926,-2.98081h25.6778c0,0 -0.58219,1.71197 -0.58219,2.82202c0,1.67416 0.58219,6.24571 0.58219,6.24571z" fill="#009505" stroke="#000000" stroke-width="1" stroke-linecap="butt"/><path d="M184.83973,180c0,1.68076 -1.32698,3.04328 -2.96389,3.04328c-1.63691,0 -2.96389,-1.36252 -2.96389,-3.04328c0,-1.68076 1.32698,-3.04328 2.96389,-3.04328c1.63691,0 2.96389,1.36252 2.96389,3.04328z" fill="none" stroke="#000000" stroke-width="1" stroke-linecap="butt"/><text transform="translate(180.36706,181.52163) scale(0.13189,0.13189)" font-size="40" xml:space="preserve" fill="#000000" fill-rule="nonzero" stroke="none" stroke-width="1" stroke-linecap="butt" stroke-linejoin="miter" stroke-miterlimit="10" stroke-dasharray="" stroke-dashoffset="0" font-family="Sans Serif" font-weight="normal" text-anchor="start" style="mix-blend-mode: normal"><tspan x="0" dy="0">$</tspan></text><path d="M181.87584,184.20766v-8.41532" fill="none" stroke="#4c86ff" stroke-width="1" stroke-linecap="round"/><path d="M189.1155,187.7669l3.29674,3.29674h-3.24441v6.0702h-2.30249v-5.96554h-3.0351l3.4014,-3.4014z" fill="#ff0000" stroke="#ff0000" stroke-width="1" stroke-linecap="round"/></g></g></svg>