<svg version="1.1" xmlns="http://www.w3.org/2000/svg" xmlns:xlink="http://www.w3.org/1999/xlink" width="122.89741" height="105.20413" viewBox="0,0,122.89741,105.20413"><g transform="translate(-161.21823,-113.71507)"><g data-paper-data="{&quot;isPaintingLayer&quot;:true}" fill-rule="nonzero" stroke-linejoin="miter" stroke-miterlimit="10" stroke-dasharray="" stroke-dashoffset="0" style="mix-blend-mode: normal"><g><path d="M205.9014,164.8207c10.7552,0 20.5016,1.9908 27.5585,5.2069c7.0575,3.217 11.4256,7.6583 11.4256,12.5602c0,4.9019 -4.3681,9.3432 -11.4256,12.5602c-7.0569,3.216 -16.8033,5.2068 -27.5585,5.2068c-10.7553,0 -20.5016,-1.9908 -27.5585,-5.2068c-7.0576,-3.217 -11.4256,-7.6583 -11.4256,-12.5602c0,-4.9019 4.368,-9.3432 11.4256,-12.5602c7.0569,-3.2161 16.8032,-5.2069 27.5585,-5.2069z" fill="#000000" stroke="none" stroke-width="0.77306" stroke-linecap="round"/><path d="M171.6124,122.5377l51.8813,-2.9952c17.2767,-0.9973 12.3282,0.7905 16.652,4.582c3.7254,3.2673 3.5518,9.1472 4.4928,13.7994c1.5686,7.8845 3.8791,15.9053 3.013,23.6942c-0.5505,4.9261 -3.2483,9.6478 -6.8997,13.1932c-5.0993,4.9428 -11.585,9.3964 -18.4526,10.6972c-10.9903,2.0788 -22.7123,2.2386 -33.5892,-0.3566c-7.8706,-1.8802 -15.0844,-6.5431 -20.8417,-12.1413c-3.7105,-3.6188 -5.8955,-8.6658 -6.2935,-13.4962c-0.5922,-7.594 1.5069,-15.2856 3.441,-22.2859c1.4295,-5.1685 1.4558,-13.1657 6.5966,-14.6908z" fill="#663b00" stroke="#000000" stroke-width="0.71315" stroke-linecap="round"/><path d="M187.9235,183.2115c0,0 -7.455,-10.9072 -7.4969,-17.0931c-0.0804,-12.1024 3.0335,-17.7767 6.8971,-35.6854" fill="none" stroke="#ffe9cc" stroke-width="4.19829" stroke-linecap="round"/><path d="M210.4143,131.9324c0,0 4.5546,21.8893 4.7981,32.9865c0.1523,6.9416 -3.2987,20.0918 -3.2987,20.0918" fill="none" stroke="#ffe9cc" stroke-width="4.19829" stroke-linecap="round"/><path d="M234.1241,128.0532c0,0 8.4212,24.3321 5.9976,36.2852c-1.7801,8.4044 -15.8852,19.2342 -17.393,18.8923c-1.4604,-0.3136 7.2271,-13.3745 7.497,-20.9914c0.3598,-10.1958 -6.2974,-29.9878 -6.2974,-29.9878" fill="none" stroke="#ffe9cc" stroke-width="4.19829" stroke-linecap="round"/><path d="M201.7143,185.92c0,0 -4.4424,-15.7652 -4.4982,-23.6903c-0.033,-10.0525 3.4486,-29.9878 3.4486,-29.9878" fill="none" stroke="#ffe9cc" stroke-width="4.19829" stroke-linecap="round"/><path d="M224.2087,182.9116c0,0 -2.2467,1.7909 -3.5985,2.0991c-3.1343,0.7114 -6.5781,0.4774 -9.896,0.5998c-2.1765,0.2777 -4.3218,0.9254 -6.5973,0.5998c-6.1649,-0.8817 -12.8474,-0.8703 -18.2925,-3.8985c-6.5956,-3.6249 -13.9144,-8.7264 -17.0931,-15.8935c-2.9388,-6.5673 -0.5997,-14.604 0.2999,-21.5912c0.7197,-5.7876 4.798,-16.7931 4.798,-16.7931" fill="none" stroke="#ffe9cc" stroke-width="4.19829" stroke-linecap="round"/><path d="M204.8246,114.249c9.7758,0 18.6342,0.983 25.0488,2.5715c6.4142,1.5882 10.3848,3.7815 10.3848,6.2021c0,2.4205 -3.9706,4.6139 -10.3848,6.2021c-6.4146,1.5885 -15.273,2.5715 -25.0488,2.5715c-9.7758,0 -18.6342,-0.983 -25.0488,-2.5715c-6.4143,-1.5882 -10.3848,-3.7816 -10.3848,-6.2021c0,-2.4206 3.9705,-4.6139 10.3848,-6.2021c6.4146,-1.5885 15.273,-2.5715 25.0488,-2.5715z" fill="#ffffff" stroke="#000000" stroke-width="1.06785" stroke-linecap="butt"/><path d="M205.5759,119.2751c3.0006,0 5.7195,0.3797 7.6881,0.9927c1.9686,0.6133 3.1874,1.4602 3.1874,2.3947c0,0.9346 -1.2188,1.7815 -3.1874,2.3948c-1.9686,0.6129 -4.6875,0.9927 -7.6881,0.9927c-3.0005,0 -5.7194,-0.3798 -7.688,-0.9927c-1.9687,-0.6133 -3.1874,-1.4602 -3.1874,-2.3948c0,-0.9345 1.2187,-1.7814 3.1874,-2.3947c1.9686,-0.613 4.6875,-0.9927 7.688,-0.9927z" fill="#000000" stroke="#000000" stroke-width="0.71315" stroke-linecap="butt"/><path d="M243.7008,180.2127c0,0 -2.624,5.8092 -5.0979,7.4969c-4.8371,3.2975 -10.41,5.886 -16.1934,6.8972c-9.3706,1.3285 -19.0303,1.2517 -28.4884,0c-6.6993,-0.887 -13.1713,-3.5235 -19.1922,-6.5973c-2.8309,-1.4466 -6.8972,-7.197 -6.8972,-7.197" fill="none" stroke="#ffffff" stroke-width="2.39902" stroke-linecap="round"/></g><g><path d="M256.2757,192.3874c7.6645,0 14.6101,1.4865 19.639,3.8878c5.0295,2.4019 8.1423,5.718 8.1423,9.3781c0,3.66 -3.1128,6.9762 -8.1423,9.3781c-5.0289,2.4013 -11.9745,3.8878 -19.639,3.8878c-7.6646,0 -14.6102,-1.4865 -19.6391,-3.8878c-5.0295,-2.4019 -8.1423,-5.7181 -8.1423,-9.3781c0,-3.6601 3.1128,-6.9762 8.1423,-9.3781c5.0289,-2.4013 11.9745,-3.8878 19.6391,-3.8878z" fill="#000000" stroke="none" stroke-width="0.56885" stroke-linecap="round"/><path d="M238.6535,154.3731l0.107,0.1063c-0.0239,0.2124 14.1991,-0.0163 21.2874,-0.1063c1.7721,-0.0223 0.7145,-0.1131 1.0697,-0.1772c0.951,-0.172 1.9048,-0.3432 2.8526,-0.5318c0.5366,-0.1067 1.0636,-0.2718 1.6046,-0.3544c0.2346,-0.0358 0.4756,0 0.7131,0c0.5341,0 1.0715,-0.038 1.6046,0c0.302,0.0212 0.5905,0.1439 0.8914,0.1772c0.2361,0.0262 0.4803,-0.0464 0.7132,0c0.3683,0.0734 0.7013,0.2811 1.0697,0.3545c0.2328,0.0464 0.4756,0 0.7131,0c0.2375,0 0.4796,0.0436 0.7132,0c0.7217,-0.1347 1.4708,-0.2297 2.1394,-0.5317c0.1672,-0.0755 -0.2892,-1.676 -0.1783,-0.3545c0.4436,5.2866 0.9774,10.5813 1.4798,15.8625c0.8986,9.4442 3.5504,18.9068 2.7278,28.3577c-0.2992,3.4351 -3.3736,6.1847 -5.937,8.5072c-2.455,2.224 -5.6114,3.6674 -8.736,4.7854c-2.0211,0.7213 -4.199,0.6614 -6.3113,0.7266c-2.6198,-0.095 -5.3757,0.0039 -7.8268,-0.8152c-3.1478,-1.0525 -6.2992,-2.5416 -8.7361,-4.7854c-2.6871,-2.4742 -5.9241,-5.3762 -6.24,-9.0035c-0.8094,-9.2971 2.0632,-18.5792 3.0309,-27.8614c0.5163,-4.9533 0.9549,-9.9297 1.4263,-14.8877z" fill="#663b00" stroke="#000000" stroke-width="0.71105" stroke-linecap="round"/><path d="M267.3319,156.5382c0,0 5.9352,26.2309 4.4982,39.2839c-0.6142,5.5778 -9.048,13.3026 -10.4958,13.1947c-1.446,-0.1074 3.1146,-9.0953 2.9988,-13.7944c-0.2915,-12.1912 -4.1983,-36.885 -4.1983,-36.885" fill="none" stroke="#ffe9cc" stroke-width="2.99878" stroke-linecap="round"/><path d="M252.6182,158.8017c0,0 -3.9068,24.6937 -4.1982,36.885c-0.1158,4.699 4.4447,13.687 2.9987,13.7943c-1.4478,0.108 -9.8815,-7.6169 -10.4957,-13.1946c-1.437,-13.0531 4.4982,-39.284 4.4982,-39.284" fill="none" stroke="#ffe9cc" stroke-width="2.99878" stroke-linecap="round"/><path d="M256.5374,147.221c4.8549,0 9.2543,0.6157 12.4403,1.6104c3.1856,0.9946 5.1574,2.3682 5.1574,3.8839c0,1.5157 -1.9718,2.8893 -5.1574,3.8839c-3.186,0.9947 -7.5854,1.6104 -12.4403,1.6104c-4.8549,0 -9.2543,-0.6157 -12.4403,-1.6104c-3.1856,-0.9946 -5.1574,-2.3682 -5.1574,-3.8839c0,-1.5157 1.9718,-2.8893 5.1574,-3.8839c3.186,-0.9947 7.5854,-1.6104 12.4403,-1.6104z" fill="#ffffff" stroke="#000000" stroke-width="0.76568" stroke-linecap="butt"/><path d="M256.2939,150.1382c2.0168,0 3.8442,0.3375 5.1675,0.883c1.3232,0.5456 2.1422,1.2988 2.1422,2.13c0,0.8313 -0.819,1.5845 -2.1422,2.1301c-1.3233,0.5455 -3.1507,0.8829 -5.1675,0.8829c-2.0168,0 -3.8442,-0.3374 -5.1675,-0.8829c-1.3232,-0.5456 -2.1422,-1.2988 -2.1422,-2.1301c0,-0.8312 0.819,-1.5844 2.1422,-2.13c1.3233,-0.5455 3.1507,-0.883 5.1675,-0.883z" fill="#000000" stroke="none" stroke-width="0.35552" stroke-linecap="butt"/><path d="M262.9287,208.4104c0,0 -2.2626,1.2997 -3.4568,1.4994c-1.7897,0.2957 -3.9933,0.3322 -5.9918,0c-1.4403,-0.2525 -4.1482,-2.6989 -4.1482,-2.6989" fill="none" stroke="#ffe9cc" stroke-width="3.744" stroke-linecap="round"/><path d="M283.2887,205.0825c0,0 -1.8611,3.8859 -3.6159,5.0149c-3.4308,2.2057 -7.3835,3.9373 -11.4856,4.6137c-6.6464,0.8886 -13.4978,0.8373 -20.2063,0c-4.7517,-0.5934 -9.3421,-2.357 -13.6127,-4.4131c-2.0079,-0.9677 -4.892,-4.8143 -4.892,-4.8143" fill="none" stroke="#ffffff" stroke-width="1.65388" stroke-linecap="round"/></g></g></g></svg>