<svg version="1.1" xmlns="http://www.w3.org/2000/svg" xmlns:xlink="http://www.w3.org/1999/xlink" width="79.29416" height="25.01653" viewBox="0,0,79.29416,25.01653"><g transform="translate(-200.35293,-167.49173)"><g data-paper-data="{&quot;isPaintingLayer&quot;:true}" fill-rule="nonzero" stroke="none" stroke-linecap="butt" stroke-linejoin="miter" stroke-miterlimit="10" stroke-dasharray="" stroke-dashoffset="0" style="mix-blend-mode: normal"><path d="M200.97499,177.70987c0.38451,-0.58583 0.91596,-0.94778 1.50252,-0.94964l75.04377,0.00187c1.17312,0 2.12581,1.4515 2.12581,3.23884c0,1.78734 -0.95269,3.23884 -2.12581,3.23884h-75.04254c-1.17312,0 -2.12581,-1.4515 -2.12581,-3.23884c0.00123,-0.89367 0.23757,-1.70524 0.62207,-2.29107z" fill="#d99e82" stroke-width="1"/><path d="M250.76826,180c0,-6.90812 5.60014,-12.50827 12.50827,-12.50827c6.90812,0 12.50827,5.60014 12.50827,12.50827c0,6.90812 -5.60014,12.50827 -12.50827,12.50827c-6.90812,0 -12.50827,-5.60014 -12.50827,-12.50827z" fill="#82d9d3" stroke-width="0"/></g></g></svg>