<svg version="1.1" xmlns="http://www.w3.org/2000/svg" xmlns:xlink="http://www.w3.org/1999/xlink" width="411.48877" height="452.45778" viewBox="0,0,411.48877,452.45778"><defs><radialGradient cx="348.5245" cy="256.60949" r="100.11888" fx="348.5245" fy="256.60949" gradientUnits="userSpaceOnUse" id="color-1"><stop offset="0" stop-color="#acd4e2"/><stop offset="0.11498" stop-color="#8fccdc"/><stop offset="0.34204" stop-color="#8bc4d4"/><stop offset="0.60515" stop-color="#69c8e5"/><stop offset="1" stop-color="#044152"/></radialGradient><radialGradient cx="225.27906" cy="247.76702" r="46.4518" fx="225.27906" fy="247.76702" gradientUnits="userSpaceOnUse" id="color-2"><stop offset="0" stop-color="#acd4e2"/><stop offset="0.11498" stop-color="#8fccdc"/><stop offset="0.34204" stop-color="#8bc4d4"/><stop offset="0.60515" stop-color="#69c8e5"/><stop offset="1" stop-color="#044152"/></radialGradient><radialGradient cx="132.74705" cy="222.45729" r="38.48569" fx="132.74705" fy="222.45729" gradientUnits="userSpaceOnUse" id="color-3"><stop offset="0" stop-color="#acd4e2"/><stop offset="0.11498" stop-color="#8fccdc"/><stop offset="0.34204" stop-color="#8bc4d4"/><stop offset="0.60515" stop-color="#69c8e5"/><stop offset="1" stop-color="#044152"/></radialGradient><radialGradient cx="333.02422" cy="322.90752" r="51.49113" fx="333.02422" fy="322.90752" gradientUnits="userSpaceOnUse" id="color-4"><stop offset="0" stop-color="#acd4e2"/><stop offset="0.11498" stop-color="#8fccdc"/><stop offset="0.34204" stop-color="#8bc4d4"/><stop offset="0.60515" stop-color="#69c8e5"/><stop offset="1" stop-color="#044152"/></radialGradient><radialGradient cx="255.84815" cy="-35.6274" r="229.30247" fx="255.84815" fy="-35.6274" gradientUnits="userSpaceOnUse" id="color-5"><stop offset="0" stop-color="#ebf5f7"/><stop offset="0.11498" stop-color="#d0e7ed"/><stop offset="0.34204" stop-color="#8bc4d4"/><stop offset="0.79011" stop-color="#6eb4c9"/><stop offset="1" stop-color="#376875"/></radialGradient><linearGradient x1="219.70809" y1="-36.65621" x2="233.68236" y2="146.48775" gradientUnits="userSpaceOnUse" id="color-6"><stop offset="0" stop-color="#007da8"/><stop offset="1" stop-color="#001b24"/></linearGradient></defs><g transform="translate(-34.25562,46.22889)"><g data-paper-data="{&quot;isPaintingLayer&quot;:true}" fill-rule="evenodd" stroke-linecap="butt" stroke-linejoin="miter" stroke-miterlimit="4" stroke-dasharray="" stroke-dashoffset="0" style="mix-blend-mode: normal"><path d="M275.43242,172.51586l15.94379,21.48945l12.82435,-14.55737l8.6651,45.75174c7.12238,17.30296 15.2921,29.36926 24.26228,37.43324l60.30911,9.01171l37.43324,27.03512c3.34904,9.24278 8.43044,18.48555 6.58548,27.72833l-12.82435,13.51756c-11.5996,2.91467 -17.66296,-1.28868 -22.87587,-6.58548c4.24234,-5.9416 5.37521,-12.91968 17.3302,-16.29039c5.91725,-7.14337 -2.93167,-12.31793 -10.39812,-17.67681h-50.60419c-16.17909,6.32719 -28.24285,1.68016 -41.93909,1.38642c-26.51123,-14.13955 -41.90888,-31.0575 -53.72363,-48.87118c-7.37423,-23.15059 -6.93361,-44.72068 -11.09133,-70.36063c9.76091,1.58595 13.61907,-5.68224 20.10304,-9.01171z" fill="url(#color-1)" stroke="#ff9955" stroke-width="0.29055"/><path d="M274.42676,174.0841l18.08354,19.23781l12.69696,-11.92744l2.30854,25.00916l15.775,39.24513c4.78597,7.91099 8.69235,16.70156 20.39208,17.69879l58.8677,10.00366c11.36702,7.33882 23.8973,13.97968 30.39574,24.23964c8.63065,11.63475 10.45266,20.54603 8.84939,28.0872l-12.3122,16.54452c-12.02881,-0.50111 -23.66266,-6.87741 -23.47013,-16.54451c0,0 14.7239,-2.53565 17.31403,-8.46464c2.57175,-5.88691 2.75644,-14.14116 -1.15427,-19.23781c-9.87563,-12.87048 -30.36651,-11.72912 -46.17074,-15.39025c-16.89279,-3.9133 -36.63242,7.28863 -51.55733,-1.53902c-8.91963,-5.27571 -17.46557,-9.8211 -24.6244,-17.31403c-8.28845,-8.67528 -9.98951,-16.67018 -15.00549,-24.23964c-4.85995,-7.33402 -8.31839,-21.2118 -13.46646,-22.70062c-6.086,-1.76007 -8.72779,-7.00565 -14.62074,-15.00549c-0.28522,-8.68842 -2.30854,-20.77683 -2.30854,-20.77683z" fill="#000000" stroke="none" stroke-width="0.29055" opacity="0.302"/><path d="M258.71531,179.31607c0,2.80586 1.08246,7.95076 2.50776,18.49577c2.47034,18.27671 5.73383,41.05064 12.14493,52.49947c11.7709,21.02025 34.61892,38.86327 57.40512,46.69294c7.09351,2.43743 16.40856,0.58249 26.41274,-1.52039c10.00418,-2.10277 44.17126,-3.27738 55.36198,0.98576c7.58955,2.89127 14.89374,6.97042 16.32382,16.11978c0.63226,4.04505 -1.78284,6.91074 -3.72387,8.62952c-2.05836,1.82267 -8.78811,3.42675 -9.18885,6.25861c-0.44877,3.17147 5.04374,7.45943 8.93118,7.65113c2.96168,0.14607 7.13702,-4.27702 9.01554,-6.49928c2.65942,-3.14606 2.30231,-7.62767 1.83202,-10.71512c-1.33524,-8.76575 -5.66273,-18.41723 -11.57677,-23.87702c-5.91403,-5.4598 -14.71373,-11.99389 -24.24032,-15.74128c-11.05836,-4.34992 -36.28916,-6.46196 -45.1071,-7.68647c-8.81795,-1.22451 -19.32093,-2.03509 -26.32625,-9.3311c-12.79732,-13.32835 -19.53171,-33.43894 -24.17558,-54.2208c-2.27213,-10.16804 -2.01187,-24.29052 -2.01187,-24.29052l7.10456,-0.77809c0,0 -2.2853,2.48419 2.50057,22.43153c4.78587,19.94734 15.78039,41.42385 24.74864,50.76424c3.34708,3.48597 10.04172,5.23423 18.3898,6.3935c8.34809,1.15927 35.5381,1.33611 49.0535,7.58478c9.41697,4.35381 18.08939,11.66795 25.49747,18.50704c7.40808,6.83909 13.14384,15.79085 14.9125,27.40191c0.79988,5.2512 2.37139,12.14302 -0.07979,17.61874c-2.45119,5.47572 -7.26016,13.11525 -14.56686,13.94556c-7.59686,0.86327 -23.65719,-2.28263 -28.21826,-10.52759c-1.58905,-2.87249 0.46322,-8.08013 4.27258,-12.4958c2.9049,-3.36725 7.31673,-6.1665 10.03415,-10.81094c1.46119,-2.49736 -4.183,-8.06182 -7.32169,-9.12165c-7.08616,-2.39276 -38.91621,0.3075 -48.89899,2.40587c-9.98278,2.09838 -21.17251,4.7518 -32.4776,0.8672c-25.92356,-8.90771 -49.2912,-28.40255 -62.68518,-52.32125c-8.4351,-15.06324 -9.01719,-36.02458 -10.49767,-55.1243c-1.48048,-19.09972 -1.07125,-19.07623 -1.07125,-20.19175z" fill="#19325e" stroke="none" stroke-width="2.83465"/><path d="M221.36219,174.24887l20.44964,-11.78454l4.85246,12.13114l-13.86416,15.25058l-7.27868,28.07493c6.70435,20.561 18.50782,34.7481 32.58078,46.09834l7.27869,23.91568c-3.54532,15.05907 -16.26557,20.10911 -29.80795,24.26229l-20.44964,-10.74473l0.69321,-12.13114l18.37002,-1.03981l5.19906,-10.74473l-38.47305,-41.24589l-11.09133,-23.91568c5.85545,-16.75253 8.50132,-33.50506 21.14285,-50.25759z" fill="url(#color-2)" stroke="#0000ff" stroke-width="0.29055"/><path d="M209.04716,164.53818l9.79429,10.88255l20.13271,-11.9708l9.25017,10.88255c0,0 -13.94109,12.08659 -17.9562,20.13272c-3.71651,7.44775 -6.26709,16.2757 -4.89715,24.48573c1.24416,7.45617 7.23229,13.29975 11.42668,19.58859c8.33305,12.49414 22.92143,21.51858 27.20637,35.91241c2.23065,7.49314 -0.4261,18.07225 -4.89715,24.48573c-6.82464,9.7896 -29.38288,12.51493 -29.38288,12.51493c-8.82636,-7.57032 -19.99626,-13.885 -9.25017,-22.85335c0,0 14.90711,11.37771 23.94161,5.9854c5.08499,-3.03501 8.70308,-9.88262 8.16191,-15.7797c-2.16169,-23.55579 -38.36944,-32.96018 -43.53019,-56.04513c-2.35205,-10.5211 8.32295,-20.85122 7.07366,-31.55939c-0.86481,-7.41263 -9.79429,-20.13272 -9.79429,-20.13272z" fill="#000000" stroke="none" stroke-width="0.29055" opacity="0.31"/><path d="M173.44432,142.2291c8.65763,15.40678 19.64634,17.37091 29.20125,15.72938c-14.00734,15.70894 -28.0129,31.41936 -31.19437,56.14986l20.44964,49.91099v13.86416l-25.6487,12.47775l-2.77283,27.38172c-5.77674,8.93198 -11.55347,9.31411 -17.3302,3.46604c-0.93697,-9.82607 -4.95814,-17.00854 0,-31.88757l25.30209,-24.95549c-12.76406,-18.07624 -47.21807,-45.88823 -52.68382,-79.71894c-0.58743,-21.89115 12.71998,-35.84239 24.60889,-50.6042c7.88086,10.22513 18.51161,10.82564 30.06804,8.1863z" fill="url(#color-3)" stroke="#66ff00" stroke-width="0.29055"/><path d="M183.6243,159.46336l17.31403,-1.53902c0,0 -32.26355,33.16357 -30.01098,53.48111c2.11133,19.04359 21.35485,54.66653 21.9311,62.3305c0.55197,7.34109 -25.21527,19.88641 -25.77866,18.08354l-1.53903,15.00549l-7.31036,12.88933l-10.77317,-0.57713c2.92638,-9.88808 2.42168,-18.21659 10.38842,-30.39574c0,0 3.90178,-6.47108 9.05859,-9.666c6.27629,-3.8885 10.86346,-3.32222 12.29538,-8.99467c5.68921,-22.53745 -28.66758,-45.31479 -29.42252,-68.54696c-0.29035,-8.93496 12.08457,-20.03815 10.8052,-31.74635c-0.60345,-5.52254 -20.80891,-2.39479 -22.9413,-26.04805c0.70818,-0.98206 0.50211,-6.55052 6.10618,-7.00924c11.38124,-0.93161 29.55473,6.35937 29.55473,6.35937z" fill="#000000" stroke="none" stroke-width="0.29055" opacity="0.312"/><path d="M213.13889,163.60287c0,0 -0.20526,0.18434 -5.88101,11.77042c-5.67576,11.58608 -10.72692,25.83908 -10.46269,34.03021c0.21037,6.52093 0.77514,14.47804 6.00646,21.18558c5.23132,6.70753 10.92634,14.23422 18.60621,21.38775c2.44188,2.27453 7.2113,6.657 11.91258,11.04409c2.35064,2.19354 6.42734,5.82219 8.15202,8.98394c1.72466,3.16175 3.15899,4.94764 2.10128,9.07696c-1.093,4.2671 -3.36091,7.19046 -6.16533,9.0389c-3.13675,2.06747 -7.75546,1.9401 -10.23501,2.2203c-2.47955,0.28022 -7.5031,-1.62748 -8.71769,1.50049c-1.21459,3.12797 6.72393,10.92306 12.92421,11.87374c5.64678,0.86581 13.50167,-1.25155 18.40414,-4.61401c4.90247,-3.36247 10.81288,-9.30571 11.16756,-13.91637c0.68902,-8.95721 -8.6365,-23.82249 -18.49766,-35.47209c-9.86116,-11.64959 -21.27192,-20.72766 -20.29099,-36.68886c0.81693,-13.29272 7.03093,-26.78683 15.89299,-37.01174c8.86207,-10.2249 7.14149,-7.57835 7.14149,-7.57835l4.48006,5.99144c0,0 2.2955,-2.07592 -5.9342,7.41938c-8.22971,9.49529 -12.31504,24.05488 -12.73549,30.89614c-0.55253,8.99051 7.70046,19.7596 17.57361,31.42336c9.87316,11.66377 21.39503,24.26349 20.16672,40.23143c-0.71051,9.23664 -4.41771,17.10353 -11.46405,21.93642c-7.04634,4.83289 -17.73636,8.26124 -25.8682,6.93831c-6.95658,-1.13173 -26.4049,-10.39983 -23.27904,-24.081c0.97957,-4.28736 4.79928,-6.59257 7.93562,-7.82252c3.13634,-1.22995 9.29272,2.16275 11.79473,2.26004c7.05634,0.27434 8.37176,-4.82507 6.23977,-8.40629c-0.69077,-1.16031 -5.02089,-4.5914 -6.95057,-6.39211c-3.85935,-3.60143 -9.57136,-7.41596 -13.39914,-13.45865c-4.07026,-6.4255 -10.53491,-13.10874 -16.35783,-20.57482c-5.82292,-7.46608 -11.21319,-16.07514 -11.55421,-26.64524c-0.41992,-13.01662 8.29768,-26.37224 14.31201,-38.64946c6.01433,-12.27722 10.03571,-12.8044 10.03571,-12.8044z" fill="#19325e" stroke="none" stroke-width="2.83465"/><path d="M146.7258,134.52075c0,0 -18.31181,25.75811 -19.39977,45.85499c-0.82746,15.28489 7.90919,32.80167 19.46842,47.16111c5.77961,7.17972 10.27891,14.12034 15.26103,19.6246c4.98212,5.50425 10.25141,10.57775 12.30299,15.75478c2.07558,5.23763 -1.80321,8.30533 -5.31295,11.29342c-5.23914,4.46043 -10.42573,7.63455 -16.15423,15.20094c-1.88589,2.49095 -3.28634,6.25387 -3.42982,7.84612c-0.30136,3.3459 -1.1977,8.30498 -0.34271,11.98429c0.42749,1.83965 2.49979,5.04891 4.68064,5.32446c3.0989,0.39158 6.37045,-2.8487 6.96399,-5.81056c1.18709,-5.92372 -2.91383,-15.75663 3.63984,-22.45286c5.20688,-5.32015 11.72321,-5.93114 15.7967,-8.02588c2.3606,-1.21391 7.6387,-3.96982 7.12048,-7.28293c-2.39803,-15.33106 -9.19239,-25.10361 -13.44279,-35.87579c-4.25033,-10.77218 -9.03662,-21.03069 -5.83556,-34.643c2.81655,-11.9772 11.41678,-23.13619 19.13798,-31.90798c7.7212,-8.77178 14.86148,-14.98901 14.86148,-14.98901l4.06698,5.13472c0,0 -5.58199,7.56463 -12.72486,15.67938c-7.14287,8.11476 -11.50319,21.1084 -13.33676,28.90554c-2.47511,10.52526 -0.27764,18.14928 3.71537,28.26912c3.993,10.11985 9.8564,22.23868 12.88902,39.21968c0.82618,4.62616 -0.34135,9.28561 -2.78865,12.44692c-2.4473,3.16131 -5.58774,4.90562 -8.50199,6.24896c-5.8285,2.68668 -10.71266,3.14872 -13.36628,5.08215c-2.36749,1.72495 -2.07639,8.9856 -3.54418,15.75623c-1.86124,8.58554 -6.34199,21.92742 -16.82601,20.08129c-6.29945,-1.10926 -9.7454,-11.66512 -11.34109,-18.97603c-1.24442,-5.70145 -1.31097,-11.55591 -0.90971,-16.00925c0.50143,-5.56517 3.58912,-9.90822 6.92062,-13.17808c5.82623,-5.71844 16.27018,-9.68122 20.74605,-17.55464c1.41372,-2.48685 -4.73655,-5.57131 -9.62683,-10.9741c-4.89027,-5.40278 -12.8708,-11.43372 -19.00056,-19.04841c-12.25953,-15.22938 -24.53925,-34.17173 -23.41449,-54.94837c1.51332,-27.95403 28.58626,-48.7433 28.58626,-48.7433z" fill="#19325e" stroke="none" stroke-width="2.83465"/><path d="M274.04601,173.20906l17.3302,20.79624l16.9836,-16.63699l9.35831,15.59718l9.0117,2.42623l21.48945,34.3138l11.09133,47.48476l30.84776,64.81496l-12.82435,19.06323c0,0 -3.11943,11.78454 -3.11943,13.17095c0,1.38642 15.25058,17.67682 15.25058,17.67682l-3.11943,9.3583c-10.98517,2.55757 -21.47999,-1.74991 -31.54097,-12.13113l9.0117,-45.05855l-28.07493,-36.74003l3.11943,-27.72833l-37.43324,-34.3138l-34.66041,-67.9344z" fill="url(#color-4)" stroke="#000000" stroke-width="0.29055"/><path d="M274.042,175.62312l15.77501,18.46829l20.00732,-15.39024c5.59389,6.17544 8.53261,20.31641 16.92927,18.08354c0,0 12.62419,12.67749 16.92927,20.39208c5.86979,10.51849 7.89269,22.76416 11.54269,34.2433c4.34029,13.6501 4.37791,29.24372 12.3122,41.16892c10.01021,15.04531 23.68305,46.99754 21.54634,47.70977l-15.775,32.70428l17.31403,20.39209c-0.28183,9.80261 -8.6165,8.10167 -15.775,8.0799c-6.18227,-3.03815 -14.13109,-1.21828 -16.54452,-14.62075c3.81543,-1.20783 6.18796,-4.82049 6.92561,-11.15795c2.11837,-11.21542 3.61589,-20.44585 8.84939,-35.01282c6.76061,-18.81752 -22.94204,-41.6959 -26.16342,-67.71709c-3.00389,-24.26431 -12.08295,-42.80894 -23.47013,-58.8677c-12.21914,-17.23203 -12.7995,-3.92029 -20.39208,-2.6933c-7.37493,1.19182 -21.16159,-4.61707 -21.16159,-4.61707l-15.775,-27.70245z" fill="#000000" stroke="none" stroke-width="0.29055" opacity="0.296"/><path d="M302.02556,237.63773c3.66096,7.31326 12.27939,11.97331 19.88469,18.55576c7.60529,6.58244 18.25268,13.48945 21.98697,24.24212c2.01452,5.80069 -2.89013,14.24712 -2.05862,21.06205c0.69607,5.70489 4.49714,11.06393 9.5806,16.96c5.08346,5.89607 13.44068,11.16421 16.10506,20.11457c3.40567,11.44055 -2.94747,17.66017 -4.905,27.46683c-1.95752,9.80666 -2.82097,20.75169 2.13809,24.91166c3.92228,3.2904 16.52198,7.28691 18.38179,3.024c2.03674,-4.66844 -9.56322,-10.26586 -11.61306,-15.66325c-2.97543,-7.83461 0.61217,-14.92576 3.45181,-20.26878c2.83964,-5.34301 7.52151,-12.7444 7.42452,-15.53248c-0.45764,-13.15822 -3.77847,-18.81246 -10.70319,-32.29073c-6.92472,-13.47828 -15.95305,-27.09429 -18.16139,-43.31208c-2.04914,-15.04862 -7.52122,-37.87503 -18.89911,-55.44034c-3.80524,-5.87457 -7.24125,-9.5126 -10.70875,-15.45418c0,0 2.27222,-2.16275 3.89524,-3.68202c6.15032,6.74314 10.91614,9.81994 15.82887,19.37295c9.82546,19.10603 16.65714,34.8486 19.16856,53.29212c1.80151,13.23006 8.67627,26.18776 15.68617,39.83183c7.0099,13.64407 13.6939,21.93937 14.26928,38.4828c0.27515,7.91097 -7.9703,14.86612 -10.58546,19.78675c-2.61517,4.92063 -2.89585,8.89872 -2.0704,11.07221c0.93193,2.45387 7.96285,8.0676 11.06894,13.17104c2.38437,3.91763 6.6844,9.33157 3.50283,13.92627c-4.56412,6.59139 -9.90648,5.20386 -19.07845,3.75801c-6.43945,-1.01508 -14.24395,-1.89069 -19.35903,-8.44246c-7.6807,-9.838 -5.84022,-21.87579 -3.77489,-32.22254c2.06534,-10.34676 6.93409,-16.52239 4.93197,-23.24804c-1.65469,-5.55856 -7.76923,-9.88347 -12.88722,-15.81959c-5.118,-5.93613 -11.03287,-12.51342 -13.39064,-21.60356c-1.47376,-5.68195 4.21379,-14.20079 2.84637,-20.59999c-1.61092,-7.53872 -9.4621,-12.02401 -16.71753,-18.30365c-7.25543,-6.27964 -16.44739,-12.43661 -22.53436,-21.49451c-15.54669,-23.1347 -30.01596,-66.3224 -30.01596,-66.3224l5.31653,-2.16572c10.78372,24.9908 21.06629,41.00427 31.99477,62.83539z" fill="#19325e" stroke="none" stroke-width="2.83465"/><path d="M38.70185,66.1084c0,0 56.90555,-65.57527 94.96951,-83.87819c35.09231,-16.87401 76.68563,-26.63352 115.07255,-20.10304c46.19834,7.85938 91.65799,33.51943 122.69784,68.62761c32.23026,36.45461 56.14986,111.95312 55.11005,135.17559l0.34659,41.59249l-30.50116,-39.16626c-1.47893,10.6651 2.6246,23.81129 -6.23887,31.19437l-20.10304,-25.3021c-5.6612,13.12606 -11.3224,19.28038 -16.9836,23.22248l-16.9836,-16.637l-13.17096,16.9836l-14.90397,-20.10304l-17.67681,17.33021l-16.29039,-21.83606l-17.67681,11.09133l-16.29039,-20.79625l-21.83605,12.13114l-11.43793,-20.10304l-22.87587,4.15925l-9.0117,-19.06322l-22.18266,5.19906l-9.35831,-19.75643c-9.02245,4.26672 -17.88764,6.9608 -25.9953,2.07962l-0.34659,-23.56908l-22.52926,5.54566l2.07962,-28.07493c-10.05291,7.73109 -20.22896,14.60021 -31.19437,15.94379l8.6651,-34.66041l-32.92739,9.35831z" fill="url(#color-5)" stroke="#668000" stroke-width="0.29055"/><path d="M48.19012,56.3487c68.70261,-45.74214 257.5727,107.19806 343.20252,-1.53902l31.93476,76.18173l4.23232,77.336c-9.68152,-14.17638 -19.12233,-29.07488 -30.7805,-37.32135c-1.28851,14.33828 -2.98329,26.91604 -7.31036,28.0872l-18.4683,-23.85489c-6.54086,9.09885 -13.08171,20.55128 -19.62257,21.9311c-5.38659,-5.48172 -10.77317,-16.70705 -16.15976,-15.775c-3.26775,9.47062 -7.37866,15.14705 -12.69696,15.39025l-13.85122,-20.00732c-7.56539,8.90683 -15.20665,18.15514 -20.77683,18.08354l-14.23598,-21.9311c-6.3723,4.48147 -10.88447,14.54335 -20.00732,10.77317l-14.23598,-19.62257c-7.2051,6.16943 -14.27609,13.00942 -23.47013,9.23415l-6.92561,-20.00732c-9.1059,3.19163 -18.21179,10.96602 -27.31769,5.77134c-2.99895,2.39916 -4.55055,-20.99405 -4.23232,-19.62257c0.85921,3.7029 -24.66872,10.46913 -25.39391,5.00183c0.88253,0.44309 -6.92561,-16.05135 -6.92561,-19.62257c-7.37684,3.03779 -13.83035,9.3072 -23.08537,5.77134c-11.08787,-8.29947 -4.21465,-18.0957 -4.23232,-27.31769l-21.16159,6.1561c-3.07805,-3.59106 -3.07805,-12.82521 0,-27.70245c-10.36052,8.39759 -20.29111,13.7857 -29.62623,15.00549c-3.43111,-9.82288 1.84621,-21.2291 9.61891,-33.08903c-13.08171,3.77043 -26.16342,11.07714 -39.24513,7.31037z" fill="#000000" stroke="none" stroke-width="0.29055" opacity="0.283"/><path d="M274.62302,-39.58779c26.78446,7.85221 52.35708,21.63244 74.91581,39.39886c25.06826,19.74284 46.41476,44.40808 61.56665,71.33107c9.95747,17.69316 14.23477,41.1291 17.6243,61.69895c3.41621,20.73182 4.83149,34.38981 4.86413,43.84361c0.04395,12.80455 0.54305,20.41376 -0.46843,27.04598c-0.76759,5.03307 -2.5042,11.47153 -3.86612,12.13283c-3.78317,1.83696 -7.54845,-8.39176 -10.13551,-11.87793c-4.77067,-6.42866 -10.20819,-18.94203 -18.19655,-22.69786c-0.82369,9.63945 0.81134,24.13123 -9.87735,24.44403c-7.08291,0.20727 -16.53846,-18.22767 -19.71284,-24.90023c-3.90964,5.33665 -10.98773,21.97502 -19.28196,21.4137c-6.41489,-0.43414 -10.2761,-8.93247 -14.24139,-14.84294c-2.79838,6.4616 -7.82315,15.90305 -15.71577,14.94258c-6.58733,-0.80163 -10.90034,-10.9432 -12.6577,-18.0859c-3.24794,1.75021 -11.65981,15.27924 -18.41398,14.82006c-8.84175,-0.6011 -13.08533,-10.17376 -17.52309,-18.61174c-6.34602,4.73382 -12.97628,11.04884 -21.33411,8.16387c-6.26623,-2.16298 -9.78233,-11.16714 -13.15405,-17.38444c-6.4869,4.0385 -13.4484,9.11296 -19.32797,8.18523c-6.72174,-1.06061 -10.38905,-9.72317 -13.32998,-19.13989c-8.20715,2.47664 -17.8283,7.48005 -24.43145,4.55903c-5.95692,-2.63515 -7.52004,-10.65757 -9.48152,-17.82541c-6.05688,2.30783 -13.82925,5.76517 -19.85885,3.74611c-4.15075,-1.38991 -7.81311,-4.51914 -10.21939,-8.69754c-1.40235,-2.43529 -0.6276,-7.74188 -1.41019,-10.89775c-3.66095,0.95613 -8.79158,3.89174 -11.83592,4.09616c-4.80325,0.32255 -9.48892,-0.45756 -13.07606,-3.4178c-3.58715,-2.96024 -4.68889,-6.35216 -5.29968,-10.84593c-0.22332,-1.64302 1.05347,-6.07672 2.24843,-11.31631c-5.79632,2.76047 -14.03859,8.10581 -20.35458,4.62263c-4.10279,-2.26263 -2.72205,-7.04179 -3.4554,-11.87728c-0.17532,-1.156 2.05279,-9.90816 4.14056,-15.15126c-14.79564,12.90061 -25.82988,15.17539 -29.10747,13.63055c-4.88388,-2.30194 -4.89849,-8.8907 -2.95003,-14.90808c1.51289,-4.67224 4.5689,-10.70455 7.16884,-17.46369c-7.20351,1.81888 -13.21346,4.67172 -17.22669,5.47034c-5.71443,1.13715 -14.54441,3.26998 -16.66701,-2.22769c-2.14573,-5.5576 8.32849,-17.16892 14.43098,-24.03496c0,0 0.04534,-0.05084 0.06802,-0.07653c0.02267,-0.02551 0.04525,-0.05128 0.06802,-0.07653c8.29291,-9.25722 11.34182,-13.17377 24.98735,-27.67398c13.64553,-14.50021 29.05453,-29.66144 39.85733,-36.39702c26.13651,-16.2962 61.73357,-29.26363 110.67891,-29.74847c16.31512,-0.16161 33.22469,1.71609 49.99171,6.63155zM210.22566,-30.72829c-30.72062,0.49227 -71.71111,17.87341 -87.93773,27.16733c-7.1238,4.08022 -25.54104,19.14117 -38.96135,33.41724c-8.46164,9.00121 -32.01843,26.92215 -39.21298,39.48456c10.6753,-5.0502 34.48224,-13.78254 39.77558,-8.40945c-3.44302,6.28899 -16.16832,24.12466 -14.34743,31.46635c5.68333,-0.05005 14.84678,-5.65058 19.03203,-9.78628c4.46558,-4.41271 9.49323,-9.65463 14.08665,-8.14802c-2.21774,4.96292 -2.65078,8.24478 -3.64621,13.81885c-0.80533,4.50955 -3.92719,13.0571 0.4081,15.72868c4.36523,2.69004 9.31644,-1.41955 13.87525,-4.217l10.47445,-6.4275c1.34042,3.11414 -1.74869,8.71511 -2.33069,12.48796c-0.75983,4.92569 -1.87211,17.12022 2.6948,19.91804c6.32005,3.87184 16.82388,-5.79067 25.13335,-8.31985c0.66469,6.0627 -0.35304,19.55288 7.2352,21.61206c7.81976,2.12201 15.71323,-2.04111 23.19784,-6.13174c3.33218,2.31826 -1.53144,15.51439 7.21378,20.63613c7.06051,4.13507 19.53009,-6.44126 24.99585,-4.77812c1.43349,5.47064 2.71176,19.16481 10.06636,19.36753c7.85819,0.21661 16.61871,-12.71602 21.82461,-11.40117c3.78755,8.69237 4.14509,16.24317 13.07606,20.4728c6.38707,3.02485 14.45957,-13.41139 20.16672,-12.10698c2.34041,5.47089 7.61599,23.9716 15.18455,21.40803c7.46214,-2.52752 12.15656,-17.18228 18.52584,-16.84244c4.31513,7.24467 9.4889,18.84792 13.4691,20.70202c3.3463,1.5588 7.25677,-19.95039 12.43909,-21.04783c3.06751,1.87167 8.8823,22.96445 17.09489,20.3255c9.98163,-3.20739 11.54251,-17.56544 14.49361,-25.48897c4.58268,-0.8975 8.69262,20.29299 20.77265,24.08614c3.22635,1.01304 3.64151,-6.50116 3.19675,-11.65623l-1.67489,-19.41332c3.25319,-1.29612 10.56138,7.55632 14.73918,13.54025c4.92561,7.05503 11.64123,18.98988 17.89931,25.44989c2.78934,-1.6562 -0.65698,-8.85971 -1.70743,-17.1804c-1.68212,-13.32423 -3.81885,-29.49947 -6.97801,-46.0893c-3.77266,-19.81152 -9.99407,-38.48175 -18.31672,-53.27005c-14.26431,-25.34587 -32.14014,-47.02314 -55.89275,-65.76964c-21.46784,-16.94327 -43.28335,-28.86561 -68.40178,-36.22941c-15.40007,-4.51473 -30.94301,-8.86794 -61.66362,-8.37566z" fill="url(#color-6)" stroke="none" stroke-width="2.83465"/><path d="M163.58012,9.73032c1.34315,3.63248 -23.82123,12.08343 -34.74024,17.25611c-11.17048,5.2918 -32.32397,23.66905 -34.96483,20.84675c-2.64087,-2.82231 18.81333,-21.52689 30.12341,-27.06452c12.02122,-5.88582 38.23851,-14.67082 39.58166,-11.03833z" fill="#096c9c" stroke="none" stroke-width="1.77165"/><path d="M184.20889,37.5957c2.06415,3.26343 -17.13649,15.01424 -24.54292,21.16223c-8.71079,7.23072 -21.16895,21.10069 -24.03335,18.50417c-2.8644,-2.59652 10.01805,-16.89928 19.19748,-24.50911c7.75155,-6.42611 27.31464,-18.42072 29.3788,-15.15728z" fill="#096c9c" stroke="none" stroke-width="1.77165"/><path d="M226.93894,64.91638c1.89421,2.88814 -15.40839,14.91114 -22.9396,22.30793c-6.61672,6.49862 -18.09868,22.22628 -21.44306,20.12727c-3.34437,-2.09901 9.08895,-18.95849 16.6819,-26.26464c8.09423,-7.7885 25.80655,-19.0587 27.70076,-16.17056z" fill="#096c9c" stroke="none" stroke-width="1.77165"/><path d="M270.21194,80.06688c3.98092,0.50145 1.76621,12.689 -1.68485,24.51354c-3.21656,11.02107 -13.4945,33.62903 -16.85805,30.78984c-3.36355,-2.83918 5.59651,-21.82761 9.47833,-33.04287c3.34828,-9.67379 5.08366,-22.76195 9.06458,-22.26051z" fill="#096c9c" stroke="none" stroke-width="1.77165"/><path d="M308.75795,83.73609c4.21007,-1.52063 14.8261,15.23689 17.88872,29.56742c3.06265,14.33054 4.01946,31.4961 0.32413,33.20189c-3.69534,1.70579 -4.94256,-17.91869 -7.86537,-31.59501c-2.92281,-13.67633 -14.55753,-29.65367 -10.34746,-31.1743z" fill="#096c9c" stroke="none" stroke-width="1.77165"/><path d="M378.98609,105.83919c5.90076,11.57693 14.69436,36.79988 10.86097,37.60663c-3.83339,0.80675 -12.33598,-24.15553 -18.13653,-35.19297c-4.79441,-9.12293 -22.98661,-25.71988 -19.99378,-28.30122c2.99283,-2.58134 21.98447,15.51895 27.26935,25.88756z" fill="#096c9c" stroke="none" stroke-width="1.77165"/></g></g></svg>