<svg xmlns:xlink="http://www.w3.org/1999/xlink" xmlns="http://www.w3.org/2000/svg" version="1.1" viewBox="0 0 600 500" id="svg2">
  
  <g transform="translate(12 -211.41)" id="layer1">
    <path d="m161.48 574.29-145.71 74.28-14.289-177.14 154.29 57.14l5.7143 45.714" style="stroke:#000000;stroke-width:1px;fill:#808000" id="path2989"/>
    <path d="m525.34 479.29c7.1767 4.7938 12.641 12.097 15.216 20.334 2.5743 8.2376 2.2403 17.353-0.92976 25.38-4.3702 11.066-14.212 19.814-25.714 22.857" style="opacity:.50811;stroke:#000000;stroke-width:1px;fill:#ffffff" id="path3176"/>
    <path transform="translate(749.34 44.069)" d="m-185.71 443.79a58.571 57.143 0 1 1 -117.14 0 58.571 57.143 0 1 1 117.14 0z" style="color:#000000;stroke:#000000;stroke-width:4;fill:#ffffff" id="path2993"/>
    <path transform="translate(1663.6 226.93)" d="m-1137.1 252.36a20 20 0 1 1 -40 0 20 20 0 1 1 40 0z" style="color:#000000;stroke:#000000;stroke-width:4;fill:#000000" id="path2997"/>
    <path transform="translate(1678.2 235.5)" d="m-1137.1 252.36a20 20 0 1 1 -40 0 20 20 0 1 1 40 0z" style="opacity:.71123;color:#000000;fill:#ffffff" id="path3869"/>
    <path transform="translate(-3.9473 -23.788)" d="m580 572.36a237.14 97.143 0 1 1 -474.29 0 237.14 97.143 0 1 1 474.29 0z" style="color:#000000;stroke:#000000;stroke-width:4;fill:#ffcc00" id="path2987"/>
    <path d="m231.05 529.29c7.1766 4.7938 12.641 12.097 15.215 20.334 2.5742 8.2376 2.2403 17.353-0.92977 25.38-4.3702 11.066-14.212 19.814-25.714 22.857" style="opacity:.50811;stroke:#000000;stroke-width:1px;fill:#ffffff" id="path3180"/>
    <path d="m317.48 488.57c7.1766 4.7938 12.641 12.097 15.215 20.334 2.5742 8.2376 2.2403 17.353-0.92977 25.38-4.3702 11.066-14.212 19.814-25.714 22.857" style="opacity:.50811;stroke:#000000;stroke-width:1px;fill:#ffffff" id="path3184"/>
    <path d="m186.05 480.72c7.1766 4.7938 12.641 12.097 15.215 20.334 2.5742 8.2376 2.2403 17.353-0.92977 25.38-4.3702 11.066-14.212 19.814-25.714 22.857" style="opacity:.50811;stroke:#000000;stroke-width:1px;fill:#ffffff" id="path3188"/>
    <path d="m266.77 476.43c7.1766 4.7938 12.641 12.097 15.215 20.334 2.5742 8.2376 2.2403 17.353-0.92977 25.38-4.3702 11.066-14.212 19.814-25.714 22.857" style="opacity:.50811;stroke:#000000;stroke-width:1px;fill:#ffffff" id="path3194"/>
    <path d="m339.62 564.29c7.1766 4.7938 12.641 12.097 15.215 20.334 2.5742 8.2376 2.2403 17.353-0.92977 25.38-4.3702 11.066-14.212 19.814-25.714 22.857" style="opacity:.50811;stroke:#000000;stroke-width:1px;fill:#ffffff" id="path3196"/>
    <path d="m273.2 556.43c7.1766 4.7938 12.641 12.097 15.215 20.334 2.5742 8.2376 2.2403 17.353-0.92977 25.38-4.3702 11.066-14.212 19.814-25.714 22.857" style="opacity:.50811;stroke:#000000;stroke-width:1px;fill:#ffffff" id="path3198"/>
    <path d="m535.93 562.84c-1.9741-0.0425-4.0572 0.18085-6.197 0.6954-11.412 2.7442-20.153 12.789-19.531 22.417 0.10663 1.6488 0.48655 3.1667 1.0914 4.5566 1.4974-8.3391 9.3996-16.209 19.312-18.592 9.4555-2.2737 17.769 1.1644 20.698 7.8872 0.22589-1.26 0.95497-3.8338 0.87326-5.0973-0.50589-7.8226-7.6928-11.682-16.247-11.866z" style="color:#000000;stroke:#000000;stroke-width:1.6868;fill:#000000" id="path3786"/>
    <path d="m366.48 451.43-171.43-42.143 62.143 29.286-102.86 2.8571 71.429 20 140.71-10" style="stroke:#000000;stroke-width:1px;fill:#808000" id="path3002"/>
    <path d="m326.61 549.85-105.24-10.763 26.31 53.813 78.931-21.525" style="stroke:#000000;stroke-width:1.4724px;fill:#808000" id="path3006"/>
    <path d="m350.07 487.15c-12.617 18.76-15.484 43.716-7.4508 64.849 5.9445 15.637 17.611 29.027 32.287 37.057" style="stroke:#000000;stroke-width:4.8464;fill:#aa8800" id="path3881"/>
    <path d="m412.91 642.86-136.43 50 37.143-34.286-77.143 11.429 48.571-25.714 127.86-1.4286" style="stroke:#000000;stroke-width:1px;fill:#808000" id="path3887"/>
    <path d="m415.04 612.41c13.575 14.194 32.797 22.831 52.424 23.558 15.42 0.57114 30.984-3.6644 43.988-11.971 13.004-8.3063 23.391-20.647 29.356-34.878" style="stroke:#000000;stroke-width:4.2888;fill:#ffcc00" id="path3025"/>
    <path d="m96.956 585.67-33.242 22.049 8.879-25.211-39.286 12.867 19.614-24.941-44.866-1.1753 48.59-11.986-42.347-15.849 45.367 3.3048-21.578-29.617 37.43 18.951-3.0738-30.238c36.163 21.085 47.309 120.54 24.513 81.845z" style="opacity:.50811;color:#000000;fill:#806600" id="path3827"/>
    <path d="m362.07 487.15c-12.617 18.76-15.484 43.716-7.4508 64.849 5.9445 15.637 17.611 29.027 32.287 37.057" style="stroke:#000000;stroke-width:4.8464;fill:#aa8800" id="path3832"/>
    <g transform="matrix(.12001 -.016442 .013103 .15059 488.95 515.07)" id="layer1-7">
      <path d="m348.65 186.88s-463.1 142.32-529.09-90.564c0 0 72.052 344.06 491.23 196.58 0 0 355.07 211.9 405.52-176.23 0 0-204.64 248.75-367.66 70.213z" id="path4734"/>
    </g>
    <g transform="translate(-232.38 -215.59)" id="g3637">
      <g transform="translate(416.05 441.17)" id="g3437">
        <path d="m309.49 234.53 11.228-110.98s64.91-4.035 57.777-43.609c-7.137-39.563-36.446-39.925-36.446-39.925s1.172-26.132-24.548-28.444c-25.724-2.311-49.254-9.114-58.051 8.022-8.082 15.731 0 0 0 0s-19.917-3.956-30.958-2.852-25.175 15.997-25.175 15.997-51.443-4.63-50.005 25.743c1.438 30.372 21.215 36.941 21.215 36.941s-10.933 18.181 5.568 23.861c16.498 5.671 22.928 6.251 22.928 6.251l10.254 102.73 96.213 6.269z" style="stroke:#010101;stroke-width:3.3825;fill:#ffffff" id="path3439"/>
        <polygon points="299.9 207.68 225.44 196.98 225.99 202.59" style="fill:#010101" id="polygon3441"/>
      </g>
      <path d="m790.14 534.17s-14.376 10.457-22.875 10.457-34.544-4.778-36.602-4.575c-86.927 8.495 4.575 20.914 4.575 20.914s16.99-1.303 28.103-5.227 26.799-21.569 26.799-21.569z" style="fill:#dcddde" id="path3443"/>
      <path d="m595.36 540.05s-7.192 6.537-4.575 10.457 20.267 11.768 28.762 12.419 30.064 2.613 32.677-4.575-11.767-10.457-24.837-12.419c-13.071-1.962-32.027-5.882-32.027-5.882z" style="fill:#dcddde" id="path3445"/>
    </g>
    <g transform="translate(15.053 -23.788)" id="g3035">
      <path d="m444.57 506.65c7.1767 4.7938 12.641 12.097 15.216 20.334 2.5743 8.2376 2.2403 17.353-0.92976 25.38-4.3702 11.066-14.212 19.814-25.714 22.857" style="opacity:.50811;stroke:#000000;stroke-width:1px;fill:#ffffff" id="path3037"/>
      <path transform="translate(668.57 71.429)" d="m-185.71 443.79c0 31.559-26.223 57.143-58.571 57.143s-58.571-25.584-58.571-57.143 26.223-57.143 58.571-57.143 58.571 25.584 58.571 57.143z" style="color:#000000;stroke:#000000;stroke-width:4;fill:#ffffff" id="path3039"/>
      <path transform="translate(1582.9 254.29)" d="m-1137.1 252.36c0 11.046-8.9543 20-20 20s-20-8.9543-20-20 8.9543-20 20-20 20 8.9543 20 20z" style="color:#000000;stroke:#000000;stroke-width:4;fill:#000000" id="path3041"/>
      <path transform="translate(1591.4 262.86)" d="m-1137.1 252.36c0 11.046-8.9543 20-20 20s-20-8.9543-20-20 8.9543-20 20-20 20 8.9543 20 20z" style="opacity:.71123;color:#000000;fill:#ffffff" id="path3043"/>
    </g>
  </g>
  <metadata/>
</svg>