<svg version="1.1" xmlns="http://www.w3.org/2000/svg" xmlns:xlink="http://www.w3.org/1999/xlink" width="407.26717" height="324.32965" viewBox="0,0,407.26717,324.32965"><defs><linearGradient x1="38.23804" y1="160.0657" x2="445.08473" y2="160.0657" gradientUnits="userSpaceOnUse" id="color-1"><stop offset="0" stop-color="#aa184a"/><stop offset="0.5" stop-color="#b20853" stop-opacity="0.49804"/><stop offset="0.75" stop-color="#d4d225" stop-opacity="0.24706"/><stop offset="0.875" stop-color="#250a2f" stop-opacity="0.12157"/><stop offset="0.9375" stop-color="#f3140e" stop-opacity="0.05882"/><stop offset="0.96875" stop-color="#dc1323" stop-opacity="0.02745"/><stop offset="1" stop-color="#c51339" stop-opacity="0"/></linearGradient><linearGradient x1="38.23804" y1="160.0657" x2="445.08473" y2="160.0657" gradientUnits="userSpaceOnUse" id="color-2"><stop offset="0" stop-color="#ecd83b"/><stop offset="1" stop-color="#ecd83b" stop-opacity="0"/></linearGradient><linearGradient x1="38.23804" y1="160.0657" x2="445.08473" y2="160.0657" gradientUnits="userSpaceOnUse" id="color-3"><stop offset="0" stop-color="#aa184a"/><stop offset="0.5" stop-color="#b20853" stop-opacity="0.49804"/><stop offset="0.75" stop-color="#d4d225" stop-opacity="0.24706"/><stop offset="0.875" stop-color="#250a2f" stop-opacity="0.12157"/><stop offset="0.9375" stop-color="#f3140e" stop-opacity="0.05882"/><stop offset="0.96875" stop-color="#dc1323" stop-opacity="0.02745"/><stop offset="1" stop-color="#c51339" stop-opacity="0"/></linearGradient><linearGradient x1="38.23804" y1="160.0657" x2="445.08473" y2="160.0657" gradientUnits="userSpaceOnUse" id="color-4"><stop offset="0" stop-color="#ecd83b"/><stop offset="1" stop-color="#ecd83b" stop-opacity="0"/></linearGradient><linearGradient x1="38.23804" y1="160.0657" x2="445.08473" y2="160.0657" gradientUnits="userSpaceOnUse" id="color-5"><stop offset="0" stop-color="#aa184a"/><stop offset="0.5" stop-color="#b20853" stop-opacity="0.49804"/><stop offset="0.75" stop-color="#d4d225" stop-opacity="0.24706"/><stop offset="0.875" stop-color="#250a2f" stop-opacity="0.12157"/><stop offset="0.9375" stop-color="#f3140e" stop-opacity="0.05882"/><stop offset="0.96875" stop-color="#dc1323" stop-opacity="0.02745"/><stop offset="1" stop-color="#c51339" stop-opacity="0"/></linearGradient><linearGradient x1="38.23804" y1="160.0657" x2="445.08473" y2="160.0657" gradientUnits="userSpaceOnUse" id="color-6"><stop offset="0" stop-color="#ecd83b"/><stop offset="1" stop-color="#ecd83b" stop-opacity="0"/></linearGradient><linearGradient x1="38.23804" y1="160.0657" x2="445.08473" y2="160.0657" gradientUnits="userSpaceOnUse" id="color-7"><stop offset="0" stop-color="#aa184a"/><stop offset="0.5" stop-color="#b20853" stop-opacity="0.49804"/><stop offset="0.75" stop-color="#d4d225" stop-opacity="0.24706"/><stop offset="0.875" stop-color="#250a2f" stop-opacity="0.12157"/><stop offset="0.9375" stop-color="#f3140e" stop-opacity="0.05882"/><stop offset="0.96875" stop-color="#dc1323" stop-opacity="0.02745"/><stop offset="1" stop-color="#c51339" stop-opacity="0"/></linearGradient><linearGradient x1="38.23804" y1="160.0657" x2="445.08473" y2="160.0657" gradientUnits="userSpaceOnUse" id="color-8"><stop offset="0" stop-color="#ecd83b"/><stop offset="1" stop-color="#ecd83b" stop-opacity="0"/></linearGradient><linearGradient x1="38.23804" y1="160.0657" x2="445.08473" y2="160.0657" gradientUnits="userSpaceOnUse" id="color-9"><stop offset="0" stop-color="#aa184a"/><stop offset="0.5" stop-color="#b20853" stop-opacity="0.49804"/><stop offset="0.75" stop-color="#d4d225" stop-opacity="0.24706"/><stop offset="0.875" stop-color="#250a2f" stop-opacity="0.12157"/><stop offset="0.9375" stop-color="#f3140e" stop-opacity="0.05882"/><stop offset="0.96875" stop-color="#dc1323" stop-opacity="0.02745"/><stop offset="1" stop-color="#c51339" stop-opacity="0"/></linearGradient><linearGradient x1="38.23804" y1="160.0657" x2="445.08473" y2="160.0657" gradientUnits="userSpaceOnUse" id="color-10"><stop offset="0" stop-color="#ecd83b"/><stop offset="1" stop-color="#ecd83b" stop-opacity="0"/></linearGradient><linearGradient x1="38.23804" y1="160.0657" x2="445.08473" y2="160.0657" gradientUnits="userSpaceOnUse" id="color-11"><stop offset="0" stop-color="#aa184a"/><stop offset="0.5" stop-color="#b20853" stop-opacity="0.49804"/><stop offset="0.75" stop-color="#d4d225" stop-opacity="0.24706"/><stop offset="0.875" stop-color="#250a2f" stop-opacity="0.12157"/><stop offset="0.9375" stop-color="#f3140e" stop-opacity="0.05882"/><stop offset="0.96875" stop-color="#dc1323" stop-opacity="0.02745"/><stop offset="1" stop-color="#c51339" stop-opacity="0"/></linearGradient><linearGradient x1="38.23804" y1="160.0657" x2="445.08473" y2="160.0657" gradientUnits="userSpaceOnUse" id="color-12"><stop offset="0" stop-color="#ecd83b"/><stop offset="1" stop-color="#ecd83b" stop-opacity="0"/></linearGradient><linearGradient x1="38.23804" y1="160.0657" x2="445.08473" y2="160.0657" gradientUnits="userSpaceOnUse" id="color-13"><stop offset="0" stop-color="#aa184a"/><stop offset="0.5" stop-color="#b20853" stop-opacity="0.49804"/><stop offset="0.75" stop-color="#d4d225" stop-opacity="0.24706"/><stop offset="0.875" stop-color="#250a2f" stop-opacity="0.12157"/><stop offset="0.9375" stop-color="#f3140e" stop-opacity="0.05882"/><stop offset="0.96875" stop-color="#dc1323" stop-opacity="0.02745"/><stop offset="1" stop-color="#c51339" stop-opacity="0"/></linearGradient><linearGradient x1="38.23804" y1="160.0657" x2="445.08473" y2="160.0657" gradientUnits="userSpaceOnUse" id="color-14"><stop offset="0" stop-color="#ecd83b"/><stop offset="1" stop-color="#ecd83b" stop-opacity="0"/></linearGradient></defs><g transform="translate(-36.36642,-17.83517)"><g data-paper-data="{&quot;isPaintingLayer&quot;:true}" fill-rule="nonzero" stroke-width="1" stroke-linecap="butt" stroke-linejoin="miter" stroke-miterlimit="10" stroke-dasharray="" stroke-dashoffset="0" style="mix-blend-mode: normal"><path d="M214.74983,340.8053c-4.0528,-1.60484 -3.36667,-8.16955 1.56995,-15.07733c5.81463,-8.14048 10.03605,-20.00232 9.32667,-26.21816c-0.42447,-3.73299 -2.88987,-6.74497 -9.29759,-11.34434c-11.69322,-8.40214 -39.31271,-31.35248 -43.40039,-36.06233c-2.77358,-3.19805 -5.0471,-3.72718 -14.8273,-3.43645l-11.54785,0.34306l-22.67705,22.71194c-26.94499,26.98569 -29.27084,28.74171 -38.12071,28.74171c-5.50645,0 -7.9079,-1.192 -12.44912,-6.16351c-7.15781,-7.83812 -7.86138,-11.53041 -9.39644,-49.15106l-1.26177,-30.99779l-10.87917,-22.14792c-11.62344,-23.67136 -16.79265,-39.74299 -14.31562,-44.52262c0.82568,-1.58739 3.11664,-4.40167 5.09943,-6.25073c3.44808,-3.22712 4.08187,-3.23875 15.14711,-0.37214c16.92639,4.39004 31.399,12.34446 49.81974,27.3869c8.99523,7.33806 19.89185,14.69357 24.2063,16.34492c4.32027,1.65135 8.91964,3.84928 10.22793,4.88429c1.78509,1.40714 3.25619,0.76172 5.86115,-2.56425c1.91301,-2.44214 7.61716,-9.30922 12.68171,-15.25177c26.57867,-31.20711 27.95674,-33.3876 30.67217,-48.57541c2.4247,-13.51901 -0.50006,-19.9151 -14.36213,-31.40481c-16.15885,-13.39691 -31.29433,-20.65938 -54.82614,-26.30538c-16.56588,-3.98302 -21.56646,-5.94255 -25.49133,-9.99535c-9.36737,-9.67554 -5.31457,-20.88033 9.07082,-25.07268c4.32027,-1.25596 10.12327,-3.00616 12.90848,-3.87836c2.77939,-0.87801 8.03,-1.59321 11.66415,-1.59321c3.63414,0 11.95488,-1.39551 18.49052,-3.10501c16.92057,-4.43075 84.12605,-4.55285 98.23234,-0.18025c5.27968,1.63391 13.76904,3.52948 18.87429,4.21561c5.2448,0.70357 9.67554,2.30841 10.19304,3.68066c0.59891,1.62228 2.55844,2.09908 5.8437,1.41877c6.27398,-1.29666 19.44412,4.82033 39.59762,18.38586c17.92069,12.06536 29.11385,23.70043 48.43005,50.34887c7.90208,10.89661 18.09513,23.84579 22.6538,28.76497c4.55867,4.92499 8.9743,10.8094 9.80928,13.0771c0.83498,2.26771 5.22096,6.54727 9.74706,9.51273c6.68799,4.38423 10.11338,5.39016 18.29224,5.39016c8.38353,0 10.38551,0.62217 11.99093,3.72136c3.03349,5.85533 -2.74741,30.2477 -9.87673,41.67345c-3.19805,5.1285 -7.50959,14.64124 -9.58135,21.14781c-6.30655,19.793 -21.97406,48.808 -30.13141,55.803c-1.54088,1.31992 -2.80265,4.43656 -2.80265,6.92522c0,13.69345 -10.84428,30.60239 -25.03198,39.02198c-16.39144,9.73369 -24.09001,7.10548 -18.92662,-6.46587c1.65717,-4.36097 2.05256,-7.66368 1.035,-8.71031c-2.29678,-2.37237 -42.1328,1.5118 -48.65682,4.75055c-2.87824,1.4304 -10.3326,5.82626 -16.57169,9.77439c-11.74555,7.4311 -27.18339,13.0364 -43.65624,15.85649c-11.96651,2.05256 -19.80463,2.37237 -23.35737,0.96523zM373.41361,309.34816c0.63379,-1.05245 0.79079,-2.29096 0.35469,-2.7445c-1.21526,-1.25596 -6.52983,1.2327 -6.52983,3.05849c0,2.25608 4.78544,2.01186 6.17514,-0.31399zM337.4792,264.43015c1.01756,0 1.84905,-0.80823 1.84905,-1.79672c0,-0.9943 -0.34306,-1.80254 -0.76753,-1.80254c-0.42447,0 -1.25596,0.80823 -1.84905,1.80254c-0.59309,0.98849 -0.24421,1.79672 0.76753,1.79672zM430.12427,177.92591c0.83498,0.02907 5.14827,-10.61751 5.14653,-12.70496c0,-0.42447 -3.94406,-0.94197 -8.76439,-1.1513l-8.76439,-0.38377l5.71229,7.10548c3.14164,3.90743 6.14316,7.11711 6.66996,7.13455zM158.27233,39.92732c4.06443,0.98849 5.34946,0.20351 9.15804,-5.58786c2.44214,-3.70973 4.43656,-7.47761 4.43656,-8.37307c0,-2.23282 -38.69054,-0.33725 -42.89452,2.09908c-2.69217,1.55832 -2.83172,2.07582 -0.7152,2.69799c1.44203,0.42447 5.41923,1.69206 8.84405,2.82591c3.43063,1.12804 7.78579,2.05256 9.68136,2.05256c1.90138,0 4.19816,0.70357 5.11106,1.56995c0.9129,0.86057 3.78532,2.08745 6.37865,2.71543z" fill="url(#color-1)" stroke="url(#color-2)"/><path d="M218.8724,326.71064c4.87847,-6.34376 7.14036,-11.82114 9.58832,-23.18874c1.29666,-6.04721 -1.68624,-9.222 -27.81137,-29.64298c-21.5432,-16.83335 -32.27119,-27.24735 -32.27119,-31.33504c0,-1.71532 -0.62217,-3.51785 -1.37807,-4.00046c-1.77346,-1.12804 -12.57704,4.23305 -12.57704,6.2391c0,0.83731 -1.11059,1.08152 -2.4654,0.54658c-1.53506,-0.61054 -11.53041,8.08815 -26.60193,23.14804c-13.2748,13.26898 -26.07861,25.49133 -28.45098,27.15432c-5.89603,4.14002 -16.00186,3.8551 -21.49087,-0.59891c-6.80893,-5.53553 -8.40795,-13.47831 -9.76858,-48.58123l-1.25015,-32.27701l-10.68729,-22.15955c-5.87859,-12.18746 -11.83858,-26.79381 -13.23991,-32.45726c-2.52936,-10.19304 -2.51192,-10.35004 1.86068,-15.21688l4.4133,-4.91918l11.29201,3.05849c17.41481,4.71566 31.44551,12.48401 49.29061,27.27643c8.9836,7.44854 19.13594,14.46098 22.56076,15.57739c3.419,1.12222 8.02419,3.20386 10.22793,4.63426c4.60519,2.9829 10.82102,1.63973 10.82102,-2.34911c0,-1.48855 3.53529,-6.50076 7.86138,-11.14083c23.57251,-25.28201 34.07373,-43.80742 33.88184,-59.76857c-0.06978,-5.44831 -0.65705,-11.22805 -1.30829,-12.84452c-1.96534,-4.86103 -31.27689,-28.59053 -35.31806,-28.59053c-1.26759,0 -1.60484,-1.65717 -0.9129,-4.50052c0.89545,-3.69229 0.45936,-4.50634 -2.4247,-4.50634c-1.93627,0 -3.52367,0.90708 -3.52367,2.01186c0,1.2327 -1.51762,1.55832 -3.92487,0.83731c-2.15723,-0.64542 -11.37923,-2.84917 -20.49657,-4.89592c-21.77579,-4.8901 -27.11362,-7.35551 -30.46284,-14.04233c-2.23863,-4.46564 -2.37818,-6.35539 -0.72683,-9.59995c4.34934,-8.53006 9.07082,-8.93127 7.56483,-0.63961c-1.20363,6.61123 0.51169,9.04175 4.51797,6.41935c2.15723,-1.40714 2.11652,-1.65717 -0.25584,-1.68043c-2.38981,-0.02326 -2.51773,-0.93616 -0.88964,-6.30887c2.19793,-7.25666 3.36667,-7.97186 11.14664,-6.77986c4.84359,0.73846 5.5646,1.46529 4.70403,4.71566c-0.93034,3.52367 -0.81405,3.58763 1.40714,0.75009c1.66298,-2.12815 4.55285,-2.97128 9.25107,-2.69799c6.56472,0.37795 6.80893,0.61635 6.38446,6.24491c-0.24421,3.21549 0.34306,5.84952 1.30829,5.84952c0.96523,0 1.7502,-1.64554 1.7502,-3.6574c0,-4.50052 4.64007,-6.5996 8.73939,-3.95395c1.67461,1.07571 5.7216,2.47703 8.99523,3.11083c5.83789,1.13385 6.07629,0.93034 12.798,-10.93732l6.84963,-12.10024l31.46296,1.04082c35.24247,1.16293 47.91254,3.87254 52.59332,11.25712c3.13409,4.93662 5.90185,5.79719 5.90185,1.83742c0,-4.51797 3.62833,-5.13432 7.16362,-1.22107c2.76195,3.06431 4.00628,3.38993 6.58216,1.73276c4.44238,-2.86661 9.27433,-1.192 27.04965,9.35574c24.4854,14.53076 29.46854,19.0778 50.22677,45.87161c10.75125,13.86789 24.11908,30.61402 29.70694,37.20781c5.59367,6.59379 14.27143,18.01954 19.29061,25.38667c14.8087,21.73508 21.06001,30.18374 22.34155,30.18374c0.66345,0 2.98988,-4.54123 5.16921,-10.08838c3.01663,-7.67531 4.32434,-9.41388 5.47564,-7.29154c2.21247,4.08187 -3.28817,27.1485 -7.38749,30.98034c-1.86475,1.74439 -3.39516,4.05861 -3.40098,5.14013c-0.00581,1.08734 -1.21351,4.35516 -2.68403,7.26829c-1.47052,2.91313 -4.64938,11.37341 -7.06419,18.80451c-5.30294,16.31585 -14.4982,33.68996 -24.6174,46.51703c-4.85522,6.15769 -7.48924,11.27457 -7.48924,14.5482c0,2.77939 -1.76765,8.62309 -3.92487,12.9957c-4.26212,8.62891 -8.7045,11.96651 -7.00663,5.26224c0.9129,-3.59926 0.53495,-3.8551 -4.05861,-2.72125c-6.78567,1.6688 -13.64693,6.98337 -14.43191,11.18153c-0.9536,5.09943 -7.09385,13.32132 -9.94302,13.32132c-2.93057,0 -3.3376,-5.61693 -0.62217,-8.4254c1.035,-1.06989 1.6281,-4.27375 1.30829,-7.11711c-0.64542,-5.8437 1.29666,-5.6053 -28.48005,-3.45389c-9.59414,0.69776 -19.16502,2.12234 -21.2641,3.16897c-2.09908,1.05245 -7.54739,1.47692 -12.10606,0.94197c-5.80881,-0.6745 -9.5011,-0.13955 -12.3619,1.79672c-3.67485,2.48866 -4.37842,2.47122 -7.21595,-0.18607c-4.02954,-3.76207 -7.00081,-3.71555 -11.16409,0.18025c-1.83742,1.71532 -8.17537,4.11094 -14.09466,5.3262c-9.34411,1.92464 -11.66996,3.27364 -17.73462,10.30934c-10.91987,12.66426 -16.29259,9.79765 -6.19839,-3.31434zM283.20546,299.70169c-0.31399,-2.89569 -1.63391,-5.62856 -2.93057,-6.07047c-1.75602,-0.59309 -2.04675,0.29655 -1.11641,3.46552c2.01768,6.88452 4.69822,8.60565 4.04698,2.60495zM258.10952,295.0558c1.38388,0 3.00035,-0.80823 3.59344,-1.79672c0.59309,-0.9943 -0.54076,-1.80254 -2.51192,-1.80254c-1.97697,0 -3.59344,0.80823 -3.59344,1.80254c0,0.98849 1.13385,1.79672 2.51192,1.79672zM255.19057,286.07801c2.18049,-2.84917 3.2213,-5.65182 2.31422,-6.22747c-2.05256,-1.31411 -12.88522,8.67543 -11.24549,10.36748c2.23863,2.31422 4.97151,1.04663 8.93127,-4.14002zM373.10544,289.65401c2.59332,0 4.59937,-1.70369 4.59937,-3.90162c0,-2.61077 -4.81451,-1.62228 -5.86115,1.19781c-0.57565,1.55251 -0.03489,2.7038 1.26177,2.7038zM280.01904,289.65401c0.95941,0 1.74439,-0.81405 1.74439,-1.80254c0,-0.98849 -0.78497,-1.80254 -1.74439,-1.80254c-0.95941,0 -1.74439,0.81405 -1.74439,1.80254c0,0.98849 0.78497,1.80254 1.74439,1.80254zM348.0502,286.95021c0.95941,0.61054 1.74439,-0.55239 1.74439,-2.59332c0,-2.04093 -0.78497,-3.70973 -1.74439,-3.70973c-0.95941,0 -1.74439,1.16874 -1.74439,2.59332c0,1.4304 0.78497,3.0992 1.74439,3.70973zM362.63329,284.79879c1.96534,-2.02931 1.19781,-4.15165 -1.50017,-4.15165c-1.43621,0 -2.61658,0.76172 -2.61658,1.69206c0,2.27352 2.72706,3.90162 4.11676,2.45959zM379.769,279.29234c0.37214,2.70962 1.01175,3.33178 1.92464,1.87813c1.2327,-1.97116 0.18025,-5.17502 -4.30864,-13.13525c-0.83731,-1.48855 -1.9886,-4.12257 -2.55262,-5.85533c-0.56402,-1.73276 -1.71532,-3.15153 -2.56425,-3.15153c-0.84894,0 -1.54088,-1.22689 -1.54088,-2.72706c0,-1.50017 -0.69194,-4.1342 -1.54088,-5.85533c-1.93627,-3.92487 -4.82033,-11.15827 -6.09373,-15.28666c-1.33736,-4.30864 -4.57611,-3.98884 -4.57611,0.44773c0,1.98279 0.87219,3.60507 1.93627,3.60507c1.17456,0 1.5118,1.71532 0.86057,4.39004c-0.58728,2.41889 -0.2791,4.90173 0.68613,5.51227c0.96523,0.61635 1.7502,2.60495 1.7502,4.42493c0,1.81416 1.18037,3.76788 2.61658,4.33771c1.44203,0.56983 2.61658,2.68636 2.61658,4.69822c0,2.01186 0.80242,3.6574 1.78509,3.6574c0.98849,0 2.53518,2.02931 3.44808,4.50634c0.9129,2.47703 2.40726,4.50052 3.32597,4.50052c0.9129,0 1.91883,1.82579 2.227,4.0528zM370.68655,282.44968c2.79684,0 2.08745,-6.70427 -0.83149,-7.86138c-1.43621,-0.56983 -2.61658,-2.19212 -2.61658,-3.59926c0,-1.41295 -1.17456,-3.03524 -2.61658,-3.60507c-1.43621,-0.56983 -2.61658,-2.27933 -2.61658,-3.79695c0,-1.51762 -1.17456,-2.75613 -2.61658,-2.75613c-1.43621,0 -2.61658,0.2791 -2.61658,0.62217c0,2.26771 5.79719,11.98977 7.14618,11.98977c0.9129,0 2.40726,2.02349 3.32015,4.50052c0.9129,2.47703 2.4654,4.50634 3.44808,4.50634zM263.02288,276.44899c0.72101,3.15153 0.81986,3.15153 2.11652,0.06396c1.36644,-3.25619 0.05815,-6.38446 -1.84324,-4.4133c-0.56983,0.58146 -0.68613,2.54099 -0.27329,4.34934zM355.17312,275.23954c4.25049,0 3.65159,-4.20979 -0.72683,-5.08199c-1.72113,-0.34888 -2.90731,0.56983 -2.90731,2.25026c0,1.6688 1.49436,2.83172 3.63414,2.83172zM283.50782,275.23954c3.78532,0 4.27957,-1.32574 1.91301,-5.18083c-1.78509,-2.90731 -5.40179,-1.17456 -5.40179,2.58751c0,1.42458 1.56995,2.59332 3.48878,2.59332zM236.30466,275.23954c2.05838,0 4.26212,-3.51204 3.01198,-4.80288c-1.25015,-1.29085 -4.6517,0.98267 -4.6517,3.11083c0,0.93034 0.73846,1.69206 1.63973,1.69206zM342.31116,262.63343c0.50006,-1.98279 1.65717,-3.60507 2.57007,-3.60507c0.9129,0 1.40714,-2.227 1.10478,-4.95406c-0.63379,-5.68089 -3.67485,-6.65194 -4.64007,-1.48273c-0.35469,1.9072 -2.25608,4.81451 -4.22724,6.46005c-2.00023,1.67461 -3.02361,3.91906 -2.32585,5.0878c1.99442,3.3376 6.52401,2.4247 7.51832,-1.50599zM247.78274,253.58005c2.41307,-2.75032 2.7038,-4.15165 1.18618,-5.7216c-1.51762,-1.56995 -2.80265,-1.33736 -5.23898,0.94197c-1.77928,1.66298 -4.15165,3.02361 -5.27968,3.02361c-1.12222,0 -2.04093,1.21526 -2.04093,2.69799c0,3.98884 7.61135,3.35504 11.37341,-0.94197zM354.90565,251.61471c0.92453,1.55251 1.82579,1.73276 2.54681,0.52332c1.06989,-1.77928 -1.93046,-5.02965 -3.32015,-3.59926c-0.36051,0.37795 -0.01744,1.76183 0.77335,3.07594zM255.64993,239.17721c2.1456,-1.37225 2.00023,-2.05256 -0.93034,-4.34353c-4.37842,-3.41319 -6.09955,-3.51204 -6.09955,-0.34888c0,3.83766 4.0935,6.57053 7.02989,4.69241zM346.97449,235.26397c2.59914,2.68636 2.8201,2.61077 2.8201,-0.96523c0,-4.48889 -2.69217,-6.88452 -4.44819,-3.95395c-0.65705,1.10478 0.07559,3.32015 1.6281,4.91918zM268.36071,235.94428c0.5582,1.44203 0.97104,1.01175 1.05245,-1.08734c0.07559,-1.89557 -0.33725,-2.95965 -0.9129,-2.36074c-0.58146,0.59309 -0.64542,2.15141 -0.13955,3.44808zM239.0259,233.8045c1.44203,0 2.61658,-0.80823 2.61658,-1.79672c0,-0.9943 -1.17456,-1.80254 -2.61658,-1.80254c-1.43621,0 -2.61658,0.80823 -2.61658,1.80254c0,0.98849 1.18037,1.79672 2.61658,1.79672zM335.18824,232.00778c1.23852,0 2.9015,-5.4832 1.95953,-6.45424c-0.4768,-0.49424 -1.28503,0.7559 -1.79672,2.77939c-0.51169,2.01768 -0.58728,3.67485 -0.16281,3.67485zM168.37816,230.18198c0,-2.32585 -3.86091,-9.51273 -5.94837,-11.07105c-0.87219,-0.65124 -2.61658,-0.77335 -3.87836,-0.27329c-1.83742,0.72683 -1.77928,1.43621 0.29073,3.576c1.41877,1.46529 3.38993,4.22724 4.37842,6.12862c1.90138,3.66903 5.15758,4.70403 5.15758,1.63973zM248.37001,227.81543c2.07001,-2.57588 -0.73846,-13.5132 -4.11094,-16.0193c-1.13385,-0.84312 -0.97686,-2.57588 0.45354,-4.95406c2.81428,-4.69822 1.40714,-4.68078 -3.15734,0.02907l-3.576,3.69229l3.80858,3.18642c3.1806,2.6631 3.48296,3.80858 1.83742,6.98918c-1.08152,2.08745 -1.49436,5.07617 -0.91871,6.63449c1.28503,3.4597 3.12246,3.60507 5.66345,0.44191zM237.28152,224.79764c3.25619,0 3.23875,-1.69787 -0.05815,-6.19839c-2.45377,-3.35504 -2.55844,-3.29689 -2.55844,1.35481c0,3.10501 0.94197,4.84359 2.61658,4.84359zM159.65622,212.19152c0.95941,0 1.74439,-1.22107 1.74439,-2.7038c0,-1.48855 -0.78497,-2.7038 -1.74439,-2.7038c-0.95941,0 -1.74439,1.21526 -1.74439,2.7038c0,1.48273 0.78497,2.7038 1.74439,2.7038zM333.11823,210.38898c1.50017,0 2.72125,-0.81405 2.72125,-1.80254c0,-0.98849 -0.73846,-1.80254 -1.63973,-1.80254c-0.90708,0 -2.12815,0.81405 -2.72125,1.80254c-0.59309,0.98849 0.14537,1.80254 1.63973,1.80254zM349.09683,206.78391c1.36062,1.40714 2.48285,1.21526 3.99465,-0.66287c2.52936,-3.1399 0.18025,-5.15758 -3.36667,-2.89569c-1.80835,1.15711 -1.98279,2.15723 -0.62798,3.55855zM151.19593,205.85357c1.16293,1.20363 3.22712,-0.93034 3.22712,-3.33178c0,-1.12804 -0.81405,-1.02337 -2.06419,0.26747c-1.13385,1.17456 -1.65717,2.55262 -1.16293,3.06431zM339.32826,201.38212c0.95941,0 1.74439,-0.36051 1.74439,-0.7966c0,-0.4361 -0.78497,-1.29666 -1.74439,-1.9072c-0.95941,-0.61054 -1.74439,-0.25584 -1.74439,0.7966c0,1.04663 0.78497,1.9072 1.74439,1.9072zM243.38688,195.97452c4.32608,-3.76207 5.2448,-5.32039 3.1399,-5.35527c-2.84917,-0.04652 -11.86184,7.26247 -11.86184,9.6174c0,2.27933 2.73869,0.94197 8.72194,-4.26212zM351.53898,193.27072c0,-1.65135 -0.98267,-2.6631 -2.18049,-2.25026c-1.19781,0.41284 -1.98279,1.49436 -1.74439,2.40144c0.7966,3.02361 3.92487,2.9015 3.92487,-0.15118zM253.85321,195.97452c0.95941,0 1.74439,-0.80823 1.74439,-1.80254c0,-0.98849 -0.78497,-1.79672 -1.74439,-1.79672c-0.95941,0 -1.74439,0.80823 -1.74439,1.79672c0,0.9943 0.78497,1.80254 1.74439,1.80254zM160.91799,193.2242c2.1863,4.02954 3.50041,1.9072 2.63403,-4.23305c-0.58146,-4.06443 -1.46529,-5.00058 -4.06443,-4.30283c-1.82579,0.49424 -3.32015,1.95372 -3.32015,3.23875c0,1.29085 -0.98267,2.7038 -2.18049,3.14571c-1.19781,0.44191 -1.61065,1.43621 -0.9129,2.20956c0.69776,0.77335 2.39563,0.4361 3.78532,-0.75009c1.99442,-1.71532 2.83754,-1.56995 4.05861,0.69194zM330.60631,190.57273c1.38388,-0.88382 1.93627,-2.20374 1.22689,-2.93639c-0.70357,-0.73264 -2.19793,-0.38377 -3.32015,0.77335c-2.63403,2.72125 -1.16293,4.23886 2.09327,2.16304zM346.01508,183.36259c2.27352,0 3.77951,-2.13978 2.73869,-3.87836c-1.11641,-1.8665 -4.19235,-0.26166 -4.19235,2.1863c0,0.93034 0.65705,1.69206 1.45366,1.69206zM258.84797,183.36259c2.24445,0 4.14002,-5.69834 2.45959,-7.4311c-2.19793,-2.27352 -6.32632,1.37225 -5.14595,4.54704c0.58728,1.58739 1.79672,2.88406 2.68636,2.88406zM336.46746,178.51319c1.96534,-2.02931 1.19781,-4.15746 -1.50017,-4.15746c-1.43621,0 -2.61658,0.76753 -2.61658,1.69787c0,2.27352 2.72706,3.8958 4.11676,2.45959zM344.78238,172.33224c1.07571,0.37214 1.66298,-0.2384 1.30829,-1.35481c-0.73264,-2.25608 -3.27364,-2.78521 -3.27364,-0.6745c0,0.74427 0.88382,1.65717 1.96534,2.02931zM340.96798,161.74961c2.3433,0 3.99465,-3.27945 2.72125,-5.40761c-1.81998,-3.04687 -4.36097,-2.00023 -4.36097,1.80254c0,1.98279 0.73846,3.60507 1.63973,3.60507zM332.3507,156.34201c1.91883,0 3.48878,-0.80823 3.48878,-1.80254c0,-0.98849 -1.56995,-1.80254 -3.48878,-1.80254c-1.91883,0 -3.48878,0.81405 -3.48878,1.80254c0,0.9943 1.56995,1.80254 3.48878,1.80254zM252.00416,156.34201c1.01756,0 1.84905,-0.80823 1.84905,-1.80254c0,-0.98849 -0.34306,-1.80254 -0.76753,-1.80254c-0.42447,0 -1.25596,0.81405 -1.84905,1.80254c-0.59309,0.9943 -0.24421,1.80254 0.76753,1.80254zM232.20534,148.23641c0.59891,-2.47703 2.1863,-4.50634 3.52367,-4.50634c1.33155,0 2.4247,-0.86057 2.4247,-1.91883c0,-1.05826 -2.13978,-1.66298 -4.75055,-1.34899c-4.01791,0.4768 -4.79707,1.47692 -5.02965,6.42517c-0.32562,6.90196 2.26189,7.81486 3.83184,1.34899zM339.8632,149.78892c1.39551,-1.44203 -0.18025,-4.25631 -2.384,-4.25631c-0.90127,0 -1.63973,1.21526 -1.63973,2.7038c0,2.78521 2.05838,3.576 4.02372,1.55251zM321.88437,150.94022c2.69217,0 3.95395,-3.84347 1.94209,-5.92511c-2.40726,-2.48285 -6.44842,0.95941 -4.6517,3.96558c0.64542,1.07571 1.8665,1.95953 2.70962,1.95953zM257.0687,148.06198c0.97686,0.62217 2.30259,0.25584 2.9422,-0.81986c1.65717,-2.76776 -0.61054,-4.55285 -2.84917,-2.24445c-1.25596,1.29666 -1.28503,2.30259 -0.09303,3.06431zM247.64318,147.33515c0.42447,0 1.25596,-0.80823 1.84905,-1.80254c0.59309,-0.98849 0.24421,-1.80254 -0.76753,-1.80254c-1.01756,0 -1.84905,0.81405 -1.84905,1.80254c0,0.9943 0.34888,1.80254 0.76753,1.80254zM327.98973,143.48586c1.15711,1.192 3.05849,0.68031 5.66926,-1.52343c3.98884,-3.36667 5.35527,-9.04175 2.18049,-9.04175c-0.95941,0 -1.74439,-2.09327 -1.74439,-4.6517c0,-5.45994 -3.3783,-5.0878 -5.41342,0.59891c-1.06989,2.98872 -0.80823,3.64577 1.13967,2.87243c3.65159,-1.44784 3.22712,4.75637 -0.52332,7.61716c-2.03512,1.55251 -2.47122,2.93057 -1.30829,4.12839zM251.63202,138.55506c2.19793,2.27352 6.32632,-1.37225 5.14595,-4.54704c-1.3897,-3.74462 -4.00046,-3.68647 -5.41342,0.11629c-0.61054,1.65135 -0.49424,3.64577 0.26747,4.43075zM319.26779,138.32829c1.79672,0 2.65147,-1.18037 2.28515,-3.15153c-0.74427,-3.97721 -3.84347,-3.88999 -4.59356,0.12792c-0.34306,1.84324 0.5582,3.02361 2.30841,3.02361zM226.91985,132.92068c1.49436,0 2.23282,-0.80823 1.63973,-1.79672c-0.59309,-0.9943 -1.81416,-1.80254 -2.72125,-1.80254c-0.90127,0 -1.63973,0.80823 -1.63973,1.80254c0,0.98849 1.22689,1.79672 2.72125,1.79672zM248.4049,127.51889c2.12815,0 3.70392,-1.1513 3.70392,-2.7038c0,-1.48273 -0.68613,-2.69799 -1.52925,-2.69799c-0.84312,0 -2.51192,1.21526 -3.70392,2.69799c-1.81416,2.26189 -1.56414,2.7038 1.52925,2.7038zM319.16312,125.71636c3.06431,0 3.51785,-1.08152 1.09896,-2.6224c-0.89545,-0.56983 -2.11652,-0.21514 -2.72125,0.79079c-0.60472,1.00593 0.12792,1.83161 1.62228,1.83161zM220.70982,122.26247c0,-2.20956 -1.12804,-3.75044 -2.7445,-3.75044c-1.62228,0 -2.51192,1.22689 -2.18049,3.00035c0.84894,4.52378 4.92499,5.14013 4.92499,0.75009zM238.9038,116.91301c0.52332,-0.87801 -0.60472,-2.01768 -2.51192,-2.52936c-4.68078,-1.26759 -4.40167,-6.41354 0.45354,-8.4254c3.70392,-1.54088 3.72136,-1.63973 0.34888,-1.74439c-6.0414,-0.19188 -7.9486,3.29108 -5.01221,9.15804c2.60495,5.20409 4.97732,6.45424 6.72171,3.54111zM225.94299,118.51203c0.95941,0 1.74439,-0.76172 1.74439,-1.69787c0,-0.93034 -0.78497,-2.19212 -1.74439,-2.80847c-0.95941,-0.61054 -1.74439,0.15118 -1.74439,1.69787c0,1.54669 0.78497,2.80847 1.74439,2.80847zM315.77901,116.7095c1.45366,0 2.61658,-1.59902 2.61658,-3.60507c0,-2.00023 -1.16293,-3.59926 -2.61658,-3.59926c-1.45366,0 -2.61658,1.59902 -2.61658,3.59926c0,2.00605 1.16293,3.60507 2.61658,3.60507zM243.28221,116.7095c0.90708,0 2.12815,-0.80823 2.72125,-1.80254c0.59309,-0.98849 -0.14537,-1.80254 -1.63973,-1.80254c-1.49436,0 -2.72125,0.81405 -2.72125,1.80254c0,0.9943 0.73846,1.80254 1.63973,1.80254zM212.01114,114.90696c2.11652,0 2.23282,-8.98942 0.15699,-12.37353c-1.22107,-1.9886 -2.21537,-1.73276 -5.18083,1.32574l-3.66903,3.79114l3.8958,-0.42447c3.10501,-0.33725 3.8144,0.40121 3.48878,3.62833c-0.23259,2.23282 0.36051,4.0528 1.30829,4.0528zM323.52409,107.70263c1.01756,0 1.84905,-0.80823 1.84905,-1.80254c0,-0.98849 -0.34306,-1.80254 -0.76753,-1.80254c-0.42447,0 -1.25596,0.81405 -1.84905,1.80254c-0.59309,0.9943 -0.24421,1.80254 0.76753,1.80254zM311.41804,105.9001c2.44214,0 3.72136,-3.23875 1.77346,-4.48308c-2.32585,-1.48273 -5.6053,0.65124 -4.31445,2.80847c0.55239,0.91871 1.69787,1.67461 2.54099,1.67461zM222.45421,102.29503c0.95941,0 1.74439,-0.76172 1.74439,-1.69206c0,-0.93034 -0.78497,-2.19793 -1.74439,-2.80847c-0.95941,-0.61054 -1.74439,0.15118 -1.74439,1.69206c0,1.54669 0.78497,2.80847 1.74439,2.80847zM321.88437,96.14315c0,-1.56995 -1.24433,-2.85498 -2.76195,-2.85498c-1.51762,0 -2.45377,0.96523 -2.07001,2.13978c1.07571,3.34341 4.83196,3.8958 4.83196,0.7152zM231.17615,95.99197c0.95941,0.61054 1.74439,0.25584 1.74439,-0.7966c0,-1.04663 -0.78497,-1.9072 -1.74439,-1.9072c-0.95941,0 -1.74439,0.36051 -1.74439,0.7966c0,0.4361 0.78497,1.29666 1.74439,1.9072zM213.29617,95.87568c3.36086,1.08152 3.92487,0.60472 3.92487,-3.33178c0,-3.55274 -1.08152,-4.82614 -4.79707,-5.63438c-2.63984,-0.57565 -6.16932,-1.81416 -7.84975,-2.75032c-3.72718,-2.08745 -3.96558,-0.56402 -0.4768,3.04105c1.41877,1.46529 3.18642,3.73299 3.92487,5.04128c0.74427,1.30829 3.11664,2.9422 5.27387,3.63414zM307.05706,95.0907c1.59902,0 2.64566,-0.80823 2.32585,-1.80254c-0.87801,-2.71543 -3.68066,-3.00035 -4.50634,-0.44773c-0.40121,1.23852 0.58146,2.25026 2.18049,2.25026zM225.11731,89.60751c1.58158,-2.63984 -0.7152,-5.29131 -3.59344,-4.15165c-1.40714,0.5582 -2.55844,1.65135 -2.55844,2.43051c0,2.23282 5.0064,3.63414 6.15188,1.72113zM316.6512,85.33376c0,-1.56995 -1.24433,-2.85498 -2.76195,-2.85498c-1.51762,0 -2.45377,0.96523 -2.07001,2.13978c1.07571,3.34341 4.83196,3.8958 4.83196,0.7152zM301.84134,86.10129c2.16304,1.85487 2.59914,1.58158 2.59914,-1.59902c0,-3.86091 -2.47703,-5.16339 -4.23886,-2.227c-0.52332,0.87801 0.21514,2.59914 1.63973,3.82603zM209.06312,77.69333c1.54088,-1.58739 -2.30841,-6.23328 -4.1749,-5.04128c-0.80823,0.5175 -1.02919,2.12815 -0.48843,3.58181c1.05245,2.83172 2.80847,3.3783 4.66333,1.45947zM171.86694,78.87952c0.95941,0 1.74439,-0.81405 1.74439,-1.80254c0,-0.98849 -0.78497,-1.80254 -1.74439,-1.80254c-0.95941,0 -1.74439,0.81405 -1.74439,1.80254c0,0.98849 0.78497,1.80254 1.74439,1.80254zM311.41804,75.2163c0,-1.01756 -1.17456,-2.32004 -2.61658,-2.88987c-1.43621,-0.57565 -2.61658,-2.57588 -2.61658,-4.44819c0,-1.87813 -1.17456,-3.41319 -2.61658,-3.41319c-3.75044,0 -3.23293,2.72706 1.50599,8.01256c4.40167,4.90755 6.34376,5.74485 6.34376,2.73869zM296.59073,77.07698c1.44203,0 2.61658,-1.12804 2.61658,-2.51192c0,-1.37807 -1.17456,-2.97128 -2.61658,-3.54692c-1.77928,-0.70357 -2.61658,0.09885 -2.61658,2.51192c0,1.95372 1.17456,3.54692 2.61658,3.54692zM163.67994,74.12315c0.59891,-0.61635 0.27329,-2.69217 -0.7152,-4.60519c-1.27922,-2.4654 -1.21526,-4.21561 0.20933,-5.98907c1.11059,-1.37807 1.43621,-3.47715 0.72683,-4.66333c-1.73276,-2.89569 -5.98907,3.09338 -5.98907,8.4254c0,4.1342 3.90743,8.75683 5.76811,6.83219zM184.07766,71.83219c0,-0.90127 -2.41307,-3.73881 -5.36109,-6.29724c-4.35516,-3.78532 -6.01233,-4.29701 -8.83242,-2.73869c-2.79102,1.54088 -3.06431,2.43633 -1.3897,4.51797c1.54088,1.91301 2.69799,2.08164 4.37842,0.63961c1.72113,-1.47692 2.84335,-1.035 4.54704,1.77928c2.27933,3.76788 6.65775,5.14595 6.65775,2.09908zM292.22976,65.36632c0,-1.65135 -0.98267,-2.6631 -2.18049,-2.25026c-1.19781,0.41284 -1.98279,1.49436 -1.74439,2.40144c0.7966,3.01779 3.92487,2.9015 3.92487,-0.15118zM133.49039,60.8658c0.95941,0 1.74439,-0.81405 1.74439,-1.80254c0,-0.9943 -0.78497,-1.80254 -1.74439,-1.80254c-0.95941,0 -1.74439,0.80823 -1.74439,1.80254c0,0.98849 0.78497,1.80254 1.74439,1.80254zM285.25221,59.06326c0.95941,0 1.74439,-1.16874 1.74439,-2.59914c0,-1.42458 -0.78497,-3.09338 -1.74439,-3.70973c-0.95941,-0.61054 -1.74439,0.5582 -1.74439,2.59914c0,2.04093 0.78497,3.70973 1.74439,3.70973zM156.85357,54.40574c0.65124,-1.7502 0.26166,-2.57588 -1.01175,-2.13978c-1.13967,0.39539 -2.384,1.68043 -2.76195,2.85498c-1.04663,3.24456 2.55844,2.55844 3.77369,-0.7152zM123.56481,57.13281c4.69241,-0.10466 5.01802,-0.36632 2.07582,-1.67461c-4.86684,-2.15723 -10.01279,-2.15723 -8.72194,0c0.59309,0.9943 3.58181,1.74439 6.64612,1.67461zM110.81333,52.75439c0.95941,0.61635 1.74439,0.25584 1.74439,-0.79079c0,-1.05245 -0.78497,-1.9072 -1.74439,-1.9072c-0.95941,0 -1.74439,0.35469 -1.74439,0.79079c0,0.4361 0.78497,1.29666 1.74439,1.9072zM279.14685,50.70764c1.59321,0.62798 2.61658,0 2.61658,-1.61065c0,-1.45366 -1.17456,-2.64566 -2.61658,-2.64566c-1.43621,0 -2.61658,0.72683 -2.61658,1.61065c0,0.88382 1.18037,2.07582 2.61658,2.64566zM161.40061,51.85312c0.95941,0 1.74439,-0.80823 1.74439,-1.79672c0,-0.9943 -0.78497,-1.80254 -1.74439,-1.80254c-0.95941,0 -1.74439,0.80823 -1.74439,1.80254c0,0.98849 0.78497,1.79672 1.74439,1.79672zM289.75854,50.0564c3.08175,0 2.54681,-3.87836 -0.69194,-4.99477c-1.13967,-0.38958 -2.07001,0.56983 -2.07001,2.13978c0,1.56995 1.24433,2.85498 2.76195,2.85498zM152.67866,45.85242c0,-1.31992 -0.5175,-2.93639 -1.14548,-3.58763c-1.58158,-1.6281 -6.02396,2.40726 -4.83777,4.39004c1.48855,2.48285 5.98325,1.87813 5.98325,-0.80242zM130.8738,42.84626c1.42458,-2.37237 -0.66287,-5.75067 -2.73869,-4.42493c-0.88964,0.56983 -1.62228,2.20374 -1.62228,3.63414c0,2.97128 2.75613,3.47133 4.36097,0.79079zM285.5662,42.84626c1.15711,0 1.02919,-1.02919 -0.34888,-2.7445c-2.38981,-2.97709 -4.5296,-2.31422 -2.65147,0.82568c0.62798,1.05826 1.98279,1.91883 3.00035,1.91883zM271.2971,41.94499c0.95941,0.61635 1.74439,-0.14537 1.74439,-1.69206c0,-1.54669 -0.78497,-2.80847 -1.74439,-2.80847c-0.95941,0 -1.74439,0.76172 -1.74439,1.69206c0,0.93616 0.78497,2.19793 1.74439,2.80847zM419.57014,159.94708c-2.25491,-1.50599 -2.20898,-1.7502 0.33318,-1.77346c1.62228,-0.01744 3.43528,0.77916 4.02779,1.77346c1.36469,2.27933 -0.94488,2.27933 -4.36097,0z" fill="url(#color-3)" stroke="url(#color-4)"/><path d="M221.46572,326.62342c6.04721,-8.187 7.33225,-11.37923 8.34981,-20.75823c0.38377,-3.54692 1.4711,-4.50052 5.1285,-4.50052c2.55262,0 5.23898,-0.61054 5.95999,-1.35481c0.72683,-0.73846 -1.52925,-1.34899 -5.01221,-1.34899c-4.44238,0 -6.86708,-1.02337 -8.11141,-3.419c-0.97686,-1.88394 -6.69264,-6.89034 -12.70496,-11.1292c-12.89685,-9.08245 -37.17874,-29.42784 -42.8073,-35.87045c-3.03524,-3.47133 -3.82021,-6.21002 -3.36667,-11.73392c0.59309,-7.20433 -2.4247,-17.6881 -5.69252,-19.77555c-1.12804,-0.72101 -1.04082,-2.26189 0.25003,-4.39004c2.12234,-3.51204 0.72101,-10.03605 -1.81416,-8.41958c-0.83731,0.53495 -2.9422,-0.64542 -4.68078,-2.62821c-2.384,-2.72125 -2.6631,-4.11094 -1.14548,-5.68089c1.51762,-1.56414 2.87824,-1.26759 5.54134,1.22107c3.50622,3.27945 3.52948,3.23293 3.52948,-7.78579c0,-11.66415 -0.80823,-13.10036 -4.45982,-7.93697c-1.22689,1.73276 -2.83754,2.52355 -3.576,1.75602c-0.74427,-0.76172 0.40121,-2.65729 2.54681,-4.20398c2.13978,-1.54669 5.94837,-6.19258 8.46029,-10.31515c2.51192,-4.12839 7.50087,-11.15246 11.07687,-15.61228c11.16409,-13.90278 14.47261,-22.52006 14.87382,-38.73124c0.19188,-7.92534 0.44191,-14.81567 0.55239,-15.30992c0.10466,-0.49424 1.7502,1.73276 3.65159,4.95406c2.36655,4.01209 4.78544,5.85533 7.68113,5.85533c3.36086,0 4.03535,0.73264 3.30852,3.59926c-1.10478,4.35516 3.21549,4.95988 6.47168,0.90127c2.80265,-3.48296 6.97755,-3.48296 6.97755,0c0,1.51762 -1.55832,2.7038 -3.54111,2.7038c-5.83207,0 -5.87859,4.8494 -0.11629,12.07117c2.97128,3.72136 5.40179,8.55913 5.40179,10.75125c0,2.19212 0.83731,4.52378 1.86068,5.17502c1.02919,0.65705 1.4304,2.35492 0.90127,3.78532c-0.52913,1.42458 -0.06396,4.37842 1.02919,6.57053c1.08734,2.19212 2.52936,5.19828 3.19805,6.68682c0.66868,1.48273 3.02942,2.97709 5.25061,3.31434c3.94232,0.59891 8.61147,5.03547 12.38516,11.76299c1.36644,2.44214 1.36062,3.02942 -0.02907,2.1456c-1.05245,-0.6745 -1.91883,-0.36632 -1.91883,0.68613c0,1.04663 0.78497,1.9072 1.74439,1.9072c0.95941,0 1.74439,1.61647 1.74439,3.59926c0,4.84359 -3.76207,4.55285 -8.5068,-0.66287c-2.94802,-3.23875 -3.59344,-5.45994 -2.69217,-9.18711c1.01756,-4.1749 0.70357,-4.81451 -2.08745,-4.22142c-2.09327,0.44773 -3.11664,1.98279 -2.82591,4.23305c0.25584,1.94209 0.7152,5.39016 1.02919,7.65787c0.30818,2.26771 1.46529,5.05291 2.57007,6.19258c1.50599,1.55251 1.25015,2.91894 -1.02919,5.5239c-1.6688,1.90138 -3.10501,5.59949 -3.19805,8.22189c-0.90127,25.81114 -0.46517,30.66635 2.98872,33.3876c2.93639,2.32004 2.1049,8.29748 -2.32585,16.65891c-2.24445,4.23886 -2.72706,7.95441 -1.93046,14.91452c0.58146,5.09362 1.73276,9.69299 2.55844,10.2163c0.81986,0.52913 1.49436,2.94802 1.49436,5.37853c0,2.43051 0.98267,6.23328 2.18049,8.44866c1.19781,2.21537 2.26189,4.25049 2.35492,4.51215c0.09885,0.26747 2.35492,-0.68031 5.01802,-2.1049c4.82614,-2.58751 9.63484,-2.12815 9.63484,0.91871c0,2.70962 5.90185,1.6688 9.59414,-1.68624c1.91883,-1.7502 4.56448,-5.10524 5.87859,-7.46598c2.07001,-3.72136 2.01768,-4.5703 -0.39539,-6.39028c-2.23863,-1.69206 -2.36074,-2.63403 -0.64542,-4.83196c3.11664,-3.98884 8.24514,-5.47157 8.24514,-2.38981c0,1.39551 -0.73264,3.00616 -1.6281,3.58181c-0.89545,0.56983 -1.18037,3.90743 -0.62798,7.41365c0.85475,5.44831 0.45936,6.5182 -2.73288,7.38458c-4.12257,1.11059 -5.12269,8.39051 -1.81998,13.19339c1.4304,2.08164 1.61647,1.56414 0.81405,-2.25026c-1.32574,-6.26817 1.9072,-6.57635 6.80312,-0.64542c2.93639,3.56437 4.70985,4.15165 10.20467,3.39574c5.33783,-0.73846 6.40191,-1.49436 5.40179,-3.86091c-0.68613,-1.61647 -1.59321,-5.48901 -2.02349,-8.60565c-0.59891,-4.36679 -1.83742,-5.90185 -5.40179,-6.71008c-7.26247,-1.63391 -10.22212,-4.18653 -7.78579,-6.70427c2.77939,-2.86661 7.73346,-0.70938 6.43098,2.79684c-0.66287,1.78509 -0.03489,2.76776 1.77346,2.76776c1.54088,0 2.80265,-1.21526 2.80265,-2.69799c0,-1.48855 -0.77335,-2.7038 -1.72694,-2.7038c-0.94778,0 -1.68624,-1.82579 -1.64554,-4.0528c0.10466,-5.59949 -1.97697,-14.40865 -4.0528,-17.11245c-0.94778,-1.23852 -3.11083,-2.25608 -4.81451,-2.25608c-4.80288,0 -5.54134,-4.94825 -1.20363,-8.14048c3.70392,-2.73288 3.56437,-2.80847 -3.56437,-1.95372c-4.0935,0.48843 -7.41365,0.12792 -7.41365,-0.81405c0,-0.93616 0.65705,-1.69787 1.46529,-1.69787c2.64566,0 5.75648,-9.23363 3.88999,-11.55948c-0.94778,-1.17456 -1.31411,-3.75044 -0.81405,-5.7216c0.5582,-2.19793 -0.41284,-4.81451 -2.51773,-6.77986c-4.31445,-4.03535 -6.72753,-0.86638 -3.24456,4.26794c1.94209,2.87243 2.07582,5.15176 0.61054,10.81521c-1.73857,6.72753 -4.62263,9.83835 -4.62263,4.98895c0,-1.20363 -2.15723,-4.0935 -4.79707,-6.42517l-4.79707,-4.23886l5.0064,1.11059c4.97151,1.09896 5.00058,1.05826 3.76788,-5.7216c-1.58158,-8.71613 -2.60495,-10.35004 -4.95988,-7.91952c-2.63403,2.72125 -4.68659,2.44796 -4.68659,-0.62217c0,-1.41877 1.56995,-3.09338 3.48878,-3.72136c4.03535,-1.32574 4.33771,-3.15153 1.33736,-8.11722c-1.82579,-3.01779 -1.6281,-3.95976 1.30829,-6.13443c9.81509,-7.29154 9.62903,-6.94267 8.16955,-15.47273c-1.36644,-7.96023 -1.50599,-8.09978 -7.62879,-7.61135c-5.67508,0.45936 -6.51238,-0.10466 -9.36155,-6.30306c-3.3783,-7.35551 -3.20968,-8.57658 1.19781,-8.6638c5.82044,-0.11629 17.69392,-17.05431 11.95488,-17.05431c-0.95941,0 -1.74439,-1.93046 -1.74439,-4.28538c0,-2.35492 -1.17456,-5.29131 -2.61658,-6.52401c-1.43621,-1.23852 -2.61658,-3.72136 -2.61658,-5.5239c0,-4.5296 -2.72706,-5.83207 -7.12874,-3.40156c-2.60495,1.43621 -4.26212,1.48273 -5.55297,0.15118c-1.29085,-1.33736 -0.45354,-2.44796 2.80265,-3.72718c5.05873,-1.98279 6.21002,-6.80893 2.02931,-8.4661c-1.43621,-0.56983 -2.61658,-2.47703 -2.61658,-4.23886c0,-1.76183 -1.95953,-4.53541 -4.36097,-6.15769c-2.39563,-1.62228 -4.36097,-4.0935 -4.36097,-5.48901c0,-1.39551 -1.56995,-3.05268 -3.48878,-3.68066c-1.91883,-0.63379 -3.48878,-2.1456 -3.48878,-3.36667c0,-1.22107 -3.3376,-4.02372 -7.41365,-6.22165c-4.07606,-2.19793 -10.55355,-6.34957 -14.39121,-9.222c-7.4311,-5.5646 -19.37434,-10.42563 -21.14199,-8.59984c-0.58728,0.60472 1.18618,3.14571 3.93069,5.64019c3.79114,3.44226 4.2912,4.55285 2.06419,4.59937c-1.61065,0.02907 -4.60519,-2.37818 -6.65775,-5.34946c-2.04675,-2.97128 -2.88987,-5.40761 -1.86068,-5.40761c2.28515,0 2.33748,-1.84324 0.14537,-5.40179c-1.38388,-2.24445 -2.27352,-2.31422 -5.25061,-0.40702c-3.15153,2.01768 -3.77369,1.80254 -5.17502,-1.80254c-1.20944,-3.11083 -1.62228,-3.3376 -1.70369,-0.94197c-0.05815,1.73276 -1.27922,3.15153 -2.70962,3.15153c-1.59902,0 -2.50611,-1.55832 -2.36655,-4.0528c0.12792,-2.23282 -0.07559,-4.93081 -0.45354,-6.0007c-0.37795,-1.06989 2.36655,-7.36714 6.09955,-13.99c4.80288,-8.52425 8.10559,-12.38516 11.28038,-13.21084c6.11699,-1.58739 60.99546,2.48866 68.42074,5.08199c3.27945,1.14548 9.5011,6.01814 13.81556,10.83265c4.32027,4.81451 8.43703,8.75102 9.15804,8.73939c0.72101,-0.00581 1.30829,-2.1049 1.30829,-4.66333c0,-2.92476 0.81405,-4.37842 2.18049,-3.90743c3.52948,1.21526 3.6167,6.82637 0.15118,9.57669c-3.08757,2.44796 -3.07012,2.65729 0.47098,5.71578c2.01768,1.74439 4.18653,4.39004 4.81451,5.87859c0.62798,1.48855 2.69217,5.13432 4.58774,8.10559c1.89557,2.97128 4.18072,7.11711 5.08199,9.21037c0.89545,2.09908 2.87243,4.30283 4.38423,4.90173c1.5118,0.59891 2.75032,2.73288 2.75032,4.75055c0,2.01186 0.69776,3.6574 1.55832,3.6574c0.85475,0 2.04675,2.02349 2.64566,4.50052c0.60472,2.47703 1.8665,4.50634 2.80847,4.50634c0.94197,0 1.7095,1.97697 1.7095,4.39586c0,2.41889 0.78497,4.90173 1.74439,5.51227c0.95941,0.61054 1.74439,2.99453 1.74439,5.29131c0,2.29678 1.06408,5.0878 2.37237,6.21002c1.4711,1.26177 2.24445,5.15758 2.03512,10.29771c-0.19188,4.73892 0.61635,9.25107 1.88394,10.56518c1.22689,1.26177 1.78509,4.02372 1.25015,6.14025c-0.53495,2.11652 -0.02907,5.02384 1.12222,6.46587c1.15711,1.43621 1.57576,3.49459 0.92453,4.57611c-0.64542,1.08152 -0.69776,3.25619 -0.11048,4.83196c0.95941,2.59332 1.36062,2.57588 4.26212,-0.13374c1.79091,-1.67461 4.45982,-2.48866 6.07047,-1.84905c3.66322,1.44784 3.6574,1.48273 -1.33736,7.04733c-2.59332,2.88987 -4.64589,3.95395 -5.35527,2.76776c-2.16886,-3.62833 -3.76207,-0.2384 -3.40737,7.26829c0.19188,4.1342 1.34318,8.1463 2.55262,8.91964c1.41295,0.90127 1.69206,2.59914 0.77916,4.73892c-1.87231,4.40749 -2.49448,18.64752 -0.81405,18.64752c0.72683,0 1.73276,-1.62228 2.23282,-3.60507c0.50006,-1.98279 1.82579,-3.59926 2.93639,-3.59926c1.25596,0 1.58739,1.41877 0.87801,3.72718c-0.72683,2.37818 -0.05233,4.98314 1.86068,7.16362c3.46552,3.95976 5.58786,3.15734 7.83812,-2.95965c0.87801,-2.384 2.79102,-4.3319 4.25631,-4.3319c3.07594,0 3.54111,2.83172 0.75009,4.611c-1.05245,0.66868 -1.55251,3.15153 -1.11641,5.51227c0.64542,3.48878 0.06396,4.2912 -3.12246,4.2912c-2.26771,0 -5.14013,1.91883 -6.81475,4.56448c-1.59902,2.51773 -4.22724,4.3319 -5.86696,4.0528c-1.70369,-0.29073 -2.97709,0.64542 -2.97709,2.19212c0,1.59902 1.40714,2.57007 3.46552,2.37818c1.90138,-0.17444 4.00046,0.58146 4.66333,1.68624c1.86068,3.11664 6.69845,-1.92464 6.69845,-6.98918c0,-2.52936 1.02919,-4.27957 2.51192,-4.27957c3.8551,0 4.82033,3.03524 2.3433,7.36714c-1.77928,3.11083 -1.79091,4.07606 -0.05815,4.72729c3.72136,1.3897 2.39563,4.43075 -1.3897,3.18642c-3.51785,-1.1513 -8.64054,1.66298 -8.64054,4.75055c0,0.87219 1.18037,1.58158 2.61658,1.58158c3.87836,0 3.17479,4.98314 -0.89545,6.31469c-2.03512,0.66868 -3.00035,2.01186 -2.29678,3.19223c0.6745,1.12222 1.2734,4.50634 1.33736,7.52413c0.09303,4.50052 0.81986,5.46575 4.03535,5.34946c4.18072,-0.15699 5.15176,2.65729 2.02931,5.8844c-1.36644,1.40714 -1.36644,2.29678 0,3.16897c1.06408,0.6745 1.89557,-0.05233 1.89557,-1.66298c0,-2.35492 0.65705,-2.51192 3.63414,-0.86638c3.44226,1.90138 3.47715,2.19212 0.66287,5.40179c-3.29108,3.75625 -2.3433,8.93127 1.63973,8.93127c1.46529,0 2.79102,-2.04675 3.10501,-4.81451c0.64542,-5.61112 8.97197,-9.72787 12.44331,-6.14606c1.48855,1.54088 0.90708,1.93046 -2.32585,1.55251c-3.3376,-0.38377 -4.44819,0.42447 -4.88429,3.56437c-0.33725,2.43633 0.52913,4.49471 2.17467,5.14595c1.50599,0.59309 2.73869,2.21537 2.73869,3.59344c0,2.99453 0.78497,3.05268 8.72194,0.62217c3.36086,-1.02919 7.97767,-4.32027 10.26282,-7.32062c4.62263,-6.06466 4.35516,-7.21014 -5.25061,-22.31655c-2.51773,-3.96558 -6.3612,-12.29794 -8.53588,-18.52541c-2.18049,-6.22165 -4.62844,-11.73974 -5.45412,-12.26305c-0.81986,-0.52332 -1.48855,-2.52355 -1.48855,-4.44819c0,-1.92464 -1.09315,-3.49459 -2.43051,-3.49459c-3.17479,0 -5.16921,5.47738 -2.8608,7.86719c2.32585,2.40144 2.32585,6.54146 0.00581,6.54146c-0.9943,0 -2.23282,-1.41877 -2.75613,-3.15153c-0.52332,-1.73276 -2.07001,-5.30294 -3.43063,-7.93697c-3.03524,-5.8437 -3.17479,-10.89661 -0.38958,-13.76904c2.87243,-2.97128 5.46575,-2.72125 4.30283,0.40702c-1.18037,3.16897 3.23875,7.48343 4.86684,4.75637c0.61054,-1.01756 0.29073,-3.43645 -0.7152,-5.37272c-1.00593,-1.93627 -1.82579,-5.22154 -1.82579,-7.29736c0,-2.07582 -1.19781,-4.25049 -2.6631,-4.83196c-2.03512,-0.80823 -2.19793,-1.63391 -0.6745,-3.52367c2.92476,-3.64577 0.58146,-7.91952 -4.33771,-7.91952c-2.76776,0 -4.69241,1.28503 -5.40761,3.60507c-0.77335,2.52355 -2.63984,3.59926 -6.22165,3.59926c-6.31469,0 -6.5996,-2.68636 -0.62217,-5.91929l4.49471,-2.43051l-7.11129,-2.88406c-3.91325,-1.58739 -7.11129,-4.03535 -7.11129,-5.43668c0,-4.43075 2.21537,-5.05291 4.73892,-1.33155c3.18642,4.69241 6.93685,4.5703 8.4254,-0.27329c0.80823,-2.63984 0.29655,-4.38423 -1.6281,-5.49482c-3.54111,-2.04675 -3.6574,-5.05291 -0.1977,-5.05291c1.44203,0 2.61658,1.17456 2.61658,2.61077c0,1.44203 1.33736,3.38993 2.97128,4.3319c2.55844,1.47692 2.66891,2.40726 0.80823,6.62868c-2.55262,5.78556 -1.86068,7.00081 3.06431,5.39016c3.6981,-1.21526 4.97151,-7.08222 1.95372,-9.00686c-0.91871,-0.58146 -1.21526,-2.28515 -0.65705,-3.77369c0.55239,-1.49436 -0.22677,-4.11676 -1.73276,-5.83789c-1.68043,-1.91301 -2.1863,-4.05861 -1.30248,-5.52971c0.84312,-1.41295 0.09303,-6.20421 -1.83742,-11.64089c-1.79672,-5.08199 -3.26782,-11.03035 -3.26782,-13.21665c0,-2.1863 -0.78497,-4.47145 -1.74439,-5.08199c-0.95941,-0.61635 -1.74439,-2.58751 -1.74439,-4.39004c0,-1.80254 -1.09896,-4.22142 -2.44214,-5.37272c-1.34899,-1.1513 -3.50041,-5.77393 -4.78544,-10.26864c-2.84917,-9.9779 -5.95418,-13.25154 -7.57065,-7.9893c-1.42458,4.63426 -4.39004,4.84359 -4.39004,0.30236c0,-1.87813 1.55832,-3.80858 3.48878,-4.3319c4.08187,-1.10478 4.66333,-6.33213 0.87219,-7.83231c-1.43621,-0.57565 -2.61658,-2.47703 -2.61658,-4.22724c0,-1.75602 -1.17456,-4.19816 -2.61658,-5.43668c-1.43621,-1.2327 -2.61658,-3.21549 -2.61658,-4.40749c0,-3.11083 -12.50727,-21.28736 -23.97953,-34.84126c-5.67508,-6.71008 -7.2334,-11.19316 -3.87836,-11.19316c5.85533,0 47.73229,26.05535 54.75055,34.0621c4.89592,5.58786 2.60495,6.18095 -7.92534,2.04675c-5.15758,-2.02349 -9.96046,-3.68066 -10.68147,-3.68066c-3.34923,0 -0.52913,3.23293 7.85556,9.00686c5.03547,3.47133 9.74532,7.26247 10.47215,8.4254c0.72683,1.16293 4.26212,3.11083 7.84975,4.32608c9.32085,3.15153 43.05151,40.07442 57.48168,62.91429c8.09803,12.81544 23.37423,32.42819 25.26224,32.42819c0.80707,0 2.77823,-2.83754 4.37958,-6.30887c5.76172,-12.47819 7.01361,-5.44831 2.00488,11.26294c-0.96523,3.21549 -2.77823,5.85533 -4.02896,5.85533c-1.25654,0 -3.20561,3.8144 -4.35458,8.53006c-1.14432,4.69241 -2.67764,9.35574 -3.40679,10.36167c-0.72915,1.00012 -3.13757,7.49506 -5.35295,14.43191c-5.11804,16.03093 -16.30189,36.87638 -25.50878,47.55204c-5.62856,6.52983 -7.34969,10.11745 -8.07071,16.8508c-0.50587,4.70985 -1.9072,9.78021 -3.11083,11.28038c-1.9479,2.4247 -2.40726,2.41307 -4.18653,-0.10466c-2.4247,-3.419 -9.10571,-1.32574 -17.91487,5.61112c-6.77404,5.33783 -8.18118,5.42505 -11.24549,0.66868c-2.16304,-3.36086 -3.15153,-3.53529 -10.24538,-1.84905c-4.31445,1.02919 -14.3505,1.88975 -22.30492,1.91883c-9.62903,0.02907 -15.7402,0.9129 -18.31608,2.65729c-2.93057,1.98279 -5.53553,2.21537 -10.83847,0.9536c-7.32643,-1.73857 -13.08292,-0.87801 -13.08292,1.95372c0,2.75613 -5.25642,1.9072 -6.34376,-1.01756c-1.47692,-3.96558 -10.59425,-3.44226 -12.7573,0.73264c-1.2734,2.45959 -5.25642,4.07606 -14.03651,5.69252c-11.29782,2.08745 -12.75148,2.88406 -18.53704,10.1756c-8.28003,10.43726 -9.64066,8.65798 -1.64554,-2.15141zM357.31872,295.69541c2.39563,-2.47703 1.1513,-6.29724 -1.85487,-5.69834c-1.68043,0.33143 -3.05268,1.74439 -3.05268,3.13409c0,2.84335 3.07594,4.45401 4.90755,2.56425zM278.27465,238.31083c0.95941,0.61054 1.74439,0.30236 1.74439,-0.68613c0,-0.9943 -0.78497,-2.30259 -1.74439,-2.91894c-0.95941,-0.61054 -1.74439,-0.30236 -1.74439,0.69194c0,0.98849 0.78497,2.30259 1.74439,2.91313zM327.11754,219.39585c1.91883,0 3.48878,-0.81405 3.48878,-1.80254c0,-0.98849 -1.56995,-1.80254 -3.48878,-1.80254c-1.91883,0 -3.48878,0.81405 -3.48878,1.80254c0,0.98849 1.56995,1.80254 3.48878,1.80254zM274.78587,215.79078c0.95941,0 1.74439,-0.80823 1.74439,-1.80254c0,-0.98849 -0.78497,-1.79672 -1.74439,-1.79672c-0.95941,0 -1.74439,0.80823 -1.74439,1.79672c0,0.9943 0.78497,1.80254 1.74439,1.80254zM265.21499,204.53365c-0.2791,-3.72136 -1.47692,-6.07047 -3.28527,-6.43679c-3.26782,-0.66868 -3.54111,1.15711 -1.13967,7.6695c2.384,6.4775 4.95406,5.75648 4.42493,-1.2327zM271.92508,196.52691c1.96534,-2.02931 1.19781,-4.15165 -1.50017,-4.15165c-1.43621,0 -2.61658,0.76172 -2.61658,1.69206c0,2.27352 2.72706,3.90162 4.11676,2.45959zM271.83204,182.21129c1.39551,-1.43621 -0.18025,-4.25049 -2.384,-4.25049c-0.90127,0 -1.63973,1.21526 -1.63973,2.7038c0,2.78521 2.05838,3.576 4.02372,1.54669zM255.2429,168.95394c4.1749,0 5.58786,-1.50017 4.40749,-4.68078c-1.31992,-3.56437 -3.61088,-3.13409 -5.79719,1.07571c-1.55832,3.00616 -1.32574,3.60507 1.3897,3.60507zM262.57515,159.94708c2.25026,0 3.48296,-0.9129 3.05268,-2.25608c-0.40121,-1.23852 -1.77346,-2.25026 -3.05268,-2.25026c-1.27922,0 -2.65147,1.01175 -3.05268,2.25026c-0.43028,1.34318 0.80242,2.25608 3.05268,2.25608zM390.78772,143.73008c2.12815,1.82579 2.61658,1.73857 2.61658,-0.45936c0,-1.48273 -1.17456,-3.70973 -2.61658,-4.94243c-2.12815,-1.82579 -2.61658,-1.73857 -2.61658,0.45936c0,1.48855 1.18037,3.70973 2.61658,4.94243zM348.67818,325.68145c-2.45377,0 -2.48866,-0.45936 -0.26747,-4.0528c1.37807,-2.227 3.09338,-5.07617 3.80858,-6.33213c2.70962,-4.74474 4.45401,-0.0407 1.88394,5.08199c-1.45947,2.91894 -3.90162,5.30294 -5.42505,5.30294zM76.11163,294.04405c-7.0764,-6.15188 -8.21607,-11.54785 -8.73357,-41.31875c-0.58728,-33.41086 -1.87813,-39.42319 -13.97837,-64.85637c-5.65763,-11.89092 -11.16409,-25.52041 -12.24561,-30.29422c-1.83742,-8.09396 -1.70369,-8.9022 2.01186,-12.10024c2.1863,-1.88394 5.62275,-3.44808 7.62879,-3.48296c9.59414,-0.15699 40.23142,14.25166 50.91289,23.95046c12.96081,11.76881 20.89196,17.30434 30.17211,21.05477c5.20409,2.11071 10.20467,4.58193 11.11757,5.50645c0.9129,0.91871 3.02361,1.6688 4.69241,1.6688c4.48889,0 5.47738,2.96546 2.52936,7.60553c-2.04093,3.2213 -2.227,5.66345 -0.87801,11.30945c0.9536,3.96558 1.95953,11.8037 2.24445,17.42063l0.51169,10.2163l-26.14257,25.81695c-14.37958,14.19932 -28.18351,27.22991 -30.67217,28.95685c-6.37865,4.42493 -12.98407,3.92487 -19.17083,-1.45366zM140.46794,199.75403c0,-1.61065 -9.222,-5.59367 -12.90848,-5.57041c-1.05245,0.01163 0.4361,1.62228 3.31434,3.59344c5.57623,3.8144 9.59414,4.64007 9.59414,1.97697zM285.25221,294.15453c-0.95941,-0.61054 -1.74439,-1.87231 -1.74439,-2.80847c0,-0.93034 0.78497,-1.69206 1.74439,-1.69206c0.95941,0 1.74439,1.26177 1.74439,2.80847c0,1.54669 -0.78497,2.30841 -1.74439,1.69206zM255.5976,288.07243c0,-2.65729 4.95988,-6.01233 6.98337,-4.72148c1.36644,0.87219 1.32574,1.94209 -0.13374,3.76207c-2.25608,2.80265 -6.84963,3.44808 -6.84963,0.95941zM367.02333,287.85147c-3.08175,0 -3.3376,-0.44773 -1.54669,-2.68054c2.18049,-2.71543 5.25061,-2.13397 5.25061,0.98849c0,0.93034 -1.66298,1.69206 -3.70392,1.69206zM256.90589,275.70471c-1.19781,-0.98267 -3.35504,-2.23282 -4.79707,-2.77939c-1.48855,-0.56983 -0.55239,-1.06408 2.18049,-1.14548c3.32015,-0.09885 4.79707,0.76172 4.79707,2.77939c0,2.08745 -0.62217,2.41307 -2.18049,1.14548zM267.80832,268.93649c-0.95941,-0.61054 -1.74439,-1.4711 -1.74439,-1.9072c0,-0.4361 0.78497,-0.7966 1.74439,-0.7966c0.95941,0 1.74439,0.86057 1.74439,1.9072c0,1.05245 -0.78497,1.40714 -1.74439,0.7966zM353.38803,268.03522c-4.21561,0 -4.64007,-1.00012 -1.035,-2.43051c1.41295,-0.5582 3.02942,-0.2384 3.59344,0.70938c0.56983,0.94778 -0.58728,1.72113 -2.55844,1.72113zM278.16999,268.03522c-1.01175,0 -1.36062,-0.80823 -0.76753,-1.80254c0.59309,-0.98849 1.42458,-1.80254 1.84905,-1.80254c0.42447,0 0.76753,0.81405 0.76753,1.80254c0,0.9943 -0.83149,1.80254 -1.84905,1.80254zM365.49409,264.43015c-0.95941,0 -1.74439,-0.80823 -1.74439,-1.79672c0,-0.9943 0.78497,-1.80254 1.74439,-1.80254c0.95941,0 1.74439,0.80823 1.74439,1.80254c0,0.98849 -0.78497,1.79672 -1.74439,1.79672zM350.14928,257.41771c-0.46517,-1.44203 0.52332,-2.06419 2.67473,-1.69206c1.87813,0.33143 4.64007,-0.45354 6.14025,-1.73857c1.73276,-1.48855 3.12246,-1.68043 3.80858,-0.53495c0.59309,0.98849 -1.09896,3.02361 -3.76788,4.51215c-5.39016,3.01198 -7.75672,2.86661 -8.85568,-0.54658zM252.10882,247.21303c0,-1.4304 -1.05245,-2.59914 -2.33748,-2.59914c-2.65729,0 -7.13455,-8.88475 -5.33783,-10.58844c0.64542,-0.61635 1.58739,0.09885 2.09908,1.58158c0.50587,1.48855 3.20386,4.91336 5.99488,7.60553c2.79684,2.69799 4.57611,5.75067 3.95395,6.78567c-1.45366,2.43051 -4.3726,0.56983 -4.3726,-2.78521zM349.06776,250.0215c-1.51762,0 -2.76195,-1.28503 -2.76195,-2.85498c0,-3.1806 3.75625,-2.62821 4.83196,0.7152c0.38377,1.17456 -0.55239,2.13978 -2.07001,2.13978zM355.02775,242.70669c0,-0.93034 1.18037,-1.69206 2.61658,-1.69206c2.69799,0 3.46552,2.12234 1.50017,4.15165c-1.3897,1.44203 -4.11676,-0.18607 -4.11676,-2.45959zM159.34223,233.39747c-2.86661,-0.98267 -5.91929,-6.36702 -4.46564,-7.86719c1.66298,-1.71532 6.52401,2.72125 6.52401,5.94255c0,1.44784 -0.92453,2.31422 -2.05838,1.92464zM245.13126,201.38212c-0.95941,0 -1.74439,-0.81405 -1.74439,-1.80254c0,-0.9943 0.78497,-1.80254 1.74439,-1.80254c0.95941,0 1.74439,0.80823 1.74439,1.80254c0,0.98849 -0.78497,1.80254 -1.74439,1.80254zM256.32443,189.86334c-1.5118,-0.59891 -3.12827,-1.09315 -3.58763,-1.09315c-0.45936,0 -0.34888,-0.81405 0.24421,-1.80254c1.71532,-2.87243 6.10536,-2.08164 6.10536,1.09315c0,1.90138 -0.94778,2.51773 -2.76195,1.80254zM249.38757,152.73694c-0.41865,0 -0.76753,-0.80823 -0.76753,-1.79672c0,-0.9943 0.83149,-1.80254 1.84905,-1.80254c1.01175,0 1.36062,0.80823 0.76753,1.80254c-0.59309,0.98849 -1.42458,1.79672 -1.84905,1.79672zM330.60631,150.94022c-0.95941,0 -1.74439,-0.81405 -1.74439,-1.80254c0,-0.9943 0.78497,-1.80254 1.74439,-1.80254c0.95941,0 1.74439,0.80823 1.74439,1.80254c0,0.98849 -0.78497,1.80254 -1.74439,1.80254zM239.8981,145.75357c0,-3.37248 4.58774,-8.69287 6.12862,-7.09966c0.44773,0.45936 -0.16281,3.00035 -1.34899,5.646c-2.51773,5.6053 -4.77963,6.29143 -4.77963,1.45366zM321.88437,140.23548c0,-2.12815 3.40156,-4.40167 4.6517,-3.11083c0.51169,0.52913 0.41284,1.82579 -0.22096,2.88406c-1.41877,2.37818 -4.43075,2.52936 -4.43075,0.22677zM324.12882,129.32143c-1.63973,0 -2.23282,-1.035 -1.58739,-2.77358c0.56983,-1.52925 0.15118,-4.23305 -0.93034,-6.01814c-1.43621,-2.37818 -1.44203,-4.15746 -0.02326,-6.68101c1.80835,-3.2213 1.93627,-3.16316 1.9886,0.86057c0.02907,2.36655 1.2734,5.22735 2.76195,6.35539c1.63973,1.2327 2.25608,3.27364 1.55832,5.15176c-0.63379,1.70369 -2.33167,3.10501 -3.76788,3.10501zM225.94299,125.71636c-0.95941,0 -1.74439,-1.21526 -1.74439,-2.7038c0,-1.48273 0.78497,-2.69799 1.74439,-2.69799c0.95941,0 1.74439,1.21526 1.74439,2.69799c0,1.48855 -0.78497,2.7038 -1.74439,2.7038zM238.04905,113.10443c-0.90127,0 -1.63973,-0.80823 -1.63973,-1.79672c0,-0.9943 1.22689,-1.80254 2.72125,-1.80254c1.49436,0 2.23282,0.80823 1.63973,1.80254c-0.59309,0.98849 -1.81416,1.79672 -2.72125,1.79672zM224.1986,94.89301c0,-2.62821 3.03524,-1.81416 4.12257,1.09896c0.54658,1.48855 2.20374,2.7038 3.67485,2.7038c3.20968,0 3.55274,2.94802 0.48843,4.16909c-2.19212,0.87801 -8.28585,-4.98895 -8.28585,-7.97186zM311.41804,94.18944c0,-2.80265 0.98849,-4.50052 2.61658,-4.50052c2.81428,0 3.23293,1.64554 1.55832,6.15769c-1.6281,4.38423 -4.1749,3.3783 -4.1749,-1.65717zM189.37479,96.81765c-3.51204,-0.10466 -18.601,-13.80974 -17.0136,-15.44947c0.6745,-0.69776 2.66891,0.0814 4.43075,1.72694c4.3726,4.08187 5.54134,3.76207 5.54134,-1.5118c0,-2.47703 0.69194,-4.50634 1.52925,-4.50634c2.64566,0 6.34376,5.82044 5.803,9.12315c-0.76172,4.64007 2.99453,6.18095 5.70997,2.33748c2.26771,-3.20386 2.45377,-3.19805 5.98907,0.09885c4.62844,4.32608 4.75055,7.19851 0.18607,4.25631c-2.87243,-1.85487 -3.97139,-1.70369 -6.4775,0.88382c-1.66298,1.71532 -4.22724,3.08175 -5.69834,3.04105zM307.92926,87.88638c-0.95941,0 -1.74439,-1.6688 -1.74439,-3.70973c0,-2.04093 0.78497,-3.20968 1.74439,-2.59332c0.95941,0.61054 1.74439,2.27933 1.74439,3.70392c0,1.4304 -0.78497,2.59914 -1.74439,2.59914zM303.51596,78.87952c-1.41295,0 -2.56425,-1.21526 -2.56425,-2.7038c0,-1.48855 0.70357,-2.7038 1.55832,-2.7038c0.85475,0 2.01186,1.21526 2.56425,2.7038c0.61054,1.64554 0,2.7038 -1.55832,2.7038zM165.86624,78.87952c-1.49436,0 -2.72125,-0.81405 -2.72125,-1.80254c0,-0.98849 0.73846,-1.80254 1.63973,-1.80254c0.90708,0 2.12815,0.81405 2.72125,1.80254c0.59309,0.98849 -0.14537,1.80254 -1.63973,1.80254zM177.51294,77.07698c-1.85487,0 -5.646,-3.87254 -5.646,-5.7623c0,-2.79684 3.38993,-1.40133 5.23317,2.15723c1.02919,1.98279 1.20944,3.60507 0.41284,3.60507zM295.21267,64.46505c-0.50006,-1.98279 -2.16304,-3.59926 -3.69229,-3.59926c-3.12246,0 -3.72718,-2.79102 -0.98849,-4.53541c1.9886,-1.26759 8.52425,5.93674 8.61728,9.48947c0.09303,3.62251 -2.93639,2.5817 -3.9365,-1.35481zM146.31164,66.26759h-4.56448c-5.31457,0 -6.5182,-1.44784 -4.93081,-5.94255c1.035,-2.94802 1.51762,-2.82591 5.31457,1.34899zM106.23722,58.41784c-8.35562,-2.98872 -13.7109,-10.04186 -12.23979,-16.11234c0.59891,-2.45377 2.36655,-4.97151 3.92487,-5.58786c2.30841,-0.9129 2.66891,-0.20933 1.94209,3.73881c-1.20363,6.48331 0.15118,9.59995 4.15746,9.59995c1.81416,0 3.30271,0.77335 3.30271,1.71532c0,2.227 10.47215,7.34388 16.35655,7.99512c2.52355,0.27329 5.16921,1.1513 5.89022,1.94209c1.80835,2.00023 -15.27503,-0.41284 -23.33411,-3.29108zM130.00161,49.15513c-0.95941,-0.61635 -1.74439,-1.4711 -1.74439,-1.9072c0,-0.44191 0.78497,-0.7966 1.74439,-0.7966c0.95941,0 1.74439,0.86057 1.74439,1.9072c0,1.05245 -0.78497,1.40714 -1.74439,0.7966zM158.11534,46.45133c-0.95941,0 -2.227,-0.80823 -2.8201,-1.80254c-0.59309,-0.98849 -0.29073,-1.80254 0.66868,-1.80254c0.95941,0 2.227,0.81405 2.8201,1.80254c0.59309,0.9943 0.29073,1.80254 -0.66868,1.80254zM122.15186,44.6488c-1.59902,0 -2.5817,-1.01175 -2.18049,-2.25026c0.82568,-2.55262 3.62833,-2.26771 4.50634,0.44773c0.3198,0.9943 -0.72683,1.80254 -2.32585,1.80254zM110.13302,43.56728c-4.97151,-1.57576 -4.8901,-1.36644 -2.80265,-7.0357l1.84324,-5.01802l4.28538,4.15746c3.31434,3.21549 3.84347,4.71566 2.32004,6.61123c-1.18618,1.4711 -3.43645,1.98279 -5.646,1.28503zM144.72425,42.84626c-0.41865,0 -0.76753,-0.80823 -0.76753,-1.79672c0,-0.9943 0.83149,-1.80254 1.84905,-1.80254c1.01175,0 1.36062,0.80823 0.76753,1.80254c-0.59309,0.98849 -1.42458,1.79672 -1.84905,1.79672z" fill="url(#color-5)" stroke="url(#color-6)"/><path d="M231.91461,310.73204c-0.41284,-4.8087 0.18607,-7.14618 2.01186,-7.86719c3.1806,-1.26177 20.38609,3.48878 21.10129,5.82044c1.04663,3.43645 -2.7445,6.73334 -9.28015,8.07071c-11.48389,2.3433 -13.18176,1.59902 -13.833,-6.02396zM270.861,313.03463c-2.36655,0.06978 -1.36644,-3.15734 1.30829,-4.21561c1.44203,-0.56983 2.61658,-2.27933 2.61658,-3.79695c0,-3.22712 2.7445,-3.66322 4.50634,-0.70938c0.68613,1.14548 -0.61635,3.51204 -2.94802,5.3669c-2.29678,1.81998 -4.76218,3.33178 -5.4832,3.35504zM286.27558,310.17965c-3.70392,-1.46529 -1.73857,-4.30864 3.00616,-4.33771c6.69845,-0.05233 9.17548,-2.75032 6.89034,-7.5125c-1.09896,-2.29678 -2.50611,-7.61135 -3.12246,-11.82114c-0.61635,-4.20398 -1.76765,-8.05326 -2.55262,-8.55913c-0.78497,-0.50006 -1.97116,-4.95988 -2.62821,-9.91394c-0.65705,-4.95406 -1.83161,-9.40807 -2.61077,-9.90231c-0.77335,-0.49424 -1.96534,-5.96581 -2.65147,-12.1642c-0.68031,-6.19258 -1.73276,-12.07117 -2.33748,-13.05966c-1.24433,-2.04093 -1.97697,-8.19863 -1.95372,-16.29259c0.01744,-5.2855 -5.33783,-13.43761 -8.83242,-13.43761c-3.0992,0 -1.7095,-3.16897 1.81416,-4.12257c3.84347,-1.04082 5.00058,-9.46622 1.46529,-10.68147c-1.43621,-0.49424 -1.50599,-1.65135 -0.2384,-3.98884c1.70369,-3.15153 1.2734,-5.7623 -2.98872,-18.13583c-3.48296,-10.0942 -5.21572,-16.84498 -5.21572,-20.28724c0,-2.09908 -0.78497,-4.32027 -1.74439,-4.93081c-0.95941,-0.61635 -1.74439,-2.58751 -1.74439,-4.39004c0,-1.80254 -1.17456,-4.28538 -2.61658,-5.51808c-1.43621,-1.23852 -2.61658,-3.66903 -2.61658,-5.40761c0,-1.73857 -1.17456,-4.16909 -2.61658,-5.40179c-1.43621,-1.2327 -2.61658,-3.32597 -2.61658,-4.64589c0,-2.87824 -6.32632,-12.73404 -11.77462,-18.33934c-2.15723,-2.22119 -3.92487,-4.8494 -3.92487,-5.83789c0,-0.9943 -0.68613,-1.80254 -1.52343,-1.80254c-0.84312,0 -4.52378,-2.83754 -8.19281,-6.30887c-3.66322,-3.46552 -7.4311,-6.30306 -8.36725,-6.30306c-0.93616,0 -3.14571,-1.34899 -4.90173,-2.99453c-3.56437,-3.32597 -6.97174,-5.43086 -19.7523,-12.19328c-4.79707,-2.54099 -9.8965,-5.34364 -11.33853,-6.22747c-1.43621,-0.88382 -5.55879,-3.0992 -9.15804,-4.91918c-3.59926,-1.81998 -6.48331,-4.14002 -6.41935,-5.15176c0.06978,-1.01175 3.07594,-6.70427 6.68101,-12.65263l6.5589,-10.8094l18.17653,-0.54076c20.63612,-0.61635 50.57564,2.227 56.24491,5.34364c2.08745,1.1513 7.72183,6.56472 12.5189,12.03628c4.79707,5.47157 9.96046,11.27457 11.47226,12.90266c1.5118,1.6281 3.27364,4.11676 3.91325,5.52971c1.40133,3.08175 3.35504,6.23328 12.69915,20.48494c6.37865,9.73369 10.43144,17.74043 14.61216,28.91615c0.74427,1.98279 2.32004,6.03559 3.50041,9.00686c1.9479,4.89592 4.55867,17.99046 5.93674,29.72438c0.29073,2.47703 0.73846,4.90755 1.00012,5.40761c0.26166,0.49424 0.80823,8.19281 1.20944,17.11245c0.72683,16.08326 2.30841,47.26712 2.92476,57.64623c0.36632,6.25654 4.50052,13.5132 7.69275,13.5132c1.20944,0 2.19793,0.89545 2.19793,1.99442c0,1.09896 -1.17456,1.52925 -2.61658,0.95941c-3.36086,-1.33736 -3.36086,3.58181 0,9.6581c1.37225,2.47703 2.52355,6.63449 2.55262,9.23363c0.03489,2.60495 1.24433,5.74485 2.68054,6.97755c1.44203,1.2327 2.61658,3.23293 2.61658,4.44819c0,1.20944 1.56995,3.66903 3.48878,5.45994c1.91883,1.79091 3.48878,4.77963 3.48878,6.64031c0,1.86068 1.18037,3.84928 2.61658,4.41912c1.44203,0.56983 2.61658,2.00605 2.61658,3.18642c0,1.18037 0.81986,2.99453 1.81416,4.02372c2.59914,2.68054 22.2991,-4.08187 28.08466,-9.63484c5.23898,-5.02965 7.45435,-3.3376 5.67508,4.34353c-1.65135,7.11129 -2.65729,8.47191 -4.27957,5.76811c-1.11641,-1.87231 -3.24456,-1.4711 -10.24538,1.91301c-4.86103,2.35492 -10.1349,5.75648 -11.72229,7.57065c-3.54111,4.04117 -5.54134,4.1342 -9.49529,0.4361c-2.63403,-2.45959 -4.77963,-2.58751 -15.29829,-0.90127c-6.73334,1.07571 -17.33922,1.95953 -23.57832,1.95953c-6.23328,0 -11.82114,0.81405 -12.41423,1.80254c-1.19781,2.00023 -7.81486,2.39563 -12.05954,0.70938zM263.88344,305.20233c-2.15723,-0.59891 -5.69252,-1.09896 -7.84975,-1.11059c-2.76195,-0.01744 -3.92487,-1.09896 -3.92487,-3.64577c0,-3.1399 -0.45354,-3.32597 -3.40737,-1.41877c-3.97139,2.55844 -6.93104,0.58728 -3.87254,-2.57588c1.61647,-1.67461 3.83766,-1.48273 9.87324,0.82568c4.71566,1.80254 8.19863,2.29678 8.82661,1.25015c1.58739,-2.65147 4.27957,-0.09885 4.27957,4.0528c0,2.96546 -0.78497,3.48878 -3.92487,2.6224zM75.14058,291.95079c-4.00046,-4.12839 -5.83207,-10.06512 -5.97744,-19.40923c-0.87219,-54.15746 -1.84324,-59.37318 -16.76939,-89.99883c-4.32608,-8.87312 -7.86719,-18.04279 -7.86719,-20.38609c0,-2.33748 -0.85475,-5.89603 -1.89557,-7.9079c-1.54088,-2.97709 -1.192,-4.3319 1.90138,-7.30899c3.1399,-3.01779 5.20409,-3.45389 11.89092,-2.50611c11.62344,1.64554 37.74276,15.54832 50.54657,26.9101c10.55937,9.36155 14.91452,12.19909 28.26491,18.39749c13.51901,6.26817 13.22247,5.87859 13.26317,17.75788c0.02326,6.04721 0.45936,16.06001 0.97104,22.24677l0.92453,11.25131l-25.86928,26.20653c-14.2284,14.41447 -28.2998,27.25898 -31.27689,28.54983c-6.96593,3.02361 -12.65263,1.83161 -18.10676,-3.80277zM74.18117,273.44282c0.95941,0 1.74439,-2.07582 1.74439,-4.611c0,-2.61658 -0.7559,-4.12839 -1.74439,-3.50041c-0.95941,0.61635 -1.74439,2.68636 -1.74439,4.611c0,1.92464 0.78497,3.50041 1.74439,3.50041zM114.63354,266.20361c1.62228,0.01744 3.43645,-0.77916 4.02954,-1.77346c1.36644,-2.27933 -0.94197,-2.27933 -4.36097,0c-2.25608,1.50599 -2.20956,1.7502 0.33143,1.77346zM141.15407,239.2121c3.07594,0 3.83766,-4.5296 1.05826,-6.30306c-0.95941,-0.61635 -1.74439,-0.72683 -1.74439,-0.25584c0,0.47098 -0.4768,2.13978 -1.05826,3.70973c-0.69776,1.8665 -0.09303,2.84917 1.74439,2.84917zM138.51423,209.35398c1.91301,1.22107 4.22724,-9.99535 2.41307,-11.69322c-1.26759,-1.18037 -20.6303,-8.89057 -22.32818,-8.89057c-2.9422,0 0.56402,3.59344 8.7859,9.00686c5.26805,3.46552 9.58251,7.26829 9.58251,8.44866c0.00581,1.18037 0.70357,2.58751 1.54669,3.12827zM96.97451,202.95789l10.53611,5.18083l-0.52913,-6.52983l-0.52913,-6.53564l-16.14141,-0.90127c-15.182,-0.84312 -19.69996,0 -13.36783,2.51192c1.51762,0.59891 4.27375,1.09315 6.12862,1.09315c1.85487,0 8.11141,2.33167 13.90278,5.18083zM226.17557,292.22989c-2.52355,-2.54681 -12.82707,-10.85591 -22.89219,-18.46726c-10.05931,-7.60553 -21.64205,-17.25782 -25.72973,-21.44435c-6.73916,-6.89615 -7.4311,-8.43121 -7.4311,-16.4554c0,-4.86684 -1.13967,-11.11176 -2.52936,-13.87952c-1.3897,-2.76776 -2.09908,-5.74485 -1.57576,-6.61705c0.52332,-0.87219 1.06989,-11.57693 1.22107,-23.79346l0.26747,-22.20607l8.29748,-10.56518c12.54797,-15.9786 18.74055,-30.02674 18.74055,-42.53983c0,-5.69834 0.41865,-10.36167 0.93616,-10.36167c3.59926,0 18.06605,13.34457 18.19979,16.78683c0.02907,0.80823 2.01768,4.12839 4.4133,7.37295c2.40144,3.25038 4.36097,7.60553 4.36097,9.68136c0,2.07582 0.78497,4.27957 1.74439,4.8901c0.95941,0.61635 1.74439,3.04687 1.74439,5.40761c0,2.36074 0.78497,4.79125 1.74439,5.40179c0.95941,0.61635 1.74439,2.95965 1.74439,5.20991c0,2.25608 0.54658,4.66333 1.20944,5.34946c0.66287,0.68613 1.4711,5.86696 1.79091,11.51297c0.31399,5.646 1.32574,11.03617 2.23863,11.97814c1.04663,1.08734 1.00012,2.52936 -0.11629,3.92487c-0.97686,1.20944 -2.03512,9.89068 -2.3433,19.28131c-0.31399,9.39644 -1.13385,18.01954 -1.82579,19.17083c-0.69194,1.1513 -0.26166,3.33178 0.94778,4.83777c1.79672,2.23282 1.6688,3.67485 -0.6745,7.77416c-1.58158,2.76776 -2.39563,5.53553 -1.80254,6.14606c0.59309,0.61635 1.34318,6.55309 1.6688,13.19339c0.32562,6.64612 1.3897,12.90848 2.36655,13.91441c0.97686,1.00593 1.77346,4.0528 1.77346,6.76823c0,2.71543 0.78497,5.43668 1.74439,6.05303c0.95941,0.61054 1.74439,2.27933 1.74439,3.70973c0,4.18072 -6.98337,2.99453 -11.97814,-2.03512zM181.89717,221.14023c6.4775,-0.0407 7.61716,-0.45354 5.23317,-1.88975c-1.68043,-1.01175 -3.05268,-2.92476 -3.05268,-4.25631c0,-2.50029 -3.6574,-4.60519 -7.99512,-4.60519c-1.58158,0 -2.47122,1.93627 -2.47122,5.40179c0,5.25642 0.23259,5.40179 8.28585,5.34946zM386.57793,277.79798c-3.46552,-3.576 -21.08385,-38.81265 -21.08385,-42.16188c0,-1.79672 -0.74427,-3.65159 -4.74474,-11.80951c-0.9943,-2.02349 -2.36655,-7.89627 -3.05268,-13.05966c-0.68613,-5.15758 -1.96534,-9.83835 -2.83754,-10.39656c-0.87219,-0.5582 -1.12804,-2.9015 -0.56983,-5.20991c0.56402,-2.30841 0.17444,-4.73892 -0.86638,-5.40179c-1.035,-0.66287 -1.88394,-3.42482 -1.88394,-6.14025c0,-2.71543 -0.7152,-5.70997 -1.59321,-6.64612c-0.87219,-0.94197 -2.39563,-6.57635 -3.38411,-12.52471c-2.40144,-14.42609 -6.05884,-29.10803 -7.6695,-30.77683c-0.72101,-0.73846 -1.30829,-3.1399 -1.30829,-5.33201c0,-2.19212 -1.04663,-4.87847 -2.33167,-5.97744c-1.27922,-1.09896 -3.38411,-5.45412 -4.67496,-9.68136c-1.28503,-4.22142 -3.01779,-8.61147 -3.83766,-9.74532c-0.82568,-1.13967 -1.78509,-3.60507 -2.13397,-5.47738c-0.34888,-1.87231 -2.08164,-5.93092 -3.8551,-9.0243c-13.96092,-24.35167 -22.75846,-37.66135 -30.82916,-46.65658c-11.93743,-13.29224 1.63973,-8.68706 30.37562,10.30934c22.10722,14.61798 24.32841,19.76974 5.29713,12.30376c-10.75125,-4.22142 -10.8908,-3.419 -1.66298,9.68717c5.01221,7.12292 7.37876,8.75683 17.37411,11.94325c13.30969,4.25049 14.69357,5.54716 16.4147,15.37969c1.31411,7.48924 5.34364,17.11245 7.17525,17.11245c0.57565,0 0.65705,-3.65159 0.16862,-8.10559c-1.12804,-10.31515 1.26759,-10.42563 8.61728,-0.39539c3.06431,4.18072 10.12908,13.01314 15.6995,19.62437c5.57041,6.61123 12.22351,15.53087 14.78311,19.81626c6.21002,10.39656 24.3098,33.91092 26.10187,33.91092c0.78439,0 2.75032,-2.63403 4.36853,-5.84952c3.64635,-7.25666 4.97674,-4.10513 2.41482,5.71578c-1.41295,5.41923 -2.80905,7.34388 -5.33492,7.34388c-2.69508,0 -3.42424,1.24433 -3.43238,5.85533c-0.00581,3.21549 -1.25538,8.28585 -2.77649,11.25712c-1.52111,2.97128 -4.3162,10.54192 -6.21235,16.82172c-5.36981,17.79277 -22.09152,47.1392 -30.13897,52.88987c-0.96523,0.68613 -2.12234,0.86638 -2.57588,0.40121zM394.25324,145.57331c1.52343,-2.54681 -2.26189,-9.04756 -5.27387,-9.04756c-3.07594,0 -3.11083,0.37214 -0.52913,6.22165c2.13397,4.83196 4.04698,5.7623 5.803,2.82591zM274.78587,242.81717c-0.95941,0 -1.74439,-1.26759 -1.74439,-2.80847c0,-1.54669 0.78497,-2.30841 1.74439,-1.69787c0.95941,0.61054 1.74439,1.87813 1.74439,2.80847c0,0.93034 -0.78497,1.69787 -1.74439,1.69787zM351.53898,224.79764c-0.95941,0 -1.74439,-0.74427 -1.74439,-1.65135c0,-0.9129 -0.54076,-3.1399 -1.19781,-4.95406c-1.05826,-2.90731 -0.84894,-3.00616 1.74439,-0.82568c1.61647,1.35481 2.9422,3.58763 2.9422,4.95406c0,1.36062 -0.78497,2.47703 -1.74439,2.47703zM159.54574,201.04488c-1.25596,-0.4361 -2.63403,-1.85487 -3.05268,-3.15734c-0.4361,-1.34899 0.22096,-2.02349 1.52925,-1.57576c1.25596,0.4361 2.63403,1.85487 3.05268,3.15153c0.4361,1.35481 -0.22096,2.02931 -1.52925,1.58158zM245.8988,186.96766c-0.41865,0 -0.76753,-0.80823 -0.76753,-1.80254c0,-0.98849 0.83149,-1.80254 1.84905,-1.80254c1.01175,0 1.36062,0.81405 0.76753,1.80254c-0.59309,0.9943 -1.42458,1.80254 -1.84905,1.80254zM184.47887,91.8287c-0.38377,-1.18037 0.55239,-2.13978 2.07001,-2.13978c1.51762,0 2.76195,1.27922 2.76195,2.84917c0,3.1806 -3.75625,2.62821 -4.83196,-0.70938zM100.74821,54.46389c-4.99477,-3.61088 -7.64042,-8.80916 -6.31469,-12.38516c1.7095,-4.59356 4.16909,-3.24456 4.16909,2.27933c0,3.70973 1.19781,5.68089 4.36097,7.16944c2.40144,1.12804 4.36097,2.87824 4.36097,3.88999c0,2.59332 -2.09327,2.29096 -6.57635,-0.9536z" fill="url(#color-7)" stroke="url(#color-8)"/><path d="M234.64167,314.42433c-0.01163,-1.23852 -0.52913,-4.20398 -1.14548,-6.58797c-1.10478,-4.25049 -0.95941,-4.31445 7.25666,-3.15153c12.8794,1.81998 17.22293,7.67531 7.73927,10.40819c-7.12292,2.05838 -13.82719,1.73276 -13.85045,-0.66868zM290.68307,309.77844l-4.55867,-0.90708l5.23317,-1.77346c5.65763,-1.91301 8.18118,-4.62263 6.66938,-7.15199c-0.52332,-0.87801 -1.98279,-6.18677 -3.24456,-11.79788c-1.26177,-5.61112 -3.59926,-15.0657 -5.19828,-21.01407c-3.43645,-12.7573 -8.99523,-42.69682 -10.35004,-55.68089c-1.79091,-17.24619 -6.2798,-43.39458 -7.97767,-46.52866c-0.93616,-1.72113 -1.70369,-4.71566 -1.70369,-6.65194c0,-1.93627 -0.78497,-4.01791 -1.74439,-4.63426c-0.95941,-0.61054 -1.74439,-2.76195 -1.74439,-4.77963c0,-2.01768 -1.08734,-5.82044 -2.41307,-8.44866c-5.09943,-10.11745 -11.54204,-24.71799 -11.54204,-26.16583c0,-0.83731 -1.95372,-4.06443 -4.34353,-7.18107c-2.38981,-3.11664 -5.72741,-7.5532 -7.41365,-9.86161c-5.87278,-8.03582 -21.1071,-21.92697 -24.04349,-21.92697c-0.78497,0 -2.68636,-1.17456 -4.22142,-2.61077c-2.92476,-2.73288 -22.96197,-14.15281 -37.16711,-21.18851c-4.55867,-2.25608 -8.28585,-5.10524 -8.28585,-6.33213c0,-4.6517 12.3619,-22.08396 16.40888,-23.13059c5.41342,-1.40133 57.76834,2.23863 65.44365,4.55285c5.70997,1.72113 11.67578,7.33806 24.14815,22.75264c5.70997,7.05896 17.85091,25.51459 17.85091,27.13687c0,0.47098 1.93627,3.48296 4.30283,6.68682c7.84393,10.62333 18.30445,37.78927 18.35097,47.65089c0.01163,3.28527 0.79079,7.45435 1.73276,9.26852c1.6281,3.1399 3.29108,27.0264 4.33771,62.22235c0.56402,19.04872 4.33771,39.73136 9.47785,51.94208c2.01186,4.78544 3.66322,9.53018 3.66322,10.54774c0,1.01175 2.27933,5.3262 5.06454,9.58832c2.78521,4.26212 5.58204,9.44296 6.22165,11.51878c0.63961,2.07582 1.91301,3.77369 2.83172,3.77369c0.91871,0 2.41307,2.02349 3.32597,4.50052c1.91301,5.19246 3.50622,5.41923 13.08292,1.85487c13.0771,-4.86103 14.83893,-2.16304 2.93639,4.49471c-3.53529,1.98279 -7.7509,4.5703 -9.37318,5.75648c-2.37818,1.73857 -3.60507,1.54669 -6.31469,-0.98267c-2.83172,-2.64566 -4.55285,-2.85498 -11.00128,-1.31992c-4.20398,1.00012 -14.36213,1.84324 -22.5782,1.8665c-9.63484,0.02907 -16.05419,0.89545 -18.11257,2.44796c-1.75602,1.32574 -5.23898,2.00023 -7.7509,1.50599zM228.37932,292.29967c-2.77939,-2.51192 -14.47261,-11.75137 -25.98558,-20.53146c-28.50913,-21.75253 -31.22456,-24.90987 -31.57925,-36.67287c-0.15118,-5.16921 -0.82568,-11.82696 -1.48855,-14.79823l-1.21526,-5.40761l3.18642,3.84347c1.7502,2.11652 5.93674,4.31445 9.29178,4.8901c10.60588,1.80835 33.80625,1.82579 34.38772,0.02326c0.30818,-0.9536 -1.74439,-4.39586 -4.55867,-7.65787c-4.55867,-5.26805 -6.63449,-6.12862 -18.78707,-7.80323c-7.5125,-1.035 -14.53076,-2.98872 -15.59484,-4.34353c-2.05256,-2.61077 -4.97151,-3.4597 -3.51204,-1.02337c1.26759,2.12234 -1.98279,6.80312 -3.58181,5.15176c-0.7559,-0.77916 -1.29085,-9.01849 -1.19781,-18.30445c0.15118,-14.61798 0.76753,-17.9265 4.58193,-24.65403c2.43051,-4.27375 6.15188,-9.39063 8.27422,-11.37341c6.37865,-5.95418 13.90859,-23.41551 15.07733,-34.98081c1.05826,-10.44889 1.15711,-10.61751 5.2448,-8.69869c9.51273,4.47726 28.35213,44.77846 29.67787,63.49575c0.7966,11.22805 0.50006,39.98139 -0.50587,48.64519c-1.88394,16.31585 -2.05256,39.49296 -0.33725,47.73811c0.92453,4.45982 2.1049,10.74543 2.61658,13.97837c0.51169,3.22712 1.6281,6.31469 2.48285,6.86126c0.85475,0.54658 1.55251,2.15723 1.55251,3.58763c0,3.76788 -2.30259,3.20386 -8.03,-1.96534zM179.57132,168.95394c1.51762,0 2.76195,-1.28503 2.76195,-2.85498c0,-3.1806 -3.75625,-2.62821 -4.83196,0.7152c-0.38377,1.17456 0.55239,2.13978 2.07001,2.13978zM87.88625,296.85833c-8.81498,0 -17.19386,-8.93708 -17.19386,-18.33353c0,-3.36667 0.7559,-3.65159 7.24503,-2.75613c4.97732,0.69194 9.91976,-0.08722 15.80998,-2.48285c4.71566,-1.91883 10.67566,-3.36667 13.25154,-3.2213c2.5817,0.14537 6.84382,-0.63961 9.48366,-1.73857c4.33771,-1.81416 4.79707,-2.86661 4.79707,-11.05361c0,-11.48389 -2.77358,-11.8851 -9.27433,-1.33736c-1.69787,2.75613 -3.88417,4.50052 -4.85522,3.88417c-1.7502,-1.11641 -20.10699,5.58204 -23.28759,8.49517c-3.05849,2.80847 -4.68659,1.55832 -4.12839,-3.16316c0.48261,-4.08187 2.12815,-5.19828 12.76311,-8.68706c19.44993,-6.37283 22.42121,-8.80916 18.51378,-15.18781c-1.22689,-1.99442 -3.02361,-1.73857 -9.86743,1.3897c-4.60519,2.09908 -12.25142,6.28561 -16.99616,9.30341c-11.18735,7.10548 -13.43761,6.11118 -13.50738,-5.94837c-0.09885,-17.68229 -3.31434,-35.58553 -8.86149,-49.34294c-4.22724,-10.48378 -5.0064,-14.02489 -3.31434,-15.10059c1.65135,-1.05826 0.89545,-3.3783 -3.01198,-9.26852c-2.86661,-4.32027 -6.80312,-11.10013 -8.75102,-15.0657l-3.53529,-7.20433l4.23305,-3.29108c4.11676,-3.19223 4.55867,-3.17479 15.77509,0.56402c16.46122,5.49482 29.61972,12.83289 40.6617,22.68287c12.07117,10.76869 23.36318,18.24631 29.72438,19.68833c2.7038,0.61635 5.85533,2.28515 7.00081,3.70392c2.83172,3.52948 1.52925,3.29689 -10.9315,-1.93046c-12.45494,-5.22735 -17.50785,-3.58763 -9.93139,3.2213c2.45377,2.19793 6.61705,7.37876 9.25689,11.50134c2.63984,4.12839 6.3612,8.96034 8.26259,10.73962c2.97709,2.77939 3.6981,2.86661 5.11687,0.60472c0.9129,-1.44784 1.26177,-4.37842 0.77916,-6.51238c-1.02919,-4.53541 0.81986,-15.6588 2.3433,-14.08885c0.56983,0.59309 1.192,5.68671 1.37225,11.3269c0.18025,5.63438 0.59309,15.4204 0.9129,21.75253l0.58146,11.50134l-20.93266,21.20014c-11.51878,11.65833 -24.34585,24.11327 -28.51494,27.67763c-4.16909,3.56437 -9.11734,6.4775 -10.98965,6.4775zM125.08243,242.81717l8.12885,-0.14537c4.47145,-0.07559 9.11152,-0.55239 10.30934,-1.05245c2.6224,-1.09315 2.8608,-8.53588 0.42447,-13.23991c-2.8201,-5.43668 -11.49552,-1.30829 -15.57739,7.42528zM81.49597,219.39585h15.53087h15.53087v-11.6467c0,-9.25689 -0.62798,-11.98977 -3.05268,-13.32132c-4.6517,-2.54681 -40.55704,-4.68659 -40.55704,-2.41307c0,1.02919 2.82591,7.61135 6.27398,14.62379zM379.9667,291.45654c-1.84324,0 -1.95953,-0.81986 -0.5175,-3.60507c1.02919,-1.98279 2.6224,-3.60507 3.55274,-3.60507c1.91301,0 2.27352,4.19235 0.5175,6.00651c-0.63961,0.66287 -2.23863,1.20363 -3.55274,1.20363zM388.30488,277.04208c-2.33748,0 -3.95395,-5.87859 -1.97116,-7.14618c3.99465,-2.55262 21.0257,-26.32864 21.0257,-29.35806c0,-1.80254 -1.76358,-5.87278 -3.91848,-9.05338c-2.15548,-3.1806 -4.07082,-6.07629 -4.2627,-6.43098c-1.02919,-1.95953 -11.29201,8.04745 -14.97848,14.61216c-6.48913,11.54204 -7.41947,15.75764 -3.47133,15.75764c1.79091,0 4.18653,-0.95941 5.32039,-2.12815c3.30271,-3.40737 4.72729,-0.03489 1.52925,3.61088c-1.59321,1.81998 -2.89569,4.31445 -2.89569,5.54716c0,3.63996 -6.00651,1.36644 -6.72171,-2.54681c-0.36051,-1.97116 -1.19781,-3.98884 -1.85487,-4.48308c-3.08175,-2.31422 -13.83882,-30.17211 -17.04268,-44.13303c-1.36644,-5.94837 -3.23293,-14.05396 -4.15746,-18.01954c-0.91871,-3.95976 -2.00605,-8.82661 -2.41307,-10.80358c-0.41284,-1.98279 -1.62228,-6.84963 -2.69799,-10.8094c-1.07571,-3.96558 -2.00605,-8.4254 -2.05838,-9.90813c-0.20351,-5.33201 -8.59402,-32.34678 -13.84463,-44.56913c-1.80835,-4.19816 -3.28527,-8.39051 -3.28527,-9.31504c0,-1.50599 -3.43645,-9.24526 -7.2741,-16.374c-0.80242,-1.48855 -2.16304,-4.32608 -3.02361,-6.30887c-0.86057,-1.98279 -3.60507,-6.67519 -6.09955,-10.43726c-2.49448,-3.76207 -4.53541,-7.29154 -4.53541,-7.84975c0,-0.94197 -11.01872,-16.12397 -16.14723,-22.24677c-6.33213,-7.55902 -7.05315,-9.00686 -4.48889,-9.00686c5.58204,0 48.39516,27.7823 46.23793,30.00349c-0.39539,0.41284 -5.19828,-0.98267 -10.66403,-3.09338c-5.47157,-2.11071 -10.39074,-3.3783 -10.93732,-2.81428c-0.86057,0.88382 2.77939,6.59379 13.44342,21.06059c1.44203,1.9479 7.32643,4.87847 13.08292,6.50657c5.75648,1.63391 11.37341,3.68066 12.48401,4.55285c1.10478,0.87219 2.92476,7.02407 4.04117,13.67019c3.19805,19.02547 13.55972,27.57297 11.20479,9.24526c-0.62798,-4.87847 -0.45354,-8.80916 0.38958,-8.73357c2.20956,0.19188 26.35771,30.80591 35.21514,44.62728c9.6424,15.05407 24.61798,34.49819 26.5653,34.49819c0.82917,0 2.27236,-1.41295 3.20735,-3.13409c2.21596,-4.0935 3.85045,-2.32585 2.56134,2.76195c-0.58379,2.30841 -2.37179,3.97721 -4.25805,3.97721c-1.9729,0 -3.56669,1.59321 -4.05163,4.0528c-0.44017,2.227 -1.1827,6.0821 -1.65077,8.55913c-1.3362,7.06477 -11.82172,36.63216 -14.05628,39.63251c-1.10769,1.48273 -3.36609,5.78556 -5.01861,9.55925c-1.65194,3.77369 -6.15944,11.27457 -10.01628,16.66473c-3.8551,5.39598 -7.68694,9.80346 -8.51262,9.80346zM417.82575,182.46714c0.95941,0.61054 1.74439,-0.10466 1.74439,-1.59321c0,-1.48273 -0.78497,-3.20386 -1.74439,-3.8144c-0.95941,-0.61054 -1.74439,0.10466 -1.74439,1.58739c0,1.48855 0.78497,3.20386 1.74439,3.82021zM395.1487,144.09058c0,-5.79137 -2.79684,-9.36737 -7.32643,-9.36737c-3.84928,0 -3.91325,1.44784 -0.39539,8.73357c3.4597,7.15781 7.72183,7.50669 7.72183,0.63379z" fill="url(#color-9)" stroke="url(#color-10)"/><path d="M235.87438,310.67971c-1.84324,-6.82056 -0.9943,-7.40202 6.96011,-4.77381c11.93743,3.94232 12.27468,6.91941 1.00593,8.85568c-6.11699,1.05245 -6.65194,0.77916 -7.96604,-4.08187zM350.34116,303.91148c-1.33736,-1.38388 -7.17525,-1.44203 -19.97325,-0.19188c-9.94302,0.97104 -20.88033,1.37225 -24.29934,0.89545c-6.01233,-0.83731 -6.29724,-1.22107 -8.28585,-11.17572c-3.07594,-15.35644 -3.6981,-14.59472 11.89092,-14.59472c13.86208,0 14.97848,-0.55239 12.8387,-6.30887c-0.80823,-2.17467 -1.4711,-2.40144 -2.41889,-0.81986c-0.72101,1.20363 -6.7159,2.57588 -13.40853,3.07012l-12.10606,0.89545l-3.84928,-14.18188c-4.85522,-17.87998 -8.99523,-40.59774 -7.76834,-42.64449c0.51169,-0.86057 8.48354,-1.29085 17.70555,-0.95941c18.7987,0.66868 16.53681,-1.21526 21.24665,17.71136c4.83196,19.43831 11.74555,36.03907 20.43842,49.07547c3.13409,4.69241 5.69834,9.25689 5.69834,10.1349c0,0.88382 1.12222,2.56425 2.49448,3.73881c1.94209,1.66298 4.30864,1.50017 10.69892,-0.74427c9.222,-3.23293 12.42005,-2.64566 4.36679,0.80242c-2.87824,1.22689 -6.14025,3.36667 -7.25084,4.74474c-2.41889,3.00616 -5.43668,3.21549 -8.01837,0.55239zM228.99567,290.62505c-3.11664,-2.63984 -14.49006,-11.26294 -25.27619,-19.16502c-10.78032,-7.9079 -22.36306,-17.30434 -25.72973,-20.88615c-5.47738,-5.82626 -6.1228,-7.54157 -6.1228,-16.32748v-9.81509l12.64682,1.50599c6.9543,0.83149 17.35667,1.51762 23.11315,1.53506l10.46633,0.02907l-0.56983,-8.10559c-0.77335,-11.03035 -4.26212,-16.217 -10.91406,-16.217c-2.97709,0 -4.83777,-0.76172 -4.24468,-1.74439c1.30248,-2.18049 -3.79114,-12.66426 -6.15188,-12.66426c-0.9943,0 -1.25015,-1.9886 -0.60472,-4.64589c1.05245,-4.3319 0.30818,-4.02372 -11.01291,4.50634c-6.67519,5.02965 -13.05966,9.14641 -14.17607,9.14641c-2.56425,0 -2.72125,-16.32166 -0.24421,-25.52622c0.97686,-3.63414 5.15176,-10.52448 9.27433,-15.30992c9.66973,-11.22805 15.5425,-24.07256 16.50773,-36.11466c0.42447,-5.27387 1.36062,-9.96627 2.08164,-10.42563c2.07582,-1.32574 10.01861,7.76834 15.58321,17.83347c4.64007,8.39632 7.93697,16.87405 13.95511,35.90533c2.95383,9.34992 3.40737,35.50413 0.95941,55.72741c-1.91301,15.81579 -1.97697,37.30666 -0.14537,49.06966c0.45936,2.97128 1.38388,8.86731 2.04675,13.10617c0.66287,4.23305 1.88975,8.13467 2.72125,8.6638c0.82568,0.52913 1.50599,1.80254 1.50599,2.83172c0,1.02919 -2.55262,-0.2791 -5.66926,-2.91313zM177.41991,180.69367c0.9129,0.94197 17.12408,-15.33899 17.12408,-17.19386c0,-3.08757 -3.27364,-3.51785 -5.92511,-0.78497c-2.11071,2.1863 -3.50622,2.37237 -6.26817,0.84312c-2.8608,-1.58158 -3.77951,-1.37807 -4.68078,1.05245c-0.61635,1.66298 -0.29655,4.38423 0.7152,6.04721c1.22107,2.02349 1.25596,4.0935 0.11048,6.20421c-0.94197,1.74439 -1.42458,3.46552 -1.07571,3.83184zM73.25664,285.94428c-3.419,-6.83219 -1.91883,-9.43714 4.58193,-7.96023c3.00616,0.68031 8.6638,-0.0814 13.90278,-1.88394c4.85522,-1.66298 9.1813,-2.6631 9.61158,-2.22119c1.11641,1.1513 -6.35539,18.21723 -8.66961,19.79881c-5.89022,4.03535 -15.43784,0.2384 -19.42668,-7.73346zM381.96112,289.65401c-0.41865,0 -0.76753,-0.81405 -0.76753,-1.80254c0,-0.98849 0.83149,-1.80254 1.84905,-1.80254c1.01175,0 1.36062,0.81405 0.76753,1.80254c-0.59309,0.98849 -1.42458,1.80254 -1.84905,1.80254zM105.38247,278.44922c0.78497,-2.19793 4.0935,-5.10524 7.35551,-6.46005l5.92511,-2.4654l-6.01233,6.46005c-6.87871,7.39621 -9.33248,8.2277 -7.26829,2.4654zM388.58979,274.47201c-0.94197,-0.97104 12.94627,-20.85126 14.56855,-20.85126c1.22514,0 -0.40993,2.8201 -7.62589,13.14688c-3.32015,4.75637 -6.44261,8.22189 -6.94267,7.70438zM123.46015,264.36619c-1.12222,0.16862 -0.21514,-13.71671 1.02919,-15.74602c0.77916,-1.26177 5.65182,-2.81428 10.83265,-3.44808l9.4197,-1.1513l-10.41982,10.14071c-5.73322,5.57623 -10.62333,10.16979 -10.86173,10.20467zM371.36686,241.01464c-1.54088,0 -7.88464,-18.34515 -11.01872,-31.89906c-2.01768,-8.71031 -4.41912,-18.6824 -5.33783,-22.14792c-0.91871,-3.46552 -2.63984,-9.95465 -3.82021,-14.40865c-1.18618,-4.45982 -2.33167,-9.73369 -2.55262,-11.71066c-0.21514,-1.98279 -1.29085,-6.84963 -2.37818,-10.8094c-1.09315,-3.96558 -2.40144,-9.44877 -2.91313,-12.18165c-0.51169,-2.73869 -1.6281,-5.41923 -2.47703,-5.96581c-0.84894,-0.54076 -1.54088,-2.91313 -1.54088,-5.27387c0,-2.36074 -0.73264,-4.76218 -1.63391,-5.33201c-0.89545,-0.57565 -3.29689,-5.68671 -5.33783,-11.3676c-7.83231,-21.76997 -18.88592,-41.47575 -34.06791,-60.72799c-4.44819,-5.64019 -7.66368,-10.68729 -7.15199,-11.21642c1.55832,-1.61065 37.92301,20.64775 40.3419,24.68892c0.60472,1.01756 -2.9015,0.21514 -7.79742,-1.77928c-15.32155,-6.23328 -15.71694,-4.90173 -3.6167,12.11769c8.22189,11.5653 9.23363,12.34446 20.49657,15.82742c11.54785,3.57018 11.8851,3.84928 13.28643,10.82102c0.79079,3.93069 2.4654,11.46645 3.72718,16.74613c2.58751,10.83265 1.37225,12.57123 -6.60542,9.43714c-3.75044,-1.4711 -4.66333,-1.30829 -4.66333,0.83149c0,1.87813 1.95372,2.65729 6.67519,2.65729c4.70403,0 7.71601,1.192 10.2163,4.0528c5.62856,6.43098 13.28061,22.45028 11.86184,24.81684c-0.84894,1.41877 -4.48889,1.88975 -10.55937,1.36644l-9.2627,-0.79079l0.94778,5.54134c0.5175,3.05268 1.62228,8.3847 2.44796,11.85021c0.83149,3.47133 3.06431,14.62379 4.96569,24.78776c1.90138,10.16979 4.05861,19.48482 4.78544,20.71171c0.73264,1.22107 1.81416,6.0821 2.39563,10.79195c0.58728,4.70985 0.84894,8.56495 0.58728,8.56495zM411.97565,239.74123l-4.04349,-5.22154c-4.77439,-6.15769 -5.18083,-11.18153 -1.1513,-14.22258c2.68287,-2.02349 2.61484,-2.6224 -0.87219,-7.68113c-2.08047,-3.01779 -3.76555,-6.98337 -3.74462,-8.80916c0.05059,-4.47726 22.01535,-22.94453 23.77951,-19.99651c2.0357,3.40156 0.59193,15.91464 -2.85905,24.77613c-1.73683,4.45982 -4.9465,13.29224 -7.13339,19.63019zM113.08453,228.80973c-0.80823,-6.2391 -0.43028,-7.40202 2.75613,-8.44866c3.35504,-1.09896 3.60507,-2.1456 2.70962,-11.449l-0.98267,-10.23375l5.41342,6.30306c5.80881,6.76823 8.50099,14.07722 5.87278,15.95534c-0.88964,0.63961 -3.93069,4.98314 -6.75078,9.6581c-5.67508,9.39644 -7.61716,9.01268 -9.01849,-1.78509zM107.57807,191.76473c-3.50041,-0.5582 -13.15269,-1.56414 -21.45017,-2.23863c-8.29748,-0.6745 -15.7809,-1.72694 -16.62402,-2.3433c-2.80847,-2.04093 -18.39749,-24.43889 -21.17688,-30.42795c-2.47703,-5.3262 -2.47703,-6.15188 -0.02326,-8.69287c3.50622,-3.6167 12.29213,-1.36644 32.33515,8.28585c12.65845,6.09373 42.08047,28.8173 37.31248,28.8173c-0.91871,0 -2.19793,1.71532 -2.84335,3.80277c-0.98849,3.23293 -2.12815,3.65159 -7.52994,2.79684zM388.1694,161.87753c0,-1.51762 -3.23875,-5.80881 -7.19851,-9.54762c-6.2798,-5.93092 -7.05896,-7.49506 -6.1228,-12.32701c0.63961,-3.30852 0.09885,-7.48343 -1.35481,-10.38493c-1.33736,-2.66891 -2.9422,-8.89057 -3.57018,-13.833l-1.14548,-8.9836l4.02372,5.40179c2.21537,2.97709 6.57635,8.34399 9.6988,11.93162c6.33795,7.29154 6.85545,8.7859 3.05268,8.7859c-3.32015,0 -3.30852,2.40726 0.04652,9.09989c2.384,4.76218 2.384,5.31457 0,5.31457c-1.46529,0 -2.6631,0.80823 -2.6631,1.80254c0,2.95965 12.19328,2.1456 13.32132,-0.88964c1.37807,-3.70973 3.48354,-1.96534 9.34353,7.76253l5.02268,8.33236l-5.55762,2.08745c-10.47157,3.94232 -16.89673,2.20956 -16.89673,-4.55285zM271.5855,158.00499c-0.32562,-2.40144 -1.30248,-5.13432 -2.18049,-6.07629c-0.87801,-0.94197 -1.59902,-3.25038 -1.59902,-5.1285c0,-1.87813 -1.09896,-5.5646 -2.43633,-8.19281c-1.34318,-2.63403 -5.0064,-10.46052 -8.14048,-17.39156c-3.13409,-6.93685 -7.12874,-14.23421 -8.87894,-16.217c-6.92522,-7.86138 -11.93743,-14.47843 -11.94325,-15.76346c0,-0.74427 -1.09315,-1.34899 -2.43051,-1.34899c-1.33736,0 -2.83172,-1.08734 -3.32597,-2.41889c-1.4304,-3.83766 -18.87429,-15.57158 -41.13269,-27.66601c-18.17072,-9.87324 -21.14199,-11.8444 -21.14199,-14.05977c0,-1.01175 2.84917,-6.21002 6.33213,-11.54785l6.32632,-9.71043l28.12536,1.21526c38.83591,1.6688 41.87114,2.44796 51.2327,13.11199c8.99523,10.24538 23.11315,28.71845 23.11315,30.24189c0,0.57565 2.76776,5.11687 6.15188,10.08838c5.27387,7.7509 9.26852,15.82742 16.46703,33.26549c3.96558,9.60577 6.70427,23.26433 8.21026,40.92336l0.87219,10.29771l-19.77555,0.55239c-24.77032,0.69776 -23.15967,0.98267 -23.84579,-4.1749z" fill="url(#color-11)" stroke="url(#color-12)"/><path d="M238.81076,314.60458c-1.08152,0.15118 -1.96534,-1.75602 -1.96534,-4.23305c0,-5.11106 0.44773,-5.25642 8.02419,-2.52936c6.76823,2.44214 7.05315,4.75055 0.69776,5.73904c-2.63984,0.41284 -5.68089,0.87219 -6.7566,1.02337zM353.16126,304.88834c-2.41889,-1.54088 -1.96534,-2.6224 1.09896,-2.6224c1.49436,0 2.227,0.81986 1.62228,1.83161c-0.60472,1.00593 -1.82579,1.36062 -2.72125,0.79079zM320.76215,302.01591l-19.44412,0.25003l-0.77335,-6.7566c-0.42447,-3.71555 -1.37807,-8.17537 -2.11652,-9.90813c-1.20363,-2.83754 -0.10466,-3.15153 10.91406,-3.15153c18.8801,0 20.22909,-1.36644 15.37969,-15.55995c-1.31411,-3.8551 -2.96546,-10.64659 -3.66322,-15.08896c-1.70369,-10.78032 1.41877,-7.73927 6.06466,5.90766c3.58181,10.53029 6.07047,15.56576 15.43203,31.242c3.02361,5.06454 5.49482,9.66973 5.49482,10.23375c0,0.56402 -1.76765,1.37807 -3.92487,1.80835c-2.15723,0.43028 -12.67589,0.88964 -23.36318,1.02337zM89.44457,286.8688c-6.18095,-1.93046 -7.22177,-3.91906 -3.20386,-6.14025c4.50634,-2.48866 7.12874,-1.11059 7.12874,3.75044c0,2.91313 -0.76172,3.3783 -3.92487,2.38981zM227.51875,285.70006c-1.34899,-0.45354 -2.7038,-3.19805 -3.01779,-6.09373c-0.69776,-6.44261 -3.79114,-10.38493 -3.79114,-4.83196c0,5.39598 -2.78521,6.58216 -6.56472,2.78521c-1.75602,-1.77346 -8.99523,-7.2741 -16.07745,-12.22817c-7.08222,-4.95406 -15.48436,-11.66996 -18.66496,-14.92034c-5.05291,-5.15758 -5.79137,-7.08803 -5.79137,-15.10059v-9.1813l6.54146,1.11641c3.59926,0.61635 8.24514,1.12804 10.32678,1.13967c2.79102,0.01163 4.0935,1.45366 4.94825,5.46575c1.38388,6.51238 8.84405,16.17048 12.49564,16.17048c1.93046,0 2.32585,1.27922 1.53506,4.98895c-0.66868,3.14571 -0.09303,6.30306 1.55251,8.55913c2.45959,3.35504 2.61658,3.12827 2.6631,-3.8144c0.0407,-4.8901 1.16874,-8.41377 3.36086,-10.46052c4.78544,-4.47145 6.0007,-19.24061 2.75032,-33.50389c-1.46529,-6.43679 -3.39574,-15.35644 -4.2912,-19.81626c-3.27364,-16.31585 -9.37318,-34.22491 -11.66415,-34.22491c-1.26759,0 -2.30841,1.25015 -2.30841,2.77939c0,3.6574 -13.34457,18.28119 -23.6888,25.95069l-8.22189,6.09955l0.87801,-12.67008c0.97686,-14.1121 2.67473,-18.93825 5.09362,-14.47261c0.91871,1.69206 0.48843,5.22154 -1.11059,9.1813c-3.29108,8.12304 -3.27364,8.34981 0.61635,8.34981c5.01802,0 23.30503,-20.7466 22.63054,-25.67159c-0.6745,-4.91336 -6.86126,-6.34376 -10.08257,-2.33748c-2.36074,2.93639 -8.79172,3.86673 -8.79172,1.26759c0,-2.57588 6.40191,-7.6695 8.93708,-7.11129c1.58739,0.34888 2.4654,-1.30829 2.59332,-4.87847c0.10466,-2.97128 1.58158,-8.64635 3.27945,-12.61193c1.69787,-3.95976 3.576,-11.15246 4.16909,-15.97279l1.08152,-8.76846l4.59937,4.75637c4.24468,4.39004 15.84486,27.06128 20.36865,39.80114c6.01814,16.94383 6.86126,38.05093 2.60495,65.19362c-2.95965,18.8801 -2.55262,29.12548 2.33748,58.90219c0.9129,5.55297 0.64542,6.82637 -1.29666,6.16351zM201.52155,263.36026c0,-0.59309 -1.44203,-3.22712 -3.20386,-5.85533c-1.76183,-2.62821 -3.70392,-6.19839 -4.30864,-7.93697c-0.60472,-1.73276 -1.8665,-3.15153 -2.80847,-3.15153c-1.76183,0 2.32585,11.76299 5.4832,15.76346c1.83742,2.33167 4.83777,3.06431 4.83777,1.18037zM408.82994,232.64738c-3.88301,-3.62833 -4.1877,-8.87894 -0.59774,-10.30352c3.6231,-1.4304 3.2748,-5.19246 -1.20712,-13.0364l-3.8237,-6.69264l6.00419,-5.25642c3.30271,-2.88406 8.16316,-6.86708 10.80126,-8.84405l4.79707,-3.59344v8.64635c0,7.82068 -1.95488,14.66449 -10.08896,35.30643c-2.5346,6.43679 -2.83521,6.62868 -5.88499,3.77369zM87.43852,186.82229c-2.77939,-0.9129 -7.88464,-1.68043 -11.33853,-1.71532c-5.59949,-0.05233 -7.20433,-1.2734 -14.79823,-11.25712c-11.1292,-14.62961 -14.89708,-22.57239 -11.68159,-24.62495c2.57588,-1.63973 11.93743,0.56983 14.76334,3.48296c0.97686,1.00593 3.47133,1.83161 5.54716,1.83161c6.61705,0 25.75299,10.28608 35.21339,18.93825c8.2684,7.54739 10.98383,12.80963 8.13467,15.74602c-1.33736,1.38388 -19.38016,-0.29073 -25.84021,-2.40144zM394.50327,156.56878c-3.00616,-1.22107 -2.91313,-1.56414 1.21526,-4.36097c4.71566,-3.18642 7.55437,-1.54669 5.74485,3.32015c-1.06524,2.86661 -2.08164,3.01779 -6.96011,1.04082zM367.67457,155.37678c-2.63984,-0.4768 -7.89627,-1.14548 -11.6874,-1.48855c-3.79114,-0.33725 -7.1927,-1.54669 -7.55902,-2.68054c-0.36632,-1.13967 0.09303,-2.07001 1.01756,-2.07001c0.93034,0 2.08745,-1.58739 2.57588,-3.52367c0.7559,-2.97128 1.93627,-3.35504 7.61716,-2.47122c6.5182,1.01175 12.71078,6.29143 12.79218,10.90243c0.02907,1.42458 -1.66298,1.89557 -4.75637,1.33155zM379.4492,136.35713c-1.31411,0.19188 -6.73916,-12.59449 -7.95441,-18.74636c-1.02337,-5.19246 -0.7559,-5.05291 6.63449,3.46552c7.10548,8.187 7.48343,9.10571 4.94243,12.00721c-1.5118,1.72694 -3.1399,3.19805 -3.62251,3.27364zM347.84087,121.57634c-9.1406,-0.74427 -9.44296,-0.94778 -11.6467,-7.76834c-1.24433,-3.8551 -4.66915,-12.11769 -7.60553,-18.36841c-2.9422,-6.24491 -4.86684,-11.85603 -4.27957,-12.46075c0.58728,-0.60472 1.06408,-0.20933 1.06408,0.87801c0,1.08152 4.51215,3.26782 10.03024,4.85522c17.39737,5.0064 17.22875,4.85522 18.43237,16.72287c0.59309,5.87278 1.59902,12.07117 2.23282,13.78649c1.02919,2.76195 0.11048,3.02942 -8.2277,2.35492zM246.87565,102.57413c0,-0.83731 -1.63973,-3.47715 -3.63996,-5.85533c-2.00605,-2.384 -4.16327,-5.15758 -4.79707,-6.17514c-1.63973,-2.61077 -20.48494,-18.86847 -21.87463,-18.86847c-0.63961,0 -4.47726,-2.16886 -8.53588,-4.81451c-4.05861,-2.64566 -14.44354,-8.67543 -23.07826,-13.39691c-8.63472,-4.71566 -15.49599,-9.23945 -15.25177,-10.04768c0.24421,-0.80823 2.76195,-5.32039 5.59367,-10.02442l5.15176,-8.55913h19.74648c19.78718,0 47.20316,2.7038 51.22688,5.05291c9.83254,5.74485 47.20316,59.20455 43.82486,62.69333c-0.56983,0.59309 -10.71055,3.35504 -22.52006,6.14025c-24.35748,5.74485 -25.84603,5.96581 -25.84603,3.8551zM307.92926,59.06326c-0.95941,0 -1.7502,-1.01756 -1.7502,-2.25608c-0.00581,-1.23852 -2.71543,-5.29131 -6.01814,-9.00686c-3.30271,-3.71555 -5.50645,-6.75078 -4.89592,-6.75078c1.13967,0 24.87498,14.5075 24.87498,15.20526c0,0.20933 -2.35492,0.02326 -5.23317,-0.41284c-3.1399,-0.4768 -5.23317,0.01163 -5.23317,1.21526c0,1.10478 -0.78497,2.00605 -1.74439,2.00605z" fill="url(#color-13)" stroke="url(#color-14)"/></g></g></svg>